<svg width="120" height="35" xmlns="http://www.w3.org/2000/svg">
 <style type="text/css">.st0{fill:#F7931A;} .st1{fill:#FFFFFF;} .st2{fill:#4D4D4D;}</style>

 <metadata>Symbolon Studio</metadata>
 <g>
  <title>background</title>
  <rect fill="none" id="canvas_background" height="37" width="122" y="-1" x="-1"/>
 </g>
 <g>
  <title>Layer 1</title>
  <path id="svg_1" fill="#F7931A" d="m119.572448,21.248031c-2.002,9.433 -11.26,15.455 -20.679,13.45s-15.43,-11.278 -13.428,-20.712c2.002,-9.433 11.26,-15.455 20.679,-13.45s15.43,11.278 13.428,20.712z" class="st0"/>
  <path id="svg_2" fill="#FFF" d="m109.007448,20.318031a5.12,5.12 0 0 0 -1.153,-1.587a7.425,7.425 0 0 0 -1.199,-0.886c0.372,-0.076 0.711,-0.219 1.073,-0.365c0.543,-0.22 0.973,-0.567 1.346,-0.978c0.35,-0.408 0.609,-0.947 0.742,-1.54c0.143,-0.69 0.098,-1.354 -0.198,-1.936a3.669,3.669 0 0 0 -1.13,-1.422a6.347,6.347 0 0 0 -1.614,-0.948c-0.331,-0.145 -0.702,-0.237 -1.054,-0.356l0.65,-3.065l-1.539,-0.328l-0.212,-0.045l-0.649,3.06l-1.8,-0.395l0.647,-3.049l-1.773,-0.377l-0.648,3.051l-3.744,-0.794l-0.388,1.85l0.549,0.163c0.151,0.051 0.378,0.139 0.655,0.244c0.254,0.108 0.438,0.226 0.648,0.364c0.157,0.098 0.214,0.162 0.194,0.188a0.569,0.569 0 0 1 -0.001,0.335l-2.166,10.191c-0.031,0.124 -0.068,0.201 -0.105,0.278c-0.02,0.027 -0.087,0.06 -0.251,0.083c-0.047,0.007 -0.211,0.03 -0.673,-0.026a5.335,5.335 0 0 1 -0.827,-0.1l-0.559,-0.066l-0.388,1.85l3.845,0.827l-0.647,3.046l1.773,0.377l0.647,-3.049l1.8,0.395l-0.645,3.038l1.773,0.377l0.642,-3.064a9.257,9.257 0 0 0 1.64,0.106a7.227,7.227 0 0 0 2.127,-0.345a4.54,4.54 0 0 0 1.815,-1.044c0.531,-0.481 0.894,-1.131 1.071,-1.921c0.056,-0.795 0.005,-1.506 -0.274,-2.137zm-5.036,-8.347c1.161,0.269 1.924,1.455 1.679,2.615c-0.242,1.183 -1.406,1.92 -2.587,1.678l-2.118,-0.446l0.908,-4.293l2.118,0.446zm-1.982,11.506l-2.586,-0.548l1.081,-5.107l2.586,0.548c1.405,0.306 2.315,1.688 2.009,3.095a2.589,2.589 0 0 1 -3.09,2.012z" class="st1"/>
  <path id="svg_3" fill="#4D4D4D" d="m13.867448,11.076031c-0.629,-0.575 -1.399,-1.018 -2.308,-1.329c-0.91,-0.311 -1.94,-0.467 -3.09,-0.467c-0.653,0 -1.388,0.035 -2.204,0.105c-0.817,0.07 -1.668,0.19 -2.554,0.362l-3.754,15.601c0.793,0.171 1.616,0.295 2.471,0.373c0.855,0.077 1.61,0.117 2.262,0.117c1.726,0 3.273,-0.234 4.641,-0.7c1.367,-0.467 2.53,-1.131 3.486,-1.994a8.62,8.62 0 0 0 2.204,-3.16c0.513,-1.243 0.77,-2.65 0.77,-4.221c0,-0.964 -0.163,-1.842 -0.49,-2.635a5.667,5.667 0 0 0 -1.434,-2.052zm-2.274,7.73c-0.31,0.847 -0.75,1.563 -1.317,2.146a5.666,5.666 0 0 1 -2.076,1.341c-0.816,0.311 -1.729,0.467 -2.74,0.467c-0.31,0 -0.556,-0.004 -0.734,-0.012a9.702,9.702 0 0 1 -0.525,-0.035l2.471,-10.308c0.482,-0.046 0.957,-0.07 1.423,-0.07c0.715,0 1.325,0.086 1.83,0.257c0.506,0.171 0.917,0.417 1.236,0.735c0.318,0.318 0.548,0.699 0.688,1.142c0.14,0.443 0.21,0.937 0.21,1.481c0.001,1.057 -0.154,2.009 -0.466,2.856z" class="st2"/>
  <path id="svg_4" fill="#4D4D4D" d="m27.835448,14.457031a3.938,3.938 0 0 0 -1.516,-1.049c-0.614,-0.249 -1.326,-0.373 -2.133,-0.373c-1.104,0 -2.084,0.237 -2.939,0.711a7.158,7.158 0 0 0 -2.169,1.83a7.999,7.999 0 0 0 -1.341,2.519a8.986,8.986 0 0 0 -0.455,2.798c0,0.746 0.101,1.426 0.304,2.041c0.202,0.614 0.501,1.147 0.897,1.597c0.397,0.451 0.898,0.801 1.504,1.05c0.607,0.249 1.322,0.373 2.146,0.373c1.135,0 2.133,-0.237 2.996,-0.711a6.85,6.85 0 0 0 2.157,-1.831a8.09,8.09 0 0 0 1.307,-2.518a9.27,9.27 0 0 0 0.443,-2.798c0,-0.747 -0.101,-1.427 -0.303,-2.041a4.52,4.52 0 0 0 -0.898,-1.598zm-2.448,5.515a5.522,5.522 0 0 1 -0.595,1.481a3.796,3.796 0 0 1 -0.979,1.119a2.176,2.176 0 0 1 -1.353,0.443c-0.653,0 -1.104,-0.214 -1.353,-0.642c-0.25,-0.427 -0.373,-1.038 -0.373,-1.83c0,-0.482 0.066,-0.991 0.198,-1.527c0.131,-0.537 0.33,-1.03 0.594,-1.481c0.265,-0.451 0.591,-0.824 0.98,-1.119a2.174,2.174 0 0 1 1.353,-0.443c0.653,0 1.103,0.214 1.353,0.641c0.249,0.428 0.372,1.038 0.372,1.83a6.39,6.39 0 0 1 -0.197,1.528z" class="st2"/>
  <path id="svg_5" fill="#4D4D4D" d="m37.735448,13.082031c-0.622,0 -1.178,0.027 -1.667,0.082c-0.491,0.054 -0.933,0.124 -1.33,0.21c-0.396,0.086 -0.754,0.179 -1.072,0.28c-0.319,0.101 -0.611,0.19 -0.875,0.268l-2.822,11.707l3.475,0l2.262,-9.491c0.466,-0.093 0.925,-0.14 1.376,-0.14c0.466,0 0.812,0.09 1.037,0.268c0.226,0.179 0.37,0.412 0.432,0.7s0.066,0.622 0.012,1.003c-0.054,0.381 -0.128,0.774 -0.222,1.178l-1.539,6.483l3.475,0l1.585,-6.623c0.451,-1.834 0.335,-3.28 -0.349,-4.338c-0.685,-1.059 -1.945,-1.587 -3.778,-1.587z" class="st2"/>
  <path id="svg_6" fill="#4D4D4D" d="m56.204448,13.991031a7.393,7.393 0 0 0 -1.423,-0.513a11.617,11.617 0 0 0 -1.422,-0.268a16.608,16.608 0 0 0 -1.936,-0.128a7.32,7.32 0 0 0 -2.985,0.606a7.405,7.405 0 0 0 -2.39,1.668a7.723,7.723 0 0 0 -1.586,2.484a8.054,8.054 0 0 0 -0.572,3.031c0,0.7 0.078,1.357 0.234,1.971c0.155,0.614 0.409,1.15 0.757,1.609c0.35,0.459 0.801,0.824 1.354,1.096c0.551,0.272 1.216,0.408 1.994,0.408c0.653,0 1.244,-0.116 1.772,-0.35a6.186,6.186 0 0 0 1.446,-0.886c0.078,0.218 0.155,0.412 0.233,0.583c0.078,0.171 0.164,0.35 0.257,0.537l3.102,-0.443c-0.265,-0.7 -0.444,-1.497 -0.537,-2.39a7.717,7.717 0 0 1 0.187,-2.67l1.515,-6.345zm-4.851,5.736c-0.078,0.358 -0.151,0.75 -0.221,1.178c-0.07,0.428 -0.121,0.836 -0.151,1.224c-0.326,0.326 -0.634,0.56 -0.922,0.7s-0.61,0.21 -0.967,0.21c-0.669,0 -1.127,-0.217 -1.376,-0.653c-0.25,-0.435 -0.373,-1.026 -0.373,-1.772c0,-0.606 0.097,-1.189 0.291,-1.749a4.94,4.94 0 0 1 0.805,-1.481a4.239,4.239 0 0 1 1.2,-1.038a2.923,2.923 0 0 1 1.482,-0.396a6.608,6.608 0 0 1 1.142,0.093l-0.91,3.684z" class="st2"/>
  <path id="svg_7" fill="#4D4D4D" d="m63.854448,9.747031l-3.615,0.559l-2.286,9.655a12.165,12.165 0 0 0 -0.326,2.262c-0.031,0.715 0.078,1.349 0.326,1.901s0.669,0.987 1.26,1.306s1.422,0.478 2.495,0.478c0.747,0 1.391,-0.062 1.936,-0.187c0.544,-0.124 1.05,-0.272 1.516,-0.443l-0.257,-2.659c-0.357,0.125 -0.71,0.222 -1.06,0.292c-0.35,0.07 -0.711,0.105 -1.085,0.105c-0.435,0 -0.778,-0.062 -1.026,-0.187a1.076,1.076 0 0 1 -0.525,-0.525a1.637,1.637 0 0 1 -0.116,-0.804c0.023,-0.311 0.081,-0.645 0.175,-1.003l1.026,-4.291l3.847,0l0.7,-2.845l-3.871,0l0.886,-3.614z" class="st2"/>
  <path id="svg_8" fill="#4D4D4D" d="m77.856448,15.029031a3.05,3.05 0 0 0 -0.816,-1.085a3.676,3.676 0 0 0 -1.225,-0.676a4.779,4.779 0 0 0 -1.516,-0.233c-1.104,0 -2.11,0.221 -3.02,0.665a7.34,7.34 0 0 0 -2.321,1.749a7.935,7.935 0 0 0 -1.481,2.483a8.168,8.168 0 0 0 -0.525,2.892c0,0.7 0.094,1.361 0.281,1.982c0.187,0.622 0.485,1.166 0.897,1.633c0.412,0.467 0.948,0.836 1.61,1.108c0.66,0.272 1.473,0.408 2.437,0.408c0.793,0 1.527,-0.07 2.204,-0.21c0.676,-0.14 1.232,-0.295 1.667,-0.467l-0.257,-2.729c-0.451,0.171 -0.932,0.3 -1.445,0.385s-1.019,0.128 -1.516,0.128c-0.794,0 -1.373,-0.136 -1.738,-0.408c-0.366,-0.272 -0.603,-0.734 -0.711,-1.388c1.12,0 2.154,-0.085 3.102,-0.257c0.948,-0.171 1.769,-0.446 2.46,-0.828c0.692,-0.381 1.232,-0.875 1.621,-1.481c0.388,-0.606 0.582,-1.345 0.582,-2.215a3.47,3.47 0 0 0 -0.29,-1.456zm-3.02,2.53c-0.109,0.218 -0.326,0.42 -0.653,0.606c-0.326,0.187 -0.785,0.346 -1.376,0.478c-0.591,0.132 -1.369,0.214 -2.332,0.245c0.186,-0.933 0.578,-1.683 1.178,-2.25c0.598,-0.567 1.294,-0.851 2.086,-0.851c0.839,0 1.26,0.373 1.26,1.119c0.001,0.218 -0.054,0.435 -0.163,0.653z" class="st2"/>
 </g>
</svg>