<?xml version="1.0" encoding="UTF-8" standalone="no"?>
<!-- Created with Inkscape (http://www.inkscape.org/) -->

<svg
   xmlns:dc="http://purl.org/dc/elements/1.1/"
   xmlns:cc="http://creativecommons.org/ns#"
   xmlns:rdf="http://www.w3.org/1999/02/22-rdf-syntax-ns#"
   xmlns:svg="http://www.w3.org/2000/svg"
   xmlns="http://www.w3.org/2000/svg"
   xmlns:sodipodi="http://sodipodi.sourceforge.net/DTD/sodipodi-0.dtd"
   xmlns:inkscape="http://www.inkscape.org/namespaces/inkscape"
   width="64"
   height="64"
   viewBox="0 0 64.000001 64.000001"
   id="svg4755"
   version="1.1"
   inkscape:version="0.91 r13725"
   sodipodi:docname="15_Bonds_of_the_Wild.svg"
   inkscape:export-filename="/home/maym/download/descent images maym/15_Bonds_of_the_Wild.png"
   inkscape:export-xdpi="90"
   inkscape:export-ydpi="90">
  <defs
     id="defs4757" />
  <sodipodi:namedview
     id="base"
     pagecolor="#ffffff"
     bordercolor="#666666"
     borderopacity="1.0"
     inkscape:pageopacity="0.0"
     inkscape:pageshadow="2"
     inkscape:zoom="5.6"
     inkscape:cx="59.832109"
     inkscape:cy="41.967739"
     inkscape:document-units="px"
     inkscape:current-layer="layer1"
     showgrid="false"
     units="px"
     inkscape:window-width="1920"
     inkscape:window-height="983"
     inkscape:window-x="0"
     inkscape:window-y="37"
     inkscape:window-maximized="1" />
  <metadata
     id="metadata4760">
    <rdf:RDF>
      <cc:Work
         rdf:about="">
        <dc:format>image/svg+xml</dc:format>
        <dc:type
           rdf:resource="http://purl.org/dc/dcmitype/StillImage" />
        <dc:title></dc:title>
      </cc:Work>
    </rdf:RDF>
  </metadata>
  <g
     inkscape:label="Layer 1"
     inkscape:groupmode="layer"
     id="layer1"
     transform="translate(0,-988.36216)">
    <path
       style="fill:#000000"
       d="m 26.459779,1049.0407 c -1.269612,-0.6226 -3.357157,-2.9623 -4.638988,-5.199 -1.281833,-2.2369 -2.359449,-3.3174 -2.394704,-2.4014 -0.03904,1.0144 -0.677239,0.5804 -1.632506,-1.1103 -0.949216,-1.68 -1.590396,-2.1183 -1.624102,-1.1104 -0.04951,1.4805 -0.1739,1.4805 -1.119542,0 -0.902002,-1.4121 -1.066403,-1.3599 -1.080651,0.3431 -0.0093,1.1048 -0.510662,1.6999 -1.114264,1.3225 -0.603601,-0.3774 -1.10502,-1.7811 -1.114262,-3.119 -0.01367,-1.9779 -0.215761,-2.1214 -1.080653,-0.7673 -0.585116,0.916 -1.1061201,1.1658 -1.1577859,0.5551 -0.051666,-0.6107 -0.5183755,-0.111 -1.0371291,1.1104 -0.8296303,1.9535 -0.9524736,1.8452 -1.0203221,-0.8982 -0.042423,-1.7156 -0.5354349,-2.8327 -1.0955796,-2.4824 -0.5601448,0.3503 -1.3740022,-0.4945 -1.808571,-1.8775 -0.7636878,-2.4303 -0.8188338,-2.4402 -1.6480642,-0.2938 -0.8098639,2.0963 -0.8622602,2.0799 -0.9350728,-0.2926 -0.042423,-1.3824 -0.6944541,-3.5273 -1.44895615,-4.7663 -2.17429255,-3.5708 2.93963265,-11.963 9.31166735,-15.2807 4.4581215,-2.3213 5.4443745,-2.4517 9.7586815,-1.29 2.639644,0.7108 6.371437,2.4956 8.292866,3.9661 1.921429,1.4704 3.740574,2.6735 4.042546,2.6735 0.301959,0 3.033458,-1.5625 6.069988,-3.4724 6.888558,-4.3325 12.307231,-4.6665 17.996243,-1.1091 5.292001,3.309 8.866798,10.1182 7.844785,14.9424 -1.008125,4.7587 -1.683451,5.702 -2.802626,3.9149 -0.684972,-1.0937 -0.948081,-0.804 -0.960275,1.0573 -0.0098,1.4102 -0.454519,2.2903 -0.989493,1.9557 -0.534986,-0.3345 -1.304547,0.5104 -1.710143,1.8776 -0.717347,2.4182 -0.763526,2.4253 -1.693816,0.2651 -0.646781,-1.5018 -0.986785,-1.6815 -1.050316,-0.5551 -0.08353,1.4805 -0.212138,1.4805 -1.157781,0 -0.800998,-1.2541 -1.077618,-0.7053 -1.119541,2.2207 l -0.05573,3.8863 -1.568401,-2.7759 c -0.949215,-1.68 -1.590399,-2.1183 -1.624103,-1.1104 -0.04951,1.4805 -0.173898,1.4805 -1.119541,0 -0.902,-1.4121 -1.066412,-1.3599 -1.080654,0.3431 -0.0098,1.1048 -0.510269,1.7002 -1.113383,1.323 -0.603114,-0.377 -2.15687,1.1325 -3.452784,3.3548 -3.323528,5.6993 -9.948294,7.7035 -15.867065,4.8002 z m 12.691474,-3.3683 c 1.230714,-1.3366 2.237667,-3.6771 2.237667,-5.2013 0,-4.2675 -4.355431,-12.3869 -7.396668,-13.789 -2.450891,-1.1298 -3.089843,-0.8556 -6.322929,2.7138 -7.907285,8.73 -5.486114,18.7067 4.539755,18.7067 3.426348,0 5.312451,-0.6603 6.942175,-2.4302 z m -10.787922,-2.3911 c -0.672278,-0.8195 -0.897366,-1.8188 -0.500197,-2.2207 1.033452,-1.0456 9.135956,-0.9058 9.135956,0.1576 0,3.2276 -6.422114,4.7618 -8.635759,2.0631 z m -5.274894,-19.2272 c 1.23537,-1.2499 -1.594411,-3.7109 -4.267008,-3.7109 -3.563425,0 -4.417503,2.0347 -1.372718,3.2703 3.128024,1.2692 4.699439,1.3919 5.639726,0.4406 z m 23.167598,-0.3522 c 3.300347,-1.2697 3.741927,-3.3587 0.709933,-3.3587 -3.270972,0 -5.577048,1.197 -5.577048,2.8948 0,1.8281 1.058474,1.9289 4.867115,0.4639 z m 8.851104,-12.317 c -4.055227,-2.6282 -5.633969,-2.6585 -15.598419,-0.3007 -7.410558,1.7535 -8.338324,1.7545 -14.524741,0.013 -8.134359,-2.2882 -12.16538,-2.3498 -14.937208,-0.2286 -3.2101206,2.4565 -3.7431764,2.0859 -3.5425039,-2.463 0.1010271,-2.2903 -0.2210072,-7.287 -0.715635,-11.1038 -0.6700807,-5.17087 -0.5628274,-6.93983 0.4207555,-6.93983 0.7260413,0 5.1110694,1.34047 9.7445074,2.97877 11.525117,4.0751 20.905257,4.08593 32.204107,0.037 4.628405,-1.65865 8.929792,-3.01565 9.558635,-3.01565 0.734821,0 1.061095,4.16192 0.913122,11.64761 -0.126635,6.4062 -0.230247,11.6162 -0.230247,11.5778 0,-0.038 -1.481568,-1.03 -3.292373,-2.2037 z m -31.82627,-7.718 4.389832,-0.069 -3.651709,-3.1609 c -3.17014,-2.74424 -15.1908671,-7.70996 -15.9461276,-6.58737 -0.1481946,0.22022 0.1640516,3.48188 0.6938809,7.24807 l 0.9633275,6.8476 4.5804822,-2.1042 c 2.519267,-1.1572 6.555907,-2.1353 8.970314,-2.1736 z m 32.780668,-5.38228 0.758453,-4.84804 -3.051346,0.71792 c -4.510965,1.06128 -14.879244,6.5444 -15.401853,8.1452 -0.300716,0.9211 0.777426,1.3977 3.205039,1.4171 2.012005,0.016 5.633615,0.9325 8.048022,2.0364 5.006857,2.2896 4.894685,2.4196 6.441685,-7.46858 z"
       id="path4847"
       inkscape:connector-curvature="0" />
  </g>
</svg>
