<?xml version="1.0" encoding="UTF-8" standalone="no"?>
<!-- Created with Inkscape (http://www.inkscape.org/) -->

<svg
   xmlns:dc="http://purl.org/dc/elements/1.1/"
   xmlns:cc="http://creativecommons.org/ns#"
   xmlns:rdf="http://www.w3.org/1999/02/22-rdf-syntax-ns#"
   xmlns:svg="http://www.w3.org/2000/svg"
   xmlns="http://www.w3.org/2000/svg"
   xmlns:sodipodi="http://sodipodi.sourceforge.net/DTD/sodipodi-0.dtd"
   xmlns:inkscape="http://www.inkscape.org/namespaces/inkscape"
   width="64"
   height="64"
   viewBox="0 0 64.000001 64.000001"
   id="svg4305"
   version="1.1"
   inkscape:version="0.91 r13725"
   sodipodi:docname="11_Crown_of_Destiny.svg"
   inkscape:export-filename="/home/maym/download/descent images maym/11_Crown_of_Destiny.png"
   inkscape:export-xdpi="90"
   inkscape:export-ydpi="90">
  <defs
     id="defs4307" />
  <sodipodi:namedview
     id="base"
     pagecolor="#ffffff"
     bordercolor="#666666"
     borderopacity="1.0"
     inkscape:pageopacity="0.0"
     inkscape:pageshadow="2"
     inkscape:zoom="11.313709"
     inkscape:cx="27.956169"
     inkscape:cy="31.036625"
     inkscape:document-units="px"
     inkscape:current-layer="layer1"
     showgrid="false"
     units="px"
     inkscape:window-width="1920"
     inkscape:window-height="983"
     inkscape:window-x="0"
     inkscape:window-y="37"
     inkscape:window-maximized="1" />
  <metadata
     id="metadata4310">
    <rdf:RDF>
      <cc:Work
         rdf:about="">
        <dc:format>image/svg+xml</dc:format>
        <dc:type
           rdf:resource="http://purl.org/dc/dcmitype/StillImage" />
        <dc:title></dc:title>
      </cc:Work>
    </rdf:RDF>
  </metadata>
  <g
     inkscape:label="Layer 1"
     inkscape:groupmode="layer"
     id="layer1"
     transform="translate(0,-988.36216)">
    <path
       style="fill:#000000"
       d="m 27.16242,988.3622 c -0.364938,1.35749 -0.480807,1.74713 1.818443,2.92886 1.987755,0.90983 2.691572,2.88677 1.32872,3.73292 -0.381511,0.23687 -2.691275,0.92949 -4.200308,0.59071 -1.82308,-0.40927 -1.019805,-2.00312 -1.019805,-2.00312 0,0 -0.533138,-0.0126 -1.128627,1.35069 -0.368471,0.84356 -0.391649,1.07542 -1.939549,1.02802 -0.890448,-0.0273 -1.168997,-1.95551 -1.168997,-1.95551 -0.873408,1.4435 0.428864,3.39204 -1.504252,3.46137 -0.977754,0.035 -0.935552,-2.23588 -0.935552,-2.23588 -0.62325,1.24976 -0.469637,2.2937 -0.982941,3.78583 -0.829804,2.41221 -2.269539,-2.07365 -2.269539,-2.07365 0,0 -0.656366,1.761 -0.303657,4.96726 0.07989,0.7265 -0.99732,2.8497 -2.206353,-0.4937 0,0 -0.201441,1.2125 -0.06668,1.6628 0.680856,2.276 2.030596,2.3436 1.448084,4.8685 -0.05626,0.2437 -0.67558,0.6901 -0.967141,0.1958 -0.33496,-0.5678 -0.679283,-0.9857 -0.679283,-0.9857 0,0 -0.179396,0.9217 0.419508,1.7774 0.56177,0.8026 1.366815,1.0629 1.835993,1.631 1.050154,1.2718 1.274898,2.3077 1.223403,3.107 -0.135019,2.096 0.606282,3.1616 -0.921506,3.1616 -1.389489,0 -0.905312,-0.8901 -1.369089,-1.4618 -0.477231,1.6711 0.365335,3.2238 -0.49498,3.8582 -0.595129,0.4388 -1.909713,-1.9255 -1.909713,-1.9255 -0.555884,1.8777 1.292826,4.3834 1.735943,6.2332 0.403888,1.296 -0.824044,1.4351 -2.013278,1.8849 -2.8162025,1.0653 2.085029,8.704 -1.9026946,10.4231 -2.0740742,1.4641 -0.2404621,3.4085 -0.2404621,3.4085 0,0 0.085375,-1.8158 0.888156,-1.7616 1.2419067,0.084 0.2496196,1.9619 0.5809837,2.7296 0.42561,0.986 0.621201,1.5544 2.194058,1.4618 -1.016551,-1.4719 0.221698,-3.1785 1.307673,-4.1826 1.055555,-0.825 2.361089,-0.1279 2.337992,1.7809 0.896146,-1.4765 1.294166,-3.7669 -0.182326,-4.8065 -1.966195,-1.3841 0.647478,-6.6637 3.749356,-3.6922 0.748203,0.7168 2.027234,-0.9905 5.921665,-2.8298 3.098947,-1.4635 7.662892,-2.9469 9.896897,-3.4452 4.468414,-0.9967 7.652953,-2.404 7.652953,-6.268 0,-1.8067 -0.784366,-4.9378 -1.756612,-5.408 -2.224444,-1.0761 -0.194,-2.6188 1.338803,-1.1751 1.947782,1.8346 2.562053,8.5413 0.857267,10.4337 -0.738326,0.8195 -2.241149,2.4357 -7.715438,3.8728 -6.879551,1.806 -14.390376,5.5911 -16.741148,7.7912 -1.200216,1.1234 -0.992439,3.7628 -0.936181,5.8655 0.01689,0.6301 0.827989,0.493 0.601555,1.9265 -0.253179,1.6028 0.477149,2.6923 0.477149,2.6923 0,0 -0.05734,-0.8283 0.139846,-1.1334 0.809898,-1.2528 2.174053,-1.078 2.187983,0.527 0.0054,0.6036 0.138973,1.4059 0.138973,1.4059 0,0 -0.01087,-1.4112 0.429537,-1.8515 1.242616,-0.1225 0.454701,0.6306 1.167513,1.6108 0.226146,-1.6986 1.245681,-2.0632 1.614773,-0.7692 0,0 -0.05536,-0.8713 0.546573,-1.2413 0.499815,-0.3073 1.042048,0.2008 1.042048,0.2008 0,0 -0.31997,-0.7309 0.844542,-1.3297 1.47978,-0.7611 0.876005,-1.928 1.163829,-2.2315 0.40778,-0.4298 2.294126,-0.4721 2.294126,-0.4721 0,0 -0.65668,-0.7376 -0.752283,-1.1242 -0.361578,-1.4623 0.218382,-1.8053 0.934349,-1.886 1.12683,-0.127 1.060587,0.7286 1.083881,1.3652 0.063,1.723 0.972345,0.7175 0.880607,3.0609 -0.116488,2.9759 -0.728243,4.4832 -4.075651,5.6327 -0.917651,0.315 -2.10126,1.4524 -2.10126,2.1334 0,0.342 0.438291,1.1273 0.438291,1.1273 0,0 0.06892,-0.8865 0.926916,-1.2299 0.604234,-0.2417 1.842141,0.4037 0.451716,2.0509 -0.63087,0.7473 1.213051,2.2458 1.213051,2.2458 0,0 -0.262544,-1.4877 0.903784,-1.8695 3.654948,-1.1964 3.464479,-0.3957 4.273659,0.6921 1.066384,1.4338 1.387126,1.0035 1.387126,1.0035 0,0 -0.678214,-0.8746 0.625316,-1.6137 2.08112,-1.1798 0.756884,0.339 3.11144,-1.5802 0.568222,-0.4632 1.070913,1.0141 1.070913,1.0141 0,0 0.439836,-1.6756 -0.499384,-2.6192 -0.733114,-0.7365 -1.775493,-1.4187 -0.743475,-2.9396 1.136715,-1.6753 1.846678,-3.7077 1.493719,-6.3938 -0.372938,-2.8383 1.376099,-1.7449 1.416495,-3.5814 0.06866,-3.1204 3.470708,-0.2742 1.441055,3.5514 -0.806375,1.5199 -1.868067,3.5628 -0.731936,4.8245 0.704967,0.7828 1.933115,0.4372 2.983925,0.4372 3.593244,0 4.630357,-0.8434 4.630357,-3.5371 0,-1.8942 -1.793396,-2.6539 -2.741153,-1.1134 -0.274935,0.4469 0.423139,0.4538 0.89424,0.4538 0.471111,0 0.30053,0.6535 0.30053,1.1004 0,0.4469 -0.63007,1.6076 -2.012702,1.6707 -1.403203,0.064 -1.526773,-1.0019 -1.364856,-1.6085 0.492319,-1.8443 3.057419,-3.4963 2.523921,-5.0323 -0.633916,-1.4162 1.421851,-2.0381 1.421851,-2.0381 0,0 -1.58445,-0.1164 -1.514308,-0.6094 0.130652,-0.9182 0.547769,-0.8581 1.600709,-0.8435 -0.636299,-0.565 -1.169976,-0.1965 -1.549933,-0.5898 -0.440861,-0.4563 -0.272653,-1.3327 -0.272653,-1.3327 0,0 -0.394048,0.7362 -0.731101,0.6971 -0.669649,-0.078 -0.685187,-0.6865 -0.908547,-1.2243 -0.348179,-0.8383 0.862337,-0.8643 1.788803,-1.253 1.36997,-0.5747 1.501781,-1.3986 1.501781,-1.3986 0,0 -1.087503,0.2939 -1.226971,-0.071 -0.312446,-0.818 -0.692304,-1.9674 1.526935,-2.4044 0.722042,-0.1422 0.488572,1.696 0.488572,1.696 0,0 1.407651,-2.9109 2.350367,-3.7808 2.090394,-1.9288 1.8229,-4.051 1.8229,-4.051 0,0 -0.549602,0.6829 -0.891661,0.7759 -0.813619,0.2214 -1.706906,-1.9977 0.512531,-3.6624 1.702539,-1.2772 1.281332,-3.606 1.281332,-3.606 0,0 -0.781499,1.3251 -1.351546,1.8003 -1.139142,0.9499 -3.702193,-0.2094 -0.710872,-3.1227 0.616788,-0.6007 0.179037,-2.2923 0.179037,-2.2923 0,0 0.08295,0.5678 -0.868853,1.7157 -1.134405,1.3681 -2.17923,-0.4477 -0.97416,-1.9238 0.488195,-0.5981 0.670503,-2.1459 0.670503,-2.1459 0,0 -0.988881,1.4815 -1.55164,1.6293 -1.423944,0.3741 -1.877217,0.056 -1.930778,-1.8974 -0.02624,-0.9573 -0.249251,-2.2289 -0.249251,-2.2289 0,0 -0.194711,1.2873 -0.26328,1.423 -0.472476,0.9354 -1.725375,0.2582 -1.727171,-1.058 -8.81e-4,-0.7089 -0.398443,-1.3648 -0.398443,-1.3648 0,0 -0.0971,1.5079 -0.786353,1.4847 -1.730793,-0.058 -2.220219,-1.9634 -9.624037,-1.6645 -2.333606,0.094 -4.669082,1.1115 -4.653175,-0.4285 0.01078,-1.0399 -0.366845,-1.1056 -0.366845,-1.1056 0,0 -0.09583,1.0313 -0.803904,1.3366 -1.517804,0.6544 -3.382475,-0.2802 -5.099006,1.7721 -0.499464,0.5972 -2.274383,1.7616 -3.275297,2.2835 -1.584037,0.826 -1.974661,0.6328 -1.974661,-0.7282 0,-2.6187 1.644123,-5.68815 5.455326,-6.49611 5.687764,-1.2058 6.971855,-1.83096 6.971855,-4.75389 0,-1.78999 -0.533669,-2.59017 -2.223903,-3.33618 -3.585327,-1.27426 -2.577448,-1.18806 -3.234928,-2.0613 z m 9.959294,14.2141 c 2.232828,0.08 2.082477,2.3339 1.295378,3.1246 -1.065143,1.07 -3.196311,0.2901 -3.196311,-1.2396 0,-0.8938 0.329046,-1.9412 1.900933,-1.885 z m 7.096485,1.8956 c 0.538413,-0.028 1.154724,0.5624 1.161968,1.0932 0.0072,0.5169 -0.373917,1.2132 -1.123361,1.2203 -0.756462,0.01 -1.161986,-0.5695 -1.168996,-1.1709 -0.0072,-0.5873 0.564107,-1.1131 1.130389,-1.1426 z m -5.091988,1.2749 c 0.196166,0 1.032638,0.087 1.012777,1.1126 -0.009,0.4468 -0.564484,1.1708 -1.035594,1.1708 -0.471101,0 -1.127989,-1.2035 -0.853053,-1.6504 0.274936,-0.4469 0.679696,-0.633 0.87587,-0.633 z m -11.486048,0 c 1.806086,0 5.76958,0.6025 5.402349,4.4259 -0.04232,0.4411 -2.646529,0.273 -4.238924,-1.5306 -0.281308,-0.3186 -1.960336,0.024 -3.449068,0.9486 -1.488732,0.9246 -2.277807,1.7923 -2.551799,0.8846 -0.107366,-0.3557 -0.471398,0.083 -0.635849,1.4038 -0.154808,1.2434 -1.97769,0.6134 -1.392635,-1.182 0.598455,-1.8365 4.18974,-4.9503 6.865926,-4.9503 z m -7.681297,1.1919 c 0.353239,0.039 0.684549,0.3931 0.684549,0.7283 0,0.4469 -0.687281,1.3478 -1.132132,1.624 -0.444851,0.2762 -0.94959,-0.1456 -0.94959,-0.5925 0,-0.4469 0.603029,-1.4042 1.047879,-1.6804 0.111213,-0.069 0.231566,-0.092 0.349294,-0.079 z m 15.728793,1.3469 c 0.569759,2e-4 1.051474,0.1911 1.051951,0.6975 6.19e-4,0.507 -0.481419,0.7787 -1.051951,0.779 -0.571224,5e-4 -0.875602,-0.2316 -0.874973,-0.7391 4.68e-4,-0.507 0.304521,-0.738 0.874973,-0.7374 z m -7.986034,1.5509 c 1.267834,-0.1088 2.830248,0.4899 3.733449,1.0774 1.981842,1.2893 1.335711,3.1418 0.601887,6.079 -0.889441,3.5601 -4.161395,3.8257 -8.440519,0.5059 -1.915114,-1.7059 -1.723522,-3.7164 0.384298,-5.5528 1.17065,-1.02 2.688732,-2.0209 3.720885,-2.1095 z m -10.337012,2.4997 c 0.78966,-0.025 1.758706,1.1147 1.430523,2.7685 -0.33513,1.4194 -1.725958,1.4062 -2.327459,0.014 -0.634357,-1.4682 -0.351935,-2.7427 0.896936,-2.7825 z m 29.82687,-0.8163 c 0.471111,0 1.21402,0.2463 1.174298,1.3216 -0.01644,0.4465 0.02741,1.498 -0.842844,1.5492 -1.104282,0.065 -1.415677,-0.3742 -1.432455,-1.4893 -0.0081,-0.5254 0.242664,-1.3915 1.101001,-1.3815 z m -30.19899,6.6688 c 0.104464,-0.01 0.214922,0 0.331742,0 0.922279,0.056 1.005767,1.1982 1.005758,1.6451 0,0.4187 -0.196777,1.2302 -1.09001,1.1797 -0.753559,-0.042 -1.417465,-0.7752 -1.412972,-1.222 0.01231,-1.2058 0.434255,-1.5718 1.165482,-1.6063 z m 16.955736,-1.4513 c 0.966656,0.017 1.757035,2.5781 0.584489,3.8123 -3.453732,3.6355 -6.17674,3.5427 -9.164161,2.7419 -2.898728,-0.7769 -3.610229,-5.2384 -1.93254,-4.715 1.961029,0.6118 2.182206,2.0855 4.02129,2.458 0.857556,0.2216 2.410696,0.4575 4.670718,-1.6593 1.135394,-1.0633 1.461339,-2.6442 1.820204,-2.6379 z m -11.339068,7.1101 c 0.939552,-0.1047 1.787824,0.9068 2.066292,1.3515 0.860755,1.3745 -0.195708,2.1054 -0.880931,1.9981 -1.338937,-0.2094 -2.011507,-1.0955 -2.282974,-1.4494 -0.526254,-0.6864 0.172836,-1.7972 1.097613,-1.9002 z m 24.301562,2.1726 c 1.113611,0 1.22219,0.3602 1.177049,1.0522 -0.06399,0.981 -0.646463,1.1721 -1.339711,1.192 -1.388546,0.04 -1.850903,-0.4258 -1.238375,-1.2916 0.302939,-0.4283 0.704419,-0.9526 1.401037,-0.9526 z m -6.839396,1.925 c 1.193844,-0.042 1.340124,0.1527 1.498572,0.6533 0.255084,0.806 -0.169708,1.2106 -1.316067,1.4113 -0.829022,0.1453 -1.342164,0.1106 -1.599612,-0.7729 -0.12561,-0.4311 0.244417,-1.2508 1.417107,-1.2917 z m 3.814608,-1.0174 c 0.6935,0 1.632253,1.1863 1.01994,2.0298 -0.602705,0.8302 -1.32003,0.9725 -1.738629,0.9725 -0.418592,0 -1.112379,-0.2071 -1.137336,-1.0922 -0.0301,-1.0666 1.162489,-1.9101 1.856025,-1.9101 z m -10.296642,2.4237 c 1.03767,0.151 1.385059,0.072 1.42478,2.0629 0.02381,1.1928 -0.145883,1.566 -1.345345,1.566 -0.87544,0 -1.484436,0.066 -1.385068,-1.7655 0.0657,-1.2111 0.446998,-1.9883 1.305633,-1.8634 z m 12.187358,-0.079 c 0.961174,0 1.018438,0.7419 0.745812,1.1901 -0.672102,1.1053 -1.182027,0.996 -1.625395,1.0324 -1.457637,0.1197 -1.145109,-0.486 -0.904682,-0.9526 0.374232,-0.7261 1.180553,-1.2699 1.784265,-1.2699 z m -15.756715,0.3292 c 1.375874,-0.1696 1.476419,0.2748 0.917651,2.1435 -0.53304,1.7825 -1.502113,1.5013 -2.385731,0.9105 -0.849126,-0.5677 0.325496,-2.9131 1.46808,-3.054 z m 6.575308,-0.1543 c 0.569823,-0.061 1.276111,-0.019 1.717906,1.1768 0.40946,0.995 0.467795,2.2498 -0.92147,2.4131 -1.053821,0.1238 -1.711373,-0.08 -1.77748,-2.1894 -0.0301,-0.9596 -0.3181,-1.2608 0.981044,-1.4005 z m 4.428054,0.6362 c 1.289249,-0.2193 1.744516,0.5031 1.554354,0.9925 -0.413945,1.0653 -1.556574,1.2118 -2.114182,1.2118 -0.895194,0 -0.866202,-0.4858 -0.880922,-1.1719 -0.01986,-0.9257 0.756947,-0.916 1.44075,-1.0324 z m -14.213918,0.773 c 0.927536,-0.023 1.445442,-0.033 1.031496,1.2119 -0.16569,0.4983 -0.08466,0.9096 -1.055149,0.9525 -0.632884,0.028 -0.933109,-0.2827 -1.011637,-0.8328 -0.07989,-0.5593 -0.07171,-1.3042 1.03529,-1.3316 z m -1.240119,8.2916 c 0.141643,0.3091 0.194854,0.8575 0.194854,0.8575 0,0 0.145561,-0.7982 1.085337,-0.531 1.539481,0.4377 -0.588991,1.6847 -1.907628,1.775 -2.248015,0.1538 -2.13753,-0.4186 -3.043049,-1.3283 -1.590931,-1.5982 -2.292285,-2.9587 -0.637035,-4.4816 1.800019,-1.6563 1.83513,-3.415 3.291644,-3.6172 1.977583,-0.2744 0.697562,2.132 0.492455,2.1178 -0.389851,-0.027 -0.655998,2.3373 0.06336,2.9829 0.992593,0.8908 -1.207486,1.3602 -1.207486,1.3602 0.838475,0.116 1.27575,0.3555 1.667551,0.8647 z"
       id="path4412"
       inkscape:connector-curvature="0"
       sodipodi:nodetypes="ccsscsscccscccccccccsccsccccccscccsscssssssccscscccccscsccsssssscsscsscssccssssssssssssccscscssscsscscccccccccccscccccsccsssssscccsscssccssssssscssssssccssccccccccsssccssccscssscccccccsssscssssssssssssssssssssssssssssssssssssscsssssssscssscccssssssscc" />
    <ellipse
       style="opacity:1;fill:#ffffff;fill-opacity:0"
       id="path4437"
       cx="155.78447"
       cy="999.19659"
       rx="4.1100583"
       ry="5.1707182" />
  </g>
</svg>
