<?xml version="1.0" encoding="UTF-8" standalone="no"?>
<!-- Created with Inkscape (http://www.inkscape.org/) -->

<svg
   xmlns:dc="http://purl.org/dc/elements/1.1/"
   xmlns:cc="http://creativecommons.org/ns#"
   xmlns:rdf="http://www.w3.org/1999/02/22-rdf-syntax-ns#"
   xmlns:svg="http://www.w3.org/2000/svg"
   xmlns="http://www.w3.org/2000/svg"
   xmlns:sodipodi="http://sodipodi.sourceforge.net/DTD/sodipodi-0.dtd"
   xmlns:inkscape="http://www.inkscape.org/namespaces/inkscape"
   width="64"
   height="64"
   viewBox="0 0 64.000001 64.000001"
   id="svg4465"
   version="1.1"
   inkscape:version="0.91 r13725"
   sodipodi:docname="12_Crusade_of_the_Forgotten.svg"
   inkscape:export-filename="/home/maym/download/descent images maym/12_Crusade_of_the_Forgotten.png"
   inkscape:export-xdpi="90"
   inkscape:export-ydpi="90">
  <defs
     id="defs4467" />
  <sodipodi:namedview
     id="base"
     pagecolor="#ffffff"
     bordercolor="#666666"
     borderopacity="1.0"
     inkscape:pageopacity="0.0"
     inkscape:pageshadow="2"
     inkscape:zoom="5.6568543"
     inkscape:cx="64.576032"
     inkscape:cy="29.745482"
     inkscape:document-units="px"
     inkscape:current-layer="layer1"
     showgrid="false"
     units="px"
     inkscape:window-width="1920"
     inkscape:window-height="983"
     inkscape:window-x="0"
     inkscape:window-y="37"
     inkscape:window-maximized="1" />
  <metadata
     id="metadata4470">
    <rdf:RDF>
      <cc:Work
         rdf:about="">
        <dc:format>image/svg+xml</dc:format>
        <dc:type
           rdf:resource="http://purl.org/dc/dcmitype/StillImage" />
        <dc:title></dc:title>
      </cc:Work>
    </rdf:RDF>
  </metadata>
  <g
     inkscape:label="Layer 1"
     inkscape:groupmode="layer"
     id="layer1"
     transform="translate(0,-988.36216)">
    <path
       style="fill:#000000"
       d="m 28.670124,1044.5932 c 0,-0.9729 -0.383095,-1.7621 -0.851323,-1.47 -0.468237,0.292 -1.520197,0.9247 -0.976741,0.03 0.244755,-0.4028 0.508504,-1.2246 0.976741,-1.5166 1.856555,-1.158 0.663389,-2.8459 -3.013256,-4.2628 -2.125506,-0.8192 -5.017099,-2.4681 -6.425754,-3.6642 l -2.561176,-2.1748 -1.87464,1.7015 c -1.730862,1.5709 -4.4467417,3.3133 -4.4467417,3.3133 0,0 1.3769767,-1.7095 2.7178657,-3.1603 l 2.699743,-2.9211 -1.75119,-3.409 c -0.963157,-1.8751 -1.986494,-5.3544 -2.274081,-7.7319 l -0.522882,-4.323 -5.1079353,-0.4998 C 2.9668373,1014.2807 0,1014.0718 0,1014.0718 c 0,0 2.0899571,-0.1373 4.1249718,-0.2112 5.2275839,-0.19 6.6367212,-0.8103 7.5903542,-3.3415 0.612167,-1.6248 0.403574,-2.655 -0.916534,-4.5258 -1.2642235,-1.7917 -2.3518543,-3.9402 -2.3518543,-3.9402 0,0 2.1483413,1.6347 4.0789513,3.2003 2.952443,2.3945 3.362383,3.1257 2.911987,5.1951 -0.49809,2.2886 -0.372426,2.4086 2.523074,2.4086 2.141133,0 3.047271,0.3831 3.047271,1.2886 0,0.9 -0.898628,1.2887 -2.979629,1.2887 -3.55501,0 -3.769458,1.167 -1.245873,6.7798 1.664364,3.7019 1.72863,3.7435 3.406709,2.2111 1.161214,-1.0605 1.988794,-1.281 2.577625,-0.6868 0.588841,0.5942 0.445715,1.2283 -0.445771,1.9749 -1.984991,1.6625 -1.627502,2.4108 2.058309,4.3084 4.461346,2.2967 5.091665,2.2035 5.695205,-0.8418 0.395497,-1.9955 -0.0988,-2.535 2.532685,-2.5772 1.575902,-0.025 2.021891,0.4623 2.021891,2.0971 0,2.8675 1.112934,3.3291 4.540879,1.8838 3.807899,-1.6056 4.475942,-2.8545 2.628619,-4.9145 -1.195181,-1.3327 -1.291863,-1.9043 -0.4631,-2.738 0.827684,-0.8325 1.361605,-0.634 2.544915,0.9463 1.320779,1.7639 1.625127,1.8446 2.579413,0.6842 0.595065,-0.7236 1.606124,-3.0731 2.246791,-5.2214 l 1.164855,-3.9059 -3.337856,0 c -2.617221,0 -3.232055,-0.2782 -2.847825,-1.2887 0.285382,-0.7505 1.560049,-1.2886 3.052152,-1.2886 2.314046,0 2.520284,-0.221 2.129877,-2.2819 -0.337512,-1.7818 0.134783,-2.7704 2.154612,-4.5103 2.449454,-2.1101 4.749784,-4.1156 4.749784,-4.1156 0,0 -0.552348,1.7439 -1.416241,2.9682 -2.048557,2.9033 -2.285688,4.652 -0.967822,7.1369 0.697006,1.3143 1.898554,1.6919 5.746427,1.8062 L 64,1014.0051 l -5.03107,0.4999 -5.031071,0.4998 -0.348758,3.866 c -0.191822,2.1263 -1.088378,5.5582 -1.992341,7.6264 -0.903972,2.0682 -1.643582,3.8911 -1.643582,4.0508 0,0.1598 1.245059,1.7398 2.766798,3.5111 l 2.766799,3.2208 -3.577504,-2.8722 -3.577512,-2.872 -2.560958,2.1746 c -1.408533,1.196 -4.300021,2.8449 -6.425528,3.664 -2.125516,0.8191 -3.864578,1.7374 -3.864578,2.0406 0,0.3032 0.643618,1.4786 1.43025,2.6118 1.339452,1.9299 1.339452,2.0256 0,1.5069 -1.040959,-0.4032 -1.43025,-0.094 -1.43025,1.1373 0,1.4005 -0.585644,1.6913 -3.405291,1.6913 -2.870271,0 -3.40528,-0.278 -3.40528,-1.7689 z m 5.107935,-5.963 c 0,-2.7649 -2.189677,-3.676 -3.097433,-1.2887 -0.693232,1.823 0.254649,3.866 1.793727,3.866 0.881005,0 1.303706,-0.8357 1.303706,-2.5773 z m -6.012891,-15.0995 c -0.553398,-0.673 -1.685221,-1.2235 -2.515157,-1.2235 -1.093174,0 -1.637642,-0.8878 -1.975853,-3.2217 -0.256778,-1.772 -0.726746,-4.4998 -1.044365,-6.0618 -0.466241,-2.2931 -0.18853,-3.2628 1.441601,-5.0338 2.520587,-2.7385 5.095695,-3.7935 6.490654,-2.6589 0.586447,0.4768 2.241674,0.6299 3.678281,0.3399 2.940884,-0.5936 7.087808,1.1645 7.922123,3.3586 0.891297,2.3439 0.539001,5.8894 -0.756901,7.6176 -0.710769,0.9478 -1.020301,2.4919 -0.731958,3.6512 0.428074,1.7212 0.181616,2.0089 -1.720977,2.0089 -1.251567,0 -2.220599,0.486 -2.220599,1.114 0,1.5988 -7.265536,1.6917 -8.566849,0.1095 z m 5.402606,-4.4062 c -0.559867,-1.4723 -1.646855,-1.4145 -2.22985,0.1187 -0.308973,0.8125 0.06271,1.1912 1.09237,1.1129 0.901598,-0.069 1.381971,-0.5886 1.13748,-1.2316 z m -3.735111,-1.0394 c 1.793859,-1.1463 0.438365,-3.5099 -2.01281,-3.5099 -3.225709,0 -2.86646,3.7951 0.398948,4.2145 0.234114,0.03 0.960349,-0.287 1.613862,-0.7046 z m 8.106719,0.2641 c 2.202844,-0.853 1.678515,-3.774 -0.677454,-3.774 -2.898687,0 -4.508368,2.1575 -2.492588,3.341 1.874367,1.1003 1.558413,1.0572 3.170042,0.433 z m -6.149888,-18.0439 c -0.02176,-2.67064 0.208451,-3.37344 0.743138,-5.94314 0,0 0.810024,3.4041 0.839839,5.86554 0.03339,2.7608 -0.146796,4.1729 -0.854841,4.1303 -0.846773,-0.05 -0.707014,-1.4569 -0.728136,-4.0527 z"
       id="path4538"
       inkscape:connector-curvature="0"
       sodipodi:nodetypes="scsccsccccccscsccssccssssscsccssssscssscssscccccscccscsccccccssssssscssccsscccscsssccccccccccsccsscsss" />
  </g>
</svg>
