<?xml version="1.0" encoding="UTF-8" standalone="no"?>
<!-- Created with Inkscape (http://www.inkscape.org/) -->

<svg
   xmlns:dc="http://purl.org/dc/elements/1.1/"
   xmlns:cc="http://creativecommons.org/ns#"
   xmlns:rdf="http://www.w3.org/1999/02/22-rdf-syntax-ns#"
   xmlns:svg="http://www.w3.org/2000/svg"
   xmlns="http://www.w3.org/2000/svg"
   xmlns:sodipodi="http://sodipodi.sourceforge.net/DTD/sodipodi-0.dtd"
   xmlns:inkscape="http://www.inkscape.org/namespaces/inkscape"
   width="64"
   height="64"
   viewBox="0 0 64.000001 64.000001"
   id="svg3422"
   version="1.1"
   inkscape:version="0.91 r13725"
   sodipodi:docname="09_Dark_Elements.svg"
   inkscape:export-filename="/home/maym/download/descent images maym/09_Dark_Elements.png"
   inkscape:export-xdpi="90"
   inkscape:export-ydpi="90">
  <defs
     id="defs3424" />
  <sodipodi:namedview
     id="base"
     pagecolor="#ffffff"
     bordercolor="#666666"
     borderopacity="1.0"
     inkscape:pageopacity="0.0"
     inkscape:pageshadow="2"
     inkscape:zoom="7.9195959"
     inkscape:cx="34.096204"
     inkscape:cy="32.033216"
     inkscape:document-units="px"
     inkscape:current-layer="layer1"
     showgrid="false"
     units="px"
     inkscape:window-width="1920"
     inkscape:window-height="983"
     inkscape:window-x="0"
     inkscape:window-y="37"
     inkscape:window-maximized="1" />
  <metadata
     id="metadata3427">
    <rdf:RDF>
      <cc:Work
         rdf:about="">
        <dc:format>image/svg+xml</dc:format>
        <dc:type
           rdf:resource="http://purl.org/dc/dcmitype/StillImage" />
        <dc:title></dc:title>
      </cc:Work>
    </rdf:RDF>
  </metadata>
  <g
     inkscape:label="Layer 1"
     inkscape:groupmode="layer"
     id="layer1"
     transform="translate(0,-988.36216)">
    <path
       style="fill:#000000"
       d="m 26.027244,1050.8697 c -0.553646,-1.4312 0.764062,-4.3539 1.961421,-7.1975 0.526961,-1.2515 -1.370262,-3.8554 -2.312805,-3.5479 -0.701413,0.2289 -1.498895,-0.2295 -2.212162,0.8522 -1.405531,2.1315 0.04675,4.3174 0.106906,4.7344 0.191925,1.3302 -2.188202,3.2914 -3.518558,2.8726 -2.598586,-0.8181 -2.644353,-2.3897 -0.920022,-5.9943 0.823743,-1.7219 1.924641,-4.9868 1.678403,-5.6226 -0.249486,-0.6442 -1.737844,-2.3211 -3.224804,-1.8017 -0.738423,0.2579 -1.356677,1.4758 -1.25521,2.4016 0.220409,2.0111 0.451234,3.4971 -0.792947,4.2232 -0.630058,0.3677 -1.730665,-0.2407 -2.079647,-0.6905 -0.376621,-0.4856 -1.420512,-5.4629 1.879729,-7.963 2.144104,-1.6243 3.237401,-4.5785 2.960377,-6.9323 -0.205116,-1.7427 -0.854298,-3.5859 -0.854298,-3.5859 0,0 2.43621,2.2926 2.43621,3.8853 0,2.8371 3.068742,6.8786 6.096161,8.7097 3.575999,2.1628 8.600318,2.533 12.884535,0.5064 2.417037,-1.1433 4.194102,-0.5362 5.336755,0.1741 1.446865,0.7652 0.659527,3.3655 -1.652271,3.887 -0.705436,0.1592 -2.524667,0.3526 -2.475081,1.8602 0.02464,0.7501 0.93987,1.861 0.93987,3.2744 0,2.7179 -0.976738,3.9372 -2.424477,4.393 -0.962441,0.4303 -3.013625,-1.5027 -2.618734,-3.9918 0.395935,-2.4956 -0.778992,-4.6508 -2.256291,-4.6508 -1.298694,0 -2.128661,0.3349 -2.566794,1.1601 -0.85667,1.6135 0.856188,3.5609 0.953443,5.3884 0,0 0.408131,3.5542 -0.470256,4.4828 -0.942011,0.9958 -2.648586,0.5787 -2.648586,0.5787 -2.094035,0.023 -2.614271,-0.5358 -2.950826,-1.4058 z m 2.823722,-16.9461 c -4.012805,-1.6529 -6.08842,-7.3389 -4.392824,-11.722 0.744797,-1.9254 5.142768,-4.1066 8.438776,-4.1997 3.386616,-0.096 5.536904,1.369 5.445823,4.51 -0.04765,1.6417 -1.859892,3.9629 -4.771708,3.2861 -1.152797,-0.268 -2.726455,-1.2986 -3.833737,-1.3682 -1.117135,-0.07 -1.600091,0.6235 -1.821193,1.195 -0.699856,1.809 -0.221022,5.9846 5.607877,7.7563 0.79896,0.2428 2.505102,0.094 2.505102,0.094 0,0 -1.332809,0.5531 -2.351926,0.8241 -1.664297,0.1679 -2.472084,0.5946 -4.82619,-0.375 z m 10.84065,-1.5933 c 0,0 1.6872,-1.354 2.682569,-2.6093 2.861937,-3.609 1.822923,-9.6296 -1.485904,-12.9118 -2.169442,-2.152 -4.262974,-3.8045 -7.734287,-3.8045 -2.346576,0 -5.623893,0.6966 -8.142507,2.6987 -1.565595,1.2445 -2.769871,3.2544 -3.482575,5.1216 l -0.70265,1.8409 -2.295391,-2.277 c -2.589838,-2.569 -2.991977,-7.5175 -0.918544,-11.3032 l 1.195971,-2.1837 0.52848,2.1592 c 0.764413,3.1229 2.995165,4.2614 5.835013,2.9779 2.209025,-0.9984 2.294626,-1.3009 1.771877,-6.2622 -0.44866,-4.258 -0.920133,-4.7307 1.752914,-8.47627 2.094095,-2.93431 1.917151,-4.09828 0.696045,-6.44064 -0.710724,-1.36333 -2.153898,-2.4978 -2.153898,-2.4978 0,0 2.118397,0.80288 3.65986,1.87388 2.120165,1.47308 2.697339,4.71187 1.888285,8.3981 -0.259359,1.18164 -0.931695,1.67483 -1.388961,3.12733 -0.822115,3.5637 0.848536,4.6352 2.15808,5.9341 3.341482,3.3147 7.620915,-1.9633 5.705524,-5.2973 -0.733809,-1.2774 -2.28764,-2.79153 -2.28764,-2.79153 0,0 0.666878,0.38817 1.552755,0.86433 4.973737,2.6736 3.678692,5.5384 4.351994,10.8061 0.470086,3.6777 1.954431,6.2149 4.542923,6.0732 1.521838,0 2.793768,-0.6439 3.103258,-3.4096 0.07189,-0.6423 0.09049,-2.3304 0.09049,-2.3304 0.535881,2.4096 0.500228,5.3731 -0.03408,7.8208 -0.78801,3.3864 -7.187749,7.7389 -4.414882,9.4617 0.638725,0.3969 2.645619,3e-4 3.565169,-0.3376 0.943911,-0.3467 0.842273,-1.6085 0.842273,-1.6085 0,0 0.334967,0.3612 0.301848,1.4378 -0.06123,1.9903 -3.08133,3.0227 -4.530164,3.475 -2.392485,0.747 -6.653819,0.4707 -6.653819,0.4707 z"
       id="path3497"
       inkscape:connector-curvature="0"
       sodipodi:nodetypes="cscssccsssassscscscssscssasssccsccssscsccsscsssscsscscsssscsscsscsscsccsscsscc" />
  </g>
</svg>
