<?xml version="1.0" encoding="UTF-8" standalone="no"?>
<!-- Created with Inkscape (http://www.inkscape.org/) -->

<svg
   xmlns:dc="http://purl.org/dc/elements/1.1/"
   xmlns:cc="http://creativecommons.org/ns#"
   xmlns:rdf="http://www.w3.org/1999/02/22-rdf-syntax-ns#"
   xmlns:svg="http://www.w3.org/2000/svg"
   xmlns="http://www.w3.org/2000/svg"
   xmlns:sodipodi="http://sodipodi.sourceforge.net/DTD/sodipodi-0.dtd"
   xmlns:inkscape="http://www.inkscape.org/namespaces/inkscape"
   width="64"
   height="64"
   viewBox="0 0 64.000001 64.000001"
   id="svg4076"
   version="1.1"
   inkscape:version="0.91 r13725"
   sodipodi:docname="07_Souls.svg"
   inkscape:export-filename="/home/maym/download/descent images maym/Forgotten_Souls.png"
   inkscape:export-xdpi="90"
   inkscape:export-ydpi="90">
  <defs
     id="defs4078" />
  <sodipodi:namedview
     id="base"
     pagecolor="#ffffff"
     bordercolor="#666666"
     borderopacity="1.0"
     inkscape:pageopacity="0.0"
     inkscape:pageshadow="2"
     inkscape:zoom="5.6"
     inkscape:cx="36.744714"
     inkscape:cy="26.730301"
     inkscape:document-units="px"
     inkscape:current-layer="layer1"
     showgrid="false"
     units="px"
     inkscape:window-width="1920"
     inkscape:window-height="983"
     inkscape:window-x="0"
     inkscape:window-y="37"
     inkscape:window-maximized="1" />
  <metadata
     id="metadata4081">
    <rdf:RDF>
      <cc:Work
         rdf:about="">
        <dc:format>image/svg+xml</dc:format>
        <dc:type
           rdf:resource="http://purl.org/dc/dcmitype/StillImage" />
        <dc:title></dc:title>
      </cc:Work>
    </rdf:RDF>
  </metadata>
  <g
     inkscape:label="Layer 1"
     inkscape:groupmode="layer"
     id="layer1"
     transform="translate(0,-988.36216)">
    <path
       style="fill:#000000"
       d="m 29.061573,1045.2476 c -1.132051,-1.4381 -2.323414,-3.4494 -2.647451,-4.4696 -0.324036,-1.0201 -1.416172,-2.1171 -2.426961,-2.4376 -2.122683,-0.6732 -7.011738,-5.3182 -7.011738,-6.6615 0,-0.06 -0.128711,-0.9299 -0.128711,-0.9299 0,0 1.845957,1.3296 3.455001,2.556 3.91701,2.9853 4.79195,3.1617 3.946428,0.796 l -0.621551,-1.7392 2.275264,2.8071 c 1.251392,1.544 3.418102,3.2414 4.814902,3.7721 l 2.539637,0.9648 0.927012,-1.6551 0.927001,-1.6553 0.821474,1.3282 0.821464,1.3282 2.225966,-4.9358 2.225966,-4.9358 0.386354,2.2343 0.386353,2.2343 2.005433,-1.0725 c 2.588195,-1.3841 3.929552,-0.044 1.443248,1.4413 -1.036042,0.6191 -3.050083,2.1635 -4.475649,3.4319 l -2.591953,2.3063 2.964857,-0.4732 2.964846,-0.4732 -1.647138,1.1484 c -0.905937,0.6315 -2.911469,1.9142 -4.456739,2.8505 -1.545269,0.9359 -3.767058,2.4111 -4.937302,3.2779 l -2.127723,1.576 z m 2.864304,-9.2177 c -0.01735,-0.7155 -0.42743,-1.0565 -0.911164,-0.7577 -0.483746,0.2987 -3.158692,-1.5756 -5.944312,-4.1651 -2.785633,-2.5896 -6.306023,-5.7204 -7.823112,-6.9574 l -2.758336,-2.2492 2.983765,0.6588 2.983754,0.6588 -1.740519,-1.9662 c -0.568705,-0.6425 -1.268731,-1.2443 -1.574135,-2.1607 -0.43143,-1.2945 -0.41324,-4.1983 -0.41324,-4.1983 0,0 0.728768,0.02 1.062552,0.1481 1.340241,0.515 1.97659,1.049 3.565986,2.4148 1.589396,1.3658 3.422179,2.4833 4.07285,2.4833 0.650671,0 1.995597,0.8973 2.988738,1.9938 1.223808,1.3513 2.056411,2.0493 2.056411,2.0493 0,0 0.144536,-0.4058 -0.06034,-0.9976 -0.319738,-0.9235 -1.089881,-2.2747 -1.50847,-3.0513 -0.6024,-1.1176 -0.994179,-2.7355 -2.210373,-3.1018 -0.42764,-0.1289 -0.834007,0.3197 -1.251005,0.4796 -0.417009,0.1599 -0.814567,0.5746 -1.251015,0.4797 -2.005897,-0.4359 -4.313607,-4.3919 -4.313607,-4.3919 0,0 -2.47941,-3.4707 -4.313608,-4.3918 -0.917331,-0.4606 -2.017732,-0.419 -3.051275,-0.419 -1.033533,0 -2.207711,-0.064 -3.1499394,0.419 -0.9364933,0.4808 -2.1625446,2.3003 -2.1625446,2.3003 -3.6554207,3.8879 -2.333658,9.0182 2.810397,10.9082 l 1.491884,0.5481 -2.3032136,0.078 c -3.6669788,0.125 -5.7908914,-1.5497 -7.5560261,-5.9579 0,0 -1.70434883,-2.6334 -1.64443594,-4.1066 0.05386249,-1.3245 1.77348154,-3.5604 1.77348154,-3.5604 3.1161205,-6.2556 8.9199021,-8.9275 14.8693531,-6.8455 l 2.155395,0.7543 -0.571015,-2.2769 -0.571005,-2.27704 2.393963,1.95904 c 1.316681,1.0774 3.621341,3.0585 5.121457,4.4023 l 2.727481,2.4433 -1.62151,1.7904 -1.621522,1.7904 1.253634,1.5094 c 0.689505,0.8301 1.7012,1.5093 2.248224,1.5093 l 0.994588,0 -1.128625,-1.3588 -1.128638,-1.3589 1.517278,-1.2582 c 0.834504,-0.6922 1.417465,-1.7577 1.295474,-2.3681 -0.179579,-0.8984 1.578798,-5.0334 2.719879,-6.396 0.146149,-0.1745 1.231112,0.2728 2.411025,0.9938 l 2.145305,1.3112 2.924489,-3.2456 c 1.608469,-1.78514 2.924487,-4.18774 2.924487,-5.33931 l 0,-2.09363 1.491883,1.23718 c 1.678997,1.39232 2.020627,6.51306 0.497293,7.45366 -0.547023,0.3379 -0.994588,1.024 -0.994588,1.5248 l 0,0.9105 2.551218,-0.9692 c 3.356096,-1.2749 6.736559,-1.2262 9.73848,0.1405 l 2.437405,1.1097 0.436657,2.9728 0.436669,2.973 -4.878876,-0.6467 -4.878866,-0.6468 -3.418632,2.1113 c -3.539121,2.1856 -4.4435,3.9366 -2.03317,3.9366 0.762009,0 1.667935,0.7356 2.013157,1.6346 0,0 0.734857,1.0606 0.627685,1.6343 -0.15225,0.815 -1.049855,1.1592 -1.670013,1.844 -2.042454,2.2551 -1.22477,2.3381 2.758457,0.2798 1.864555,-0.9635 4.357877,-1.4768 4.357877,-1.4768 0,0 -3.284341,4.0268 -9.072712,8.0476 -2.241659,1.5572 -4.850906,4.0134 -5.798351,5.4583 -0.947446,1.4449 -1.978292,2.3716 -2.290758,2.0594 -0.312467,-0.3123 -1.157601,0.2079 -1.878071,1.156 l -1.30995,1.7238 -0.03161,-1.3009 z m -2.51811,-7.1466 c -0.338072,-0.5465 -1.147721,-0.9869 -1.799221,-0.9785 l -1.184544,0.015 1.491883,0.9632 c 1.910737,1.234 2.255041,1.234 1.491882,0 z m 8.184633,-0.6004 c -0.33049,-0.3302 -1.188322,-0.3655 -1.906294,-0.079 l -1.305397,0.5219 1.906295,0.078 c 1.048461,0.043 1.635898,-0.1918 1.305396,-0.5219 z m 4.247722,-11.4904 0,-0.9627 -2.237823,0.6855 c -2.994872,0.9174 -4.724295,2.385 -4.724295,4.0088 l 0,1.3356 3.481058,-2.0524 c 1.914584,-1.1288 3.48106,-2.4855 3.48106,-3.0148 z m 15.519778,3.4376 c 0,0 2.191521,-1.5057 2.495136,-2.6901 0.196354,-0.7659 -0.385249,-1.5338 -0.577879,-2.3006 -0.192629,-0.7669 -0.942759,-1.599 -0.577889,-2.3007 0.26181,-0.5034 1.06021,-0.4065 1.590303,-0.6097 0.530104,-0.2034 1.319024,-0.1114 1.590303,-0.61 0.423252,-0.7775 -0.366053,-1.7321 -0.54908,-2.5982 l -0.549079,-2.5983 c 0,0 1.068443,2.0865 1.602658,3.1298 0.534216,1.0432 1.469803,1.9654 1.602646,3.1297 0.103989,0.9118 -0.443984,1.7809 -0.670717,2.6703 -1.033067,4.052 -5.420683,7.4683 -6.961941,7.4683 l -1.489607,0 z"
       id="path4167"
       inkscape:connector-curvature="0"
       sodipodi:nodetypes="sccscsscsccccccccccccscccccccscccccccsscassccssssscasascccssscccccscccssccccccccsscscscsccccccsscssccsccccccccccccccccccscssccscsssssscsssscc" />
  </g>
</svg>
