<?xml version="1.0" encoding="UTF-8" standalone="no"?>
<!-- Created with Inkscape (http://www.inkscape.org/) -->

<svg
   xmlns:dc="http://purl.org/dc/elements/1.1/"
   xmlns:cc="http://creativecommons.org/ns#"
   xmlns:rdf="http://www.w3.org/1999/02/22-rdf-syntax-ns#"
   xmlns:svg="http://www.w3.org/2000/svg"
   xmlns="http://www.w3.org/2000/svg"
   xmlns:sodipodi="http://sodipodi.sourceforge.net/DTD/sodipodi-0.dtd"
   xmlns:inkscape="http://www.inkscape.org/namespaces/inkscape"
   width="64"
   height="64"
   viewBox="0 0 63.999999 64.000001"
   id="svg2"
   version="1.1"
   inkscape:version="0.91 r13725"
   sodipodi:docname="02_Labyrinth_of_Ruin.svg">
  <defs
     id="defs4" />
  <sodipodi:namedview
     id="base"
     pagecolor="#ffffff"
     bordercolor="#666666"
     borderopacity="1.0"
     inkscape:pageopacity="0.0"
     inkscape:pageshadow="2"
     inkscape:zoom="1.4"
     inkscape:cx="317.39465"
     inkscape:cy="199.02412"
     inkscape:document-units="px"
     inkscape:current-layer="layer1"
     showgrid="false"
     inkscape:window-width="1920"
     inkscape:window-height="983"
     inkscape:window-x="0"
     inkscape:window-y="37"
     inkscape:window-maximized="1"
     units="px" />
  <metadata
     id="metadata7">
    <rdf:RDF>
      <cc:Work
         rdf:about="">
        <dc:format>image/svg+xml</dc:format>
        <dc:type
           rdf:resource="http://purl.org/dc/dcmitype/StillImage" />
        <dc:title />
      </cc:Work>
    </rdf:RDF>
  </metadata>
  <g
     inkscape:label="Layer 1"
     inkscape:groupmode="layer"
     id="layer1"
     transform="translate(0,-988.36215)">
    <path
       style="fill:#000000"
       d="m 14.469672,1048.544 c -4.429238,-4.1066 -6.9253693,-11.5495 -5.6261159,-16.7758 1.2172549,-4.8965 6.2874829,-2.7844 6.2874829,2.6192 0,1.4862 0.554543,2.7021 1.23233,2.7021 0.327423,0 1.241453,0.032 1.241453,0.032 0,0 -0.461328,0.7068 -0.640958,1.0002 -0.808128,1.3201 2.448267,8.1637 5.518491,11.5973 l 2.363567,2.6433 -3.129054,0 c -1.909704,0 -4.733843,-1.4878 -7.247196,-3.8182 z m 26.545043,1.7622 c 3.148968,-3.2394 6.785382,-10.9497 6.070294,-12.1177 -0.219214,-0.3581 -0.802601,-1.1687 -0.802601,-1.1687 0,0 1.085867,0.07 1.362135,0.07 0.677787,0 1.232331,-1.2159 1.232331,-2.7021 0,-5.4036 5.070227,-7.5157 6.287483,-2.6192 2.048747,8.2411 -5.659512,20.594 -12.850815,20.594 -1.574988,0 -5.260373,0.071 -5.260373,0.071 0,0 2.916847,-1.0522 3.961546,-2.1269 z m -4.225341,-6.9014 c 0.436615,-3.0148 0.214745,-5.1492 -0.587293,-5.6497 -0.708948,-0.4424 -1.289001,-1.8304 -1.289001,-3.0845 0,-1.7558 0.811516,-2.2803 3.527474,-2.2803 5.865853,0 6.129537,5.6513 0.57558,12.3356 l -2.928479,3.5244 z m -13.501256,-1.0098 c -3.527797,-5.7629 -2.792461,-9.3166 2.024853,-9.7855 3.130114,-0.3047 3.781862,0.038 3.781862,1.9867 0,1.295 -0.58136,2.7174 -1.291898,3.1607 -0.756384,0.4721 -1.027882,2.4487 -0.654979,4.7687 0.34865,2.1691 1.126232,5.8902 1.126232,5.8902 0,0 -3.165804,-3.0472 -4.98607,-6.0208 z m -4.761065,-7.5752 c 0,0 -0.96431,-9.5684 -2.258392,-17.5759 -1.294068,-8.0075 -2.05441,-15.5083 -1.689645,-16.6686 0.705314,-2.24369 7.146592,-4.89827 11.885232,-4.89827 2.14692,0 3.16563,-0.90526 4.115918,-3.65735 l 1.262857,-3.65748 1.38614,3.42382 c 0.772017,1.90687 2.354321,3.50881 3.571421,3.61572 5.211301,0.45778 9.647559,2.03309 11.478911,4.0761 1.855336,2.06976 1.817685,3.13756 -0.640292,18.16156 -1.746632,10.676 -2.551833,16.6902 -2.551833,16.6902 0,0 -1.566505,-2.1044 -2.181544,-2.6663 -1.509687,-1.3793 -3.314862,-1.7433 -6.256478,-1.2614 -2.84286,0.4658 -4.080453,0.2399 -3.961231,-0.723 0.363848,-2.9387 -0.19053,-3.8362 -0.886522,-3.8618 -0.841242,-0.031 -1.285805,1.3857 -1.02972,3.8419 0.138181,1.3254 -1.308748,0.9908 -4.397732,0.6267 -2.557405,-0.3014 -4.544996,0.2093 -5.818248,1.4947 -1.063653,1.0738 -2.028842,3.0394 -2.028842,3.0394 z m 9.048325,-15.9771 c -4.046087,-3.5938 -7.278486,-3.9763 -5.516721,-0.6527 1.328682,2.5064 3.004635,3.4144 6.454351,3.497 2.0609,0.05 1.953574,-0.2764 -0.93763,-2.8443 z m 13.25292,0.5266 c 1.333349,-1.3461 2.135607,-2.7391 1.782789,-3.0951 -1.011083,-1.0208 -7.46229,2.0531 -8.159691,3.8879 -0.984009,2.589 3.590686,2.0201 6.376902,-0.7928 z m -12.897115,-5.7097 c 0,-1.7021 -4.886888,-4.7703 -7.531734,-4.7287 -2.133357,0.034 -2.046639,0.3148 0.905642,2.937 3.298999,2.9303 6.626092,3.8299 6.626092,1.7917 z m 14.771638,-1.7917 c 2.952282,-2.6222 3.039001,-2.9034 0.905643,-2.937 -2.644846,-0.042 -7.531735,3.0266 -7.531735,4.7287 0,2.0382 3.327094,1.1386 6.626092,-1.7917 z m -9.616542,-5.4566 c -0.385607,-0.6299 0.129502,-2.4251 1.14467,-3.9894 2.475225,-3.81394 2.444905,-3.86655 -2.226993,-3.86655 -4.658256,0 -4.695907,0.0627 -2.282175,3.78165 0.984835,1.5175 2.045276,3.2054 1.674636,4.0893 -0.408038,0.9731 -0.306179,2.0759 0.761916,2.0468 1.230607,-0.034 1.313567,-1.4319 0.927946,-2.0618 z m -7.482396,-1.0006 c 0,-1.4385 -3.880215,-3.5658 -6.503921,-3.5658 -1.859382,0 -1.851973,0.1677 0.103825,2.3496 2.170761,2.4217 6.400072,3.2254 6.400072,1.2162 z m 19.200218,-1.2162 c 1.955823,-2.1819 1.963232,-2.3496 0.103823,-2.3496 -2.623707,0 -6.503922,2.1273 -6.503922,3.5658 0,2.0092 4.229323,1.2055 6.400072,-1.2162 z"
       id="path3420"
       inkscape:connector-curvature="0"
       sodipodi:nodetypes="ssssccscscscscssscasccsscsccccscccccsccsssscccssscscccscsscssccsccccccccssccccccccccccc" />
  </g>
</svg>
