<?xml version="1.0" encoding="UTF-8" standalone="no"?>
<!-- Created with Inkscape (http://www.inkscape.org/) -->

<svg
   xmlns:dc="http://purl.org/dc/elements/1.1/"
   xmlns:cc="http://creativecommons.org/ns#"
   xmlns:rdf="http://www.w3.org/1999/02/22-rdf-syntax-ns#"
   xmlns:svg="http://www.w3.org/2000/svg"
   xmlns="http://www.w3.org/2000/svg"
   xmlns:sodipodi="http://sodipodi.sourceforge.net/DTD/sodipodi-0.dtd"
   xmlns:inkscape="http://www.inkscape.org/namespaces/inkscape"
   id="svg3409"
   version="1.1"
   inkscape:version="0.91 r13725"
   width="64"
   height="64"
   viewBox="0 0 63.999999 64"
   sodipodi:docname="01_Lair_of_the_Wyrm.svg"
   inkscape:export-filename="/home/maym/download/descent images maym/DJ03_Lair_of_the_Wyrm.png"
   inkscape:export-xdpi="90"
   inkscape:export-ydpi="90">
  <metadata
     id="metadata3415">
    <rdf:RDF>
      <cc:Work
         rdf:about="">
        <dc:format>image/svg+xml</dc:format>
        <dc:type
           rdf:resource="http://purl.org/dc/dcmitype/StillImage" />
        <dc:title></dc:title>
      </cc:Work>
    </rdf:RDF>
  </metadata>
  <defs
     id="defs3413" />
  <sodipodi:namedview
     pagecolor="#ffffff"
     bordercolor="#666666"
     borderopacity="0"
     objecttolerance="10"
     gridtolerance="10"
     guidetolerance="10"
     inkscape:pageopacity="0"
     inkscape:pageshadow="2"
     inkscape:window-width="1920"
     inkscape:window-height="983"
     id="namedview3411"
     showgrid="false"
     inkscape:zoom="8.0000004"
     inkscape:cx="31.65398"
     inkscape:cy="29.345161"
     inkscape:window-x="0"
     inkscape:window-y="37"
     inkscape:window-maximized="1"
     inkscape:current-layer="svg3409" />
  <path
     style="fill:#000000"
     d="M 25.641938,62.841833 C 14.038176,58.675636 9.1366514,45.741481 14.95671,34.645623 c 0.937019,-1.786414 2.076537,-4.953242 2.532263,-7.037393 0.455725,-2.084151 1.566858,-5.738183 2.46918,-8.120068 0.814786,-2.150814 1.156747,-4.138127 1.156747,-4.138127 0,0 0.864659,1.288272 1.223573,2.68394 0.406854,1.582086 0.185055,3.896305 -0.492888,5.14271 -0.77455,1.424026 -0.823708,2.266193 -0.132277,2.266193 1.948433,0 3.619492,-4.498228 2.930425,-7.888244 -0.43198,-2.125225 -0.06479,-4.200853 1.035416,-5.853029 C 26.61677,10.293592 27.039255,8.5928613 26.618001,7.9222049 26.407866,7.5876602 25.936879,6.788051 25.936879,6.788051 c 0,0 0.778154,0.4395442 1.249982,0.7264676 0.839252,0.5103582 1.074157,1.9792326 0.632757,3.9566454 -0.417004,1.868123 -0.246159,3.144956 0.42081,3.144956 2.046672,0 2.506908,-2.133355 1.227602,-5.6903571 C 28.582878,6.4646742 28.54138,4.603238 29.329381,2.706689 29.897012,1.340523 30.24273,0.92892329 30.24273,0.92892329 c 0,0 0.250423,1.35080611 0.281007,3.13111021 0.04907,2.8566342 0.558961,4.0600347 1.720261,4.0600347 1.166767,0 1.661943,-1.1899502 1.689506,-4.0600347 L 33.97249,-3.1401756e-7 35.545023,2.706689 c 2.185614,3.7619437 2.050271,4.8654329 -1.187127,9.678919 -2.369089,3.522454 -2.62932,4.602113 -1.576017,6.53863 1.918733,3.527619 3.796355,2.038201 4.459106,-3.537171 0.42849,-3.604653 1.560437,-6.1273407 1.560437,-6.1273407 0,0 0.602297,1.3332297 0.964576,3.1155367 0.364015,1.790847 -0.04562,5.215939 -0.91319,7.635394 -0.86533,2.413228 -1.322104,5.031855 -1.015053,5.81917 0.307052,0.787317 -0.206989,2.056401 -1.142314,2.820186 -0.935324,0.763788 -1.70059,1.951579 -1.70059,2.639535 0,0.687958 -0.99031,2.085145 -2.200688,3.104863 -2.607044,2.196379 -2.767401,3.955491 -0.620873,6.811002 1.064515,1.416117 1.379372,3.568487 0.965296,6.598787 -0.557904,4.082854 -0.337082,4.640199 2.396888,6.049672 l 3.011405,1.5525 -3.024749,2.341064 c -1.66361,1.287586 -3.700704,2.341067 -4.526871,2.341067 -0.826168,0 -1.502126,0.487203 -1.502126,1.082675 0,1.74623 6.826323,1.240425 10.981501,-0.81369 5.717339,-2.82637 9.108027,-8.406742 8.22671,-13.539463 -0.449615,-2.618518 -0.219482,-4.707196 0.629553,-5.713795 1.098174,-1.30197 0.950891,-1.586566 -0.821076,-1.586566 -1.542785,0 -2.573187,-1.23396 -3.60892,-4.321871 -1.149001,-3.425609 -1.755991,-4.071688 -2.926978,-3.11546 -1.155068,0.943231 -1.477356,0.719055 -1.477356,-1.027611 0,-1.228713 0.558739,-2.5738 1.241644,-2.989082 0.867727,-0.527671 0.757309,-1.021753 -0.366649,-1.640652 -1.060321,-0.583857 -1.440145,-2.012871 -1.114779,-4.194133 0.3505,-2.349759 1.662636,-5.681213 1.662636,-5.681213 0,0 0.48096,2.160873 0.777835,3.468962 0.277571,1.223031 1.980617,5.831088 4.401372,10.171008 3.543898,6.353486 4.401374,8.988539 4.401374,13.52558 0,14.074377 -13.049135,23.72754 -25.858062,19.128641 z m 11.933237,-4.733264 c 2.501913,-2.720198 2.288698,-3.958898 -0.929803,-5.401801 -2.88115,-1.291661 -3.220558,-2.556689 -1.650516,-6.151713 0.484171,-1.108636 0.693685,-2.088276 0.693685,-2.088276 0,0 0.295122,1.281764 0.32932,2.358945 0.08932,2.813412 1.728306,3.241848 2.715756,0.709905 0.429036,-1.100096 -0.525932,-2.828267 -2.633133,-4.765081 -3.670066,-3.373309 -4.34072,-6.341095 -1.380714,-6.109948 1.341073,0.104737 1.764954,-1.243812 1.898725,-3.125088 -0.476306,-2.253167 2.318261,-4.726903 2.318261,-4.726903 0,0 -0.458794,2.332172 -0.590317,3.357354 -0.42413,3.305953 2.311047,3.85923 1.264696,6.586814 -1.458516,3.802012 -1.255906,4.33801 1.278119,3.381227 1.031534,-0.389482 1.822375,-1.911577 1.841465,-3.544183 0.01425,-1.218876 -0.533472,-3.503881 -0.533472,-3.503881 0,0 1.192676,1.701887 1.755707,2.655225 0.855171,1.447997 0.845782,2.753572 -0.03347,4.652314 -1.514154,3.269855 -1.551299,4.702915 -0.121892,4.702915 0.605189,0 1.100342,-0.945656 1.100342,-2.101456 0,-1.155801 1.350343,-3.567461 1.350343,-3.567461 0,0 0.500572,1.25447 0.684473,2.82761 0.404706,1.907576 0.245233,7.661394 -1.551439,10.18532 -1.566651,2.200797 -7.069225,5.043093 -8.851847,5.648098 -1.104921,0.375 -2.0455,0.458323 -2.0455,0.458323 0,0 2.372752,-1.657117 3.091211,-2.438259 z"
     id="path3419"
     inkscape:connector-curvature="0"
     sodipodi:nodetypes="sssscsssssscssssscssscsssscssssssssscsccsssssssssscssssssscssssccsssscssssccsscs" />
</svg>
