<?xml version="1.0" encoding="UTF-8" standalone="no"?>
<!-- Created with Inkscape (http://www.inkscape.org/) -->

<svg
   xmlns:dc="http://purl.org/dc/elements/1.1/"
   xmlns:cc="http://creativecommons.org/ns#"
   xmlns:rdf="http://www.w3.org/1999/02/22-rdf-syntax-ns#"
   xmlns:svg="http://www.w3.org/2000/svg"
   xmlns="http://www.w3.org/2000/svg"
   xmlns:sodipodi="http://sodipodi.sourceforge.net/DTD/sodipodi-0.dtd"
   xmlns:inkscape="http://www.inkscape.org/namespaces/inkscape"
   width="64"
   height="64"
   viewBox="0 0 64.000001 64.000001"
   id="svg3793"
   version="1.1"
   inkscape:version="0.91 r13725"
   sodipodi:docname="05_Manor_of_Ravens.svg"
   inkscape:export-filename="/home/maym/download/descent images maym/05_Manor_of_Ravens.png"
   inkscape:export-xdpi="90"
   inkscape:export-ydpi="90">
  <defs
     id="defs3795" />
  <sodipodi:namedview
     id="base"
     pagecolor="#ffffff"
     bordercolor="#666666"
     borderopacity="1.0"
     inkscape:pageopacity="0.0"
     inkscape:pageshadow="2"
     inkscape:zoom="1.4"
     inkscape:cx="17.424866"
     inkscape:cy="108.60873"
     inkscape:document-units="px"
     inkscape:current-layer="layer1"
     showgrid="false"
     units="px"
     inkscape:window-width="1920"
     inkscape:window-height="983"
     inkscape:window-x="0"
     inkscape:window-y="37"
     inkscape:window-maximized="1" />
  <metadata
     id="metadata3798">
    <rdf:RDF>
      <cc:Work
         rdf:about="">
        <dc:format>image/svg+xml</dc:format>
        <dc:type
           rdf:resource="http://purl.org/dc/dcmitype/StillImage" />
        <dc:title />
      </cc:Work>
    </rdf:RDF>
  </metadata>
  <g
     inkscape:label="Layer 1"
     inkscape:groupmode="layer"
     id="layer1"
     transform="translate(0,-988.36214)">
    <path
       style="fill:#000000"
       d="m 46.819629,1048.3372 c -0.321201,-0.8386 -1.140343,-1.3154 -1.82031,-1.0595 -0.679967,0.2558 -2.082562,-1.0281 -3.11687,-2.8533 -1.833056,-3.2348 -2.020283,-3.3002 -7.414226,-2.5914 -3.043516,0.4 -6.48693,1.343 -7.652023,2.0955 -2.532346,1.6358 -9.414525,3.045 -10.34035,2.1174 -0.89099,-0.8928 1.39444,-4.815 3.952559,-6.7833 1.147087,-0.8827 4.245174,-2.3212 6.884639,-3.1967 2.639464,-0.8755 4.799028,-2.165 4.799028,-2.8653 0,-0.7005 0.595786,-1.8706 1.323969,-2.6001 2.139404,-2.1436 1.534309,-3.0138 -1.651831,-2.3752 -2.310237,0.463 -4.045154,-0.2216 -7.756939,-3.0603 -7.608679,-5.8193 -9.319164,-7.4605 -8.745233,-8.3909 0.09662,-0.1566 0.64372,-0.729 0.64372,-0.729 0,0 -1.319003,-0.1429 -2.032769,-0.1429 -1.886685,0 -5.3684993,-2.8103 -9.0443065,-7.2999 -0.9590149,-1.1714 -1.9017772,-2.4694 -1.9017772,-2.4694 0,0 1.3136407,0.2181 2.3094101,0.2181 2.1266071,0 2.097927,-0.1206 -0.5196525,-2.1836 -1.5237599,-1.2008 -2.7026571,-2.5142 -2.619739,-2.9184 0.082898,-0.4041 -0.4028596,-2.07916 -1.0794772,-3.72236 -1.49826559,-3.63841 -0.93284378,-4.96332 -0.93284378,-4.96332 0,0 1.82098218,1.71061 1.82098218,2.51468 0,0.80407 0.7929773,2.11742 1.7621708,2.91844 1.5929558,1.3166 1.6438104,1.234 0.5295876,-0.86151 -0.6779204,-1.2749 -1.2115198,-3.18515 -1.1857725,-4.24498 0.00683,-0.28253 0.029939,-1.61958 0.029939,-1.61958 0,0 1.0669224,1.68454 2.0785099,3.60352 1.1339106,2.15103 2.6251232,4.25985 3.3138224,4.68625 0.688711,0.4264 0.4548569,-0.3651 -0.5196784,-1.7592 -0.9745235,-1.39403 -1.7673631,-3.26406 -1.7618436,-4.15563 0.00118,-0.20482 0.2924029,-1.66981 0.2924029,-1.66981 0,0 1.2975601,2.69026 2.4590869,4.63211 2.6757829,4.47359 4.8937419,5.67049 2.6201759,1.41413 -0.629738,-1.17901 -1.124067,-3.2495 -1.098494,-4.60118 0.01306,-0.6898 0.183061,-2.55842 0.183061,-2.55842 0,0 0.650522,2.31329 1.326475,4.21338 1.537428,4.32162 4.491514,8.40428 3.167416,4.37742 -0.127607,-0.388 -0.22937,-1.5564 -0.22937,-1.5564 0,0 1.314071,2.29166 2.348321,3.94976 2.822372,4.5246 9.045226,8.9961 9.045226,6.4995 0,-0.1363 -0.08003,-1.3728 -0.08003,-1.3728 0,0 1.449105,1.6095 2.526674,2.7745 1.34567,1.4548 4.708928,3.9735 7.473928,5.5971 4.928118,2.8937 5.064305,2.912 6.905798,0.9315 1.033202,-1.1111 2.726658,-3.3172 3.763261,-4.9023 0.676743,-1.0348 2.281805,-3.9644 2.281805,-3.9644 0,0 0.296392,1.5117 0.460047,1.6131 0.471427,0.2919 1.170918,-0.9007 1.554398,-2.6501 0.528128,-2.4092 1.94554,-5.2121 1.94554,-5.2121 0,0 0.761688,2.3944 0.828899,4.3321 l 0.121805,3.5118 0.779388,-4.0337 c 0.654335,-3.3865 2.126682,-6.45956 2.126682,-6.45956 0,0 0.726653,2.25226 0.492658,4.79306 l -0.427201,4.6389 1.07504,-4.2268 c 0.845751,-3.3252 2.273119,-7.57638 2.273119,-7.57638 0,0 0.708812,3.21372 0.367875,5.96628 -0.612121,4.9422 -0.179224,4.8201 0.940183,-0.2653 0.452032,-2.05346 1.505994,-4.73124 1.505994,-4.73124 0,0 0.950127,4.12844 0.776257,7.91504 -0.31687,6.9006 -2.175604,11.6166 -4.92281,12.4903 -1.024081,0.3256 -2.454297,1.3072 -3.178267,2.1812 -1.080041,1.304 -0.847905,2.1061 1.2933,4.4692 3.866683,2.9319 2.367515,4.0487 3.212537,6.2926 0.950821,2.5249 1.641756,4.6574 1.641756,4.6574 0,0 -1.609922,-1.5318 -2.632956,-2.3881 -1.023022,-0.8564 -3.151234,-2.1078 -4.729334,-2.781 -2.563475,-1.0934 -3.0997,-0.9303 -5.031082,1.5299 -1.188995,1.5146 -2.1618,3.1482 -2.1618,3.6304 0,0.4822 -1.042982,1.8503 -2.317746,3.0403 l -2.317758,2.1636 2.124482,2.9187 c 2.269742,3.1182 3.8457,6.6331 2.974128,6.6331 -0.291273,0 -0.792392,-0.6861 -1.113605,-1.5249 z m -1.467864,-3.0862 c 0,-0.2014 -1.072415,-1.276 -2.383144,-2.3879 l -2.383144,-2.0216 2.017717,2.3879 c 1.896159,2.2438 2.748571,2.8709 2.748571,2.0216 z"
       id="path3931"
       inkscape:connector-curvature="0"
       sodipodi:nodetypes="sssccscsscccccsscscsscsssscscsccssccssccsccccsccscscscscscsscscccscccssccsscsscsss" />
  </g>
</svg>
