<?xml version="1.0" encoding="UTF-8" standalone="no"?>
<!-- Created with Inkscape (http://www.inkscape.org/) -->

<svg
   xmlns:dc="http://purl.org/dc/elements/1.1/"
   xmlns:cc="http://creativecommons.org/ns#"
   xmlns:rdf="http://www.w3.org/1999/02/22-rdf-syntax-ns#"
   xmlns:svg="http://www.w3.org/2000/svg"
   xmlns="http://www.w3.org/2000/svg"
   xmlns:sodipodi="http://sodipodi.sourceforge.net/DTD/sodipodi-0.dtd"
   xmlns:inkscape="http://www.inkscape.org/namespaces/inkscape"
   width="64"
   height="64"
   viewBox="0 0 64.000001 64.000001"
   id="svg3960"
   version="1.1"
   inkscape:version="0.91 r13725"
   sodipodi:docname="06_Mists_of_Bilehall.svg">
  <defs
     id="defs3962" />
  <sodipodi:namedview
     id="base"
     pagecolor="#ffffff"
     bordercolor="#666666"
     borderopacity="1.0"
     inkscape:pageopacity="0.0"
     inkscape:pageshadow="2"
     inkscape:zoom="7.9195959"
     inkscape:cx="35.571784"
     inkscape:cy="20.267499"
     inkscape:document-units="px"
     inkscape:current-layer="layer1"
     showgrid="false"
     units="px"
     inkscape:window-width="1920"
     inkscape:window-height="983"
     inkscape:window-x="0"
     inkscape:window-y="37"
     inkscape:window-maximized="1" />
  <metadata
     id="metadata3965">
    <rdf:RDF>
      <cc:Work
         rdf:about="">
        <dc:format>image/svg+xml</dc:format>
        <dc:type
           rdf:resource="http://purl.org/dc/dcmitype/StillImage" />
        <dc:title></dc:title>
      </cc:Work>
    </rdf:RDF>
  </metadata>
  <g
     inkscape:label="Layer 1"
     inkscape:groupmode="layer"
     id="layer1"
     transform="translate(0,-988.36216)">
    <path
       style="fill:#000000"
       d="m 44.611436,1051.158 -1.612616,-1.2046 -2.615554,-0.027 -2.615554,-0.026 -5.279198,-2.5927 -5.279197,-2.5926 -6.004286,-0.123 -6.004287,-0.1231 -0.55459,-0.5478 -0.55459,-0.5478 1.05058,-1.2503 1.050579,-1.2503 -1.096361,-2.6144 L 14,1035.6442 l 0.99523,-0.3277 0.995231,-0.3277 0,-2.2299 0,-2.2299 -0.994118,-0.9819 -0.994119,-0.9819 1.324655,-1.0291 1.324654,-1.0292 0.456812,-4.5145 c 0.251246,-2.483 0.986239,-6.3614 1.633318,-8.6187 l 1.176508,-4.1041 0.485506,2.4625 c 0.267028,1.3543 0.730395,4.7839 1.029703,7.6213 l 0.544198,5.1588 1.784844,-0.5476 c 0.981665,-0.3011 1.902497,-0.8473 2.046292,-1.2138 l 0.261441,-0.6662 1.248673,0.4733 1.248663,0.4733 -0.08431,-9.3433 -0.08431,-9.3433 1.382579,-5.33534 c 0.760417,-2.93445 1.708138,-5.97675 2.106052,-6.76067 0.397914,-0.78392 0.723483,-2.04594 0.723483,-2.80449 0,-2.66126 0.827923,-0.50733 2.887539,7.51226 l 2.078231,8.09204 -0.519733,4.3679 -0.519742,4.3678 0.866373,0 0.866363,0 -0.462919,3.409 -0.462918,3.409 1.088413,-0.6644 1.088415,-0.6644 -0.647444,1.9751 c -0.356095,1.0864 -0.827315,3.5537 -1.047149,5.4829 l -0.399714,3.5076 0.525097,2.0665 0.525098,2.0665 0.878377,-0.5362 0.878385,-0.5362 -0.155918,2.7599 c -0.08578,1.518 -0.118024,3.7975 -0.07175,5.0656 l 0.08421,2.3058 0.714451,-0.4361 0.714443,-0.4362 0.42061,-7.2863 0.420602,-7.2862 0.91725,-1.5603 0.917241,-1.5604 0.0253,1.0027 c 0.01394,0.5514 1.02438,3.137 2.245517,5.7457 l 2.220254,4.7431 -0.226575,3.5942 -0.226583,3.594 0.883639,0.5394 0.883639,0.5394 -1.887962,3.8692 -1.887963,3.8692 -1.612626,-1.2048 z M 33.9821,1040.8101 c -0.290241,-2.7429 -0.845699,-5.5482 -1.234352,-6.2342 l -0.706649,-1.2472 -0.98364,4.7977 -0.983649,4.7977 1.776171,1.4364 c 0.97689,0.7901 1.97499,1.4365 2.218001,1.4365 l 0.441829,0 -0.527711,-4.9869 z m 11.912589,0.6775 c -0.0074,-0.5642 -0.375236,-1.5801 -0.818303,-2.2572 l -0.805569,-1.2313 -0.01275,2.2573 -0.01275,2.2573 0.831027,0 0.831026,0 -0.01275,-1.0261 z m -19.265077,-7.5215 0.251321,-4.7241 -1.00558,-1.1968 -1.00557,-1.1968 -0.803567,0.7937 -0.803566,0.7938 0.590063,5.4422 0.590064,5.4423 0.967755,-0.315 0.967759,-0.3151 0.251321,-4.7242 z m -6.496744,0.4961 -0.01272,-2.2089 -0.805576,1.2313 c -0.443066,0.6772 -0.811301,1.8995 -0.8183,2.7161 l -0.01272,1.485 0.831026,-0.5074 0.831026,-0.5073 -0.01272,-2.2088 z m 13.250744,-23.7555 -0.05845,-4.7198 -0.714212,1.6417 c -0.392817,0.9029 -0.740491,3.0268 -0.772614,4.7197 l -0.05845,3.0781 0.831027,0 0.831025,0 -0.05836,-4.7197 z"
       id="path4039"
       inkscape:connector-curvature="0" />
  </g>
</svg>
