<?xml version="1.0" encoding="UTF-8" standalone="no"?>
<!-- Created with Inkscape (http://www.inkscape.org/) -->

<svg
   xmlns:dc="http://purl.org/dc/elements/1.1/"
   xmlns:cc="http://creativecommons.org/ns#"
   xmlns:rdf="http://www.w3.org/1999/02/22-rdf-syntax-ns#"
   xmlns:svg="http://www.w3.org/2000/svg"
   xmlns="http://www.w3.org/2000/svg"
   xmlns:sodipodi="http://sodipodi.sourceforge.net/DTD/sodipodi-0.dtd"
   xmlns:inkscape="http://www.inkscape.org/namespaces/inkscape"
   width="64"
   height="64"
   viewBox="0 0 64.000001 64.000001"
   id="svg2"
   version="1.1"
   inkscape:version="0.91 r13725"
   sodipodi:docname="08_Nature.svg">
  <defs
     id="defs4" />
  <sodipodi:namedview
     id="base"
     pagecolor="#ffffff"
     bordercolor="#666666"
     borderopacity="1.0"
     inkscape:pageopacity="0.0"
     inkscape:pageshadow="2"
     inkscape:zoom="7.9195959"
     inkscape:cx="49.349821"
     inkscape:cy="25.736388"
     inkscape:document-units="px"
     inkscape:current-layer="layer1"
     showgrid="false"
     units="px"
     inkscape:window-width="1920"
     inkscape:window-height="983"
     inkscape:window-x="0"
     inkscape:window-y="37"
     inkscape:window-maximized="1" />
  <metadata
     id="metadata7">
    <rdf:RDF>
      <cc:Work
         rdf:about="">
        <dc:format>image/svg+xml</dc:format>
        <dc:type
           rdf:resource="http://purl.org/dc/dcmitype/StillImage" />
        <dc:title></dc:title>
      </cc:Work>
    </rdf:RDF>
  </metadata>
  <g
     inkscape:label="Layer 1"
     inkscape:groupmode="layer"
     id="layer1"
     transform="translate(0,-988.36214)">
    <path
       style="fill:#000000"
       d="m 22.173011,1051.566 c -0.04395,-0.7348 0.391415,-2.2199 0.967421,-3.3 1.286342,-2.4124 -0.340156,-2.588 -4.082387,-0.441 -2.509463,1.4398 -5.158115,1.7836 -5.158115,1.7836 0,0 2.727688,-1.6832 4.287323,-2.7469 2.005143,-1.3675 4.875615,-2.7962 6.378832,-3.1748 3.075824,-0.7748 4.608953,-3.834 4.608953,-9.1965 0,-3.2472 -0.197775,-3.487 -2.276323,-2.7588 -4.012579,1.4054 -7.864602,0.7101 -10.671415,-1.9264 -1.503487,-1.4121 -3.799505,-2.8915 -5.102281,-3.2872 -3.1186533,-0.9475 -5.6894489,-6.8831 -4.1950003,-9.6857 0.5887866,-1.1041 1.5097701,-2.0076 2.0466229,-2.0076 0.5368638,0 0.065536,-0.9139 -1.0472887,-2.0308 -2.7477306,-2.7577 -2.5441317,-6.6774 0.5058496,-9.7385 1.3910866,-1.3962 2.5292485,-3.13228 2.5292485,-3.85806 0,-1.58797 3.227793,-4.68051 4.885238,-4.68051 0.651725,0 1.184958,-0.48266 1.184958,-1.07249 0,-0.58987 1.99181,-1.95682 4.426252,-3.03765 3.635788,-1.61413 4.99467,-1.76622 7.609103,-0.85146 1.750566,0.61251 3.677438,2.04117 4.281939,3.1748 0.883708,1.65728 1.272988,1.78555 1.98655,0.65474 1.306149,-2.06998 1.114983,-0.82398 -0.688753,4.48906 -2.513388,7.40327 -1.141085,7.79067 2.118442,0.59806 2.841942,-6.27133 2.963132,-6.38935 3.540554,-3.44737 l 0.597881,3.04618 3.492431,-3.899 c 3.454627,-3.85684 9.043502,-7.91124 6.298672,-4.56931 -0.865981,1.05432 -0.919984,1.83211 -0.178846,2.57594 0.741137,0.74383 0.275653,1.26364 -1.541628,1.72147 -1.431824,0.36069 -2.603316,1.10396 -2.603316,1.65182 0,1.27962 0.661932,1.25537 3.218665,-0.11801 3.541836,-1.90239 1.641921,1.31979 -2.284956,3.87531 -7.334259,4.77288 -10.089476,6.96948 -11.658217,9.29458 -1.852815,2.7462 -0.396788,2.2082 3.455437,-1.2766 1.288152,-1.1653 3.679359,-2.1862 5.313804,-2.2687 1.634446,-0.082 4.536078,-1.3476 6.448078,-2.8113 1.912011,-1.4636 3.709283,-2.28294 3.993953,-1.8207 0.28468,0.4623 -1.73602,2.5292 -4.490439,4.5931 -5.291244,3.9646 -5.528679,4.3607 -4.035287,6.7308 0.707953,1.1235 0.264571,1.7962 -1.785964,2.7098 -1.985426,0.8846 -2.229673,1.2377 -0.897545,1.2977 2.332742,0.1049 1.185126,2.1133 -1.207678,2.1133 -0.983034,0 -2.891043,1.1826 -4.240021,2.628 l -2.452673,2.628 3.035098,-1.3033 c 1.669304,-0.7169 3.490363,-1.6109 4.046797,-1.9867 0.556435,-0.3758 2.523425,-0.7137 4.371103,-0.7511 1.99804,-0.041 4.79233,-1.1647 6.895417,-2.7747 4.72422,-3.6165 5.325372,-2.6443 0.877043,1.4184 -3.509731,3.2054 -4.486584,5.2183 -2.532419,5.2183 0.556435,0 1.011699,0.4292 1.011699,0.9538 0,0.5245 -2.047668,0.2535 -4.550387,-0.6023 -4.478535,-1.5316 -4.622275,-1.5106 -9.103485,1.3308 -2.504203,1.5879 -4.553917,3.2298 -4.554906,3.6486 -0.0034,1.489 2.949609,0.7325 3.963951,-1.0154 0.567158,-0.9773 1.045051,-1.3783 1.061969,-0.8911 0.01698,0.4873 0.713663,0.317 1.548316,-0.3782 0.956955,-0.7971 1.517549,-0.8651 1.517549,-0.1842 0,0.5939 -0.503871,1.3923 -1.119716,1.7743 -0.780548,0.4843 -0.703939,0.959 0.252926,1.5675 0.968263,0.6157 0.587291,0.8775 -1.293177,0.8884 -3.268553,0.019 -6.190757,4.0526 -5.742271,7.926 0.237862,2.0542 1.472922,3.3389 5.068861,5.2721 5.126832,2.7563 7.704136,4.9085 4.350926,3.6332 -1.11287,-0.4232 -3.730641,-1.0131 -5.817272,-1.3109 -3.337225,-0.4761 -3.793872,-0.288 -3.793872,1.5633 0,1.9266 -2.00339,4.4205 -2.038889,2.5381 -0.05474,-2.9045 -1.749206,-3.301 -5.771115,-1.3508 -2.281495,1.1063 -4.380861,2.5919 -4.665261,3.3013 -0.405905,1.0123 -0.534255,1.0024 -0.596959,-0.046 z m 10.037126,-15.9257 c 0,-1.3962 -0.455265,-2.5385 -1.0117,-2.5385 -1.130236,0 -1.386736,3.3467 -0.337232,4.4 1.115241,1.1193 1.348932,0.7969 1.348932,-1.8615 z m -7.203019,-6.5034 c 0.95455,-0.6069 0.416371,-0.8383 -1.700756,-0.7314 -1.703466,0.086 -3.432077,0.4924 -3.841378,0.9032 -1.050874,1.0548 3.851742,0.9027 5.542134,-0.1718 z m 13.927593,-16.609 c 1.393335,-0.8745 4.574624,-6.8417 3.647469,-6.8417 -1.032855,0 -4.301847,3.3104 -4.301847,4.3563 0,0.5476 -1.138162,2.0542 -2.529248,3.348 -1.391087,1.294 -2.529248,3.1214 -2.529248,4.0611 0,1.2335 0.622757,0.8941 2.239924,-1.2207 1.231969,-1.6111 2.794786,-3.2775 3.47295,-3.703 z"
       id="path3401"
       inkscape:connector-curvature="0"
       sodipodi:nodetypes="ccccscscscsscsssscsssssscscscscssccccscccscccscscsssscccsscccscccscsccsssscccccsscssc" />
  </g>
</svg>
