<?xml version="1.0" encoding="UTF-8" standalone="no"?>
<!-- Created with Inkscape (http://www.inkscape.org/) -->

<svg
   xmlns:dc="http://purl.org/dc/elements/1.1/"
   xmlns:cc="http://creativecommons.org/ns#"
   xmlns:rdf="http://www.w3.org/1999/02/22-rdf-syntax-ns#"
   xmlns:svg="http://www.w3.org/2000/svg"
   xmlns="http://www.w3.org/2000/svg"
   xmlns:sodipodi="http://sodipodi.sourceforge.net/DTD/sodipodi-0.dtd"
   xmlns:inkscape="http://www.inkscape.org/namespaces/inkscape"
   width="64"
   height="64"
   viewBox="0 0 64.000001 64.000001"
   id="svg2"
   version="1.1"
   inkscape:version="0.91 r13725"
   sodipodi:docname="10_Oath_of_the_Outcast.svg"
   inkscape:export-filename="/home/maym/download/descent images maym/10_Oath_of_the_Outcast.png"
   inkscape:export-xdpi="90"
   inkscape:export-ydpi="90">
  <defs
     id="defs4" />
  <sodipodi:namedview
     id="base"
     pagecolor="#ffffff"
     bordercolor="#666666"
     borderopacity="1.0"
     inkscape:pageopacity="0.0"
     inkscape:pageshadow="2"
     inkscape:zoom="7.9195959"
     inkscape:cx="54.047078"
     inkscape:cy="48.595396"
     inkscape:document-units="px"
     inkscape:current-layer="layer1"
     showgrid="false"
     units="px"
     inkscape:window-width="1920"
     inkscape:window-height="983"
     inkscape:window-x="0"
     inkscape:window-y="37"
     inkscape:window-maximized="1" />
  <metadata
     id="metadata7">
    <rdf:RDF>
      <cc:Work
         rdf:about="">
        <dc:format>image/svg+xml</dc:format>
        <dc:type
           rdf:resource="http://purl.org/dc/dcmitype/StillImage" />
        <dc:title></dc:title>
      </cc:Work>
    </rdf:RDF>
  </metadata>
  <g
     inkscape:label="Layer 1"
     inkscape:groupmode="layer"
     id="layer1"
     transform="translate(0,-988.36216)">
    <path
       style="fill:#000000"
       d="M 9.4046313,988.36275 C 9.1389213,988.37315 9,988.48321 9,988.69818 c 0,0.38443 0.5444826,0.90693 1.21039,1.16178 0.665908,0.25487 1.210391,1.03359 1.210391,1.72956 0,0.69598 0.703915,2.24723 1.564223,3.44691 0.963524,1.34362 1.497514,3.26143 1.389058,4.99477 -0.150876,2.4112 -0.519168,2.8874 -2.573173,3.3264 -1.318391,0.2817 -1.788655,0.5538 -1.043983,0.6062 0.74467,0.052 2.056249,0.9869 2.914745,2.0754 2.086467,2.6455 5.209622,12.5103 4.876596,15.4037 -0.229458,1.9935 0.175522,2.5397 2.92175,3.9378 3.582294,1.8236 4.666059,3.6356 2.173799,3.6356 -0.898673,0 -1.859141,0.3608 -2.133513,0.8036 -0.274362,0.4428 -0.10328,0.8054 0.38011,0.8054 0.483399,0 0.067,1.4089 -0.926619,3.1307 -0.993561,1.7218 -2.604743,3.3577 -2.793888,2.8808 -0.621639,-1.5673 -1.420297,2.1582 -1.986368,3.7195 -0.98852,2.7265 -2.510115,2.9712 -2.510115,0.9766 0,-0.2417 -0.227715,-0.9224 -0.227715,-0.9224 0,0 -0.542255,0.6576 -0.88108,1.1198 -1.565152,2.1348 -0.105659,4.3882 2.718559,4.4043 1.755681,0.01 2.092868,0.1775 1.122814,0.8473 -0.471176,0.3253 -0.846048,0.6149 -0.846048,0.6149 0,0 0.735126,-0.1407 1.417078,-0.2498 1.97765,-0.3165 3.355437,-2.8843 1.911051,-3.4084 -0.554923,-0.2014 -1.001292,-1.1511 -0.991436,-2.1105 0.01776,-1.7241 0.03408,-1.7219 1.502924,0.1835 0,0 0.36298,0.6355 0.977418,1.4186 0.648929,0.8269 2.3875,-2.0249 2.3875,-2.0249 1.344038,-1.8131 2.059541,-2.2466 2.518869,-1.5251 1.12772,1.7715 0.717969,2.9011 -1.149083,3.1656 -1.877535,0.2659 -2.137943,1.6275 -1.000188,5.2342 0.471238,1.4937 0.300201,1.6912 -1.140329,1.3155 -1.657155,-0.4322 -2.419347,0.7456 -1.156087,2.0056 l 0,-0.028 c 0.295959,0.2951 1.760838,0.9888 3.254569,0.9888 3.38211,0 4.297689,-1.9777 2.420781,-5.1468 0,0 -1.694193,-1.6965 -1.404826,-2.5507 0.429858,-1.2687 1.429427,-0.756 2.00739,-0.3109 2.200112,1.6942 2.72744,0.4928 3.237054,-2.8966 0.440037,-2.9266 0.821878,-3.5768 1.907544,-3.2478 2.226848,0.6751 8.131306,0.8228 8.737233,0.2185 0.309608,-0.3088 1.447624,0.016 2.529381,0.7232 2.377176,1.5535 4.317187,0.3781 2.660759,-1.6125 -1.049721,-1.2615 -0.458055,-3.2277 0.74795,-2.4843 1.108896,0.6835 1.485319,-0.6481 0.739198,-2.617 -0.377509,-0.9963 -1.226436,-1.8117 -1.886532,-1.8117 -0.741564,0 -1.410781,-1.1194 -1.751644,-2.9315 -0.550206,-2.9252 -0.55426,-2.9278 -1.622026,-1.0063 l -1.072016,1.9252 -0.02798,-2.2258 c -0.05399,-4.199 8.874056,-7.5435 10.073747,-3.7735 0.288561,0.9067 0.08655,2.175 -0.448422,2.818 -1.394872,1.6762 1.108232,1.5904 2.799133,-0.096 1.70136,-1.6968 1.674562,-5.1748 -0.04027,-5.1748 -0.948862,0 -1.083792,-0.2772 -0.48696,-1.0062 1.116617,-1.3642 -0.204498,-9.3915 -2.373491,-14.4201 -1.05747,-2.4517 -3.472089,-5.56124 -6.472341,-8.33162 -5.159207,-4.76394 -8.224515,-6.10025 -4.135647,-1.80294 3.006726,3.15999 4.921355,6.94036 4.485973,8.85576 -0.399096,1.7557 -0.390109,1.7571 -4.296793,-0.2306 -4.955131,-2.5213 -7.204543,-3.26037 -7.204543,-2.3655 0,0.4318 0.48174,0.7844 1.070259,0.7844 1.904755,0 4.677826,3.762 5.727897,7.7673 0.936952,3.5738 0.883312,4.1117 -0.62884,6.3208 -0.90924,1.3283 -1.851618,2.5966 -2.094977,2.818 -0.719861,0.6548 -0.622571,3.9834 0.103353,3.5359 0.365832,-0.2255 0.66562,-0.9325 0.66562,-1.5705 0,-1.5543 1.540197,-1.4817 2.14928,0.1014 1.156804,3.0066 -3.697485,3.5205 -6.533658,0.6917 -0.984091,-0.9814 -1.266444,-1.0188 -1.266444,-0.1694 0,2.0264 -3.186023,1.4845 -3.718749,-0.6325 -0.636329,-2.5286 1.468009,-5.7909 4.170678,-6.4674 2.605559,-0.6523 3.387598,0.1302 2.133504,2.1331 -1.085379,1.7334 -0.239287,2.1324 1.289215,0.6079 1.444306,-1.4405 1.173126,-4.2477 -0.618329,-6.3924 -0.873107,-1.0453 -1.600223,-1.448 -1.615021,-0.8945 -0.0148,0.5534 -0.410943,1.0063 -0.881079,1.0063 -0.470143,0 -0.636553,-0.3543 -0.36785,-0.7879 1.340542,-2.1633 -6.68552,-11.59378 -13.988672,-16.43611 -4.73989,-3.14278 -8.254956,-4.95775 -9.4063639,-4.91267 z m 3.2142777,3.28967 c 0.369415,-0.0244 1.112104,0.25943 2.233351,0.83683 4.196561,2.16106 11.880997,9.23125 14.055245,12.93155 1.325339,2.2561 1.770048,3.8156 1.31724,4.6226 -0.578465,1.031 -1.237089,0.852 -4.295043,-1.1722 -1.986736,-1.3151 -5.273977,-2.9447 -7.304389,-3.6199 -3.430387,-1.1406 -3.665369,-1.3961 -3.33864,-3.6163 0.193378,-1.3142 0.674284,-2.19096 1.06851,-1.94796 0.394209,0.24299 0.716418,0.0583 0.716418,-0.41056 0,-0.4689 -0.363572,-0.85255 -0.80751,-0.85255 -0.443938,0 -0.81516,-0.45283 -0.825026,-1.00629 -0.0099,-0.55346 -0.727619,-1.91196 -1.595752,-3.01888 -1.420485,-1.8112 -1.840094,-2.70571 -1.224404,-2.74634 z m 30.853563,5.56431 2.925256,2.75682 c 1.694382,1.59725 3.460208,4.37045 4.200463,6.59335 0.702696,2.11 1.166024,5.3978 1.028215,7.3061 l -0.250489,3.4696 -1.292712,-2.0126 c -4.325546,-6.7331 -5.366343,-9.2749 -4.612097,-11.2701 0.566779,-1.4994 0.409455,-2.6296 -0.61833,-4.42877 z m -3.839617,6.84317 c 0.97826,0 6.318783,6.0393 7.617925,8.6147 0.714821,1.4169 1.299726,3.4989 1.299726,4.6278 0,1.893 -0.266408,2.0461 -3.429732,1.9602 -6.233816,-0.1698 -6.566635,-0.4242 -4.638365,-3.536 1.657862,-2.6754 1.658185,-2.7266 0.150643,-7.1803 -0.835205,-2.4675 -1.285134,-4.4864 -1.000197,-4.4864 z m -25.123916,1.4011 2.29116,0.5608 c 2.527641,0.6208 7.74865,3.4922 10.72535,5.8963 l 1.919813,1.5496 -3.382442,3.66 c -3.659414,3.9596 -6.77898,5.487 -6.472341,3.1691 0.246956,-1.8668 -1.565119,-7.964 -3.480529,-11.7086 z m 7.65997,17.142 c 4.499927,-0.053 8.633019,4.1936 7.015353,7.2082 -0.46731,0.8709 -1.544591,1.9538 -2.394504,2.4074 -1.410728,0.753 -1.507228,0.5889 -1.105289,-1.8815 0.449373,-2.7618 0.385804,-2.8654 -3.769556,-6.1251 l -2.017901,-1.5828 z m 14.771662,3.9639 c 1.0526,0 3.659199,4.1705 3.659199,5.809 0,1.5641 -1.776453,2.0019 -2.595945,0.6795 -1.0439,-1.6845 -1.751547,-6.4885 -1.063254,-6.4885 z m 6.714077,5.6347 c 0.590796,0.2291 0.379105,0.7985 0.379105,0.7985 -0.4534,0.4485 -0.757018,0.505 -1.150832,0.019 -0.3601,-0.711 0.322336,-0.9916 0.771727,-0.8173 z m -0.310048,2.8263 c 0.170256,0.034 0.364747,0.1416 0.564034,0.3389 0.551631,0.5461 1.41862,2.7937 1.170104,3.0416 -0.248515,0.2478 -1.91974,-1.2571 -2.222847,-2.0511 -0.328523,-0.8605 -0.02207,-1.431 0.488709,-1.3294 z"
       id="path3407"
       inkscape:connector-curvature="0"
       sodipodi:nodetypes="sscsssscsscscsscsscccscscccccccscccscccsccscccssccccccscsssssssssscsscsscscscssssssccssscsscssccscccsccscscssscccccscccscscccsscssccsscsss" />
  </g>
</svg>
