<?xml version="1.0" encoding="UTF-8" standalone="no"?>
<!-- Created with Inkscape (http://www.inkscape.org/) -->

<svg
   xmlns:dc="http://purl.org/dc/elements/1.1/"
   xmlns:cc="http://creativecommons.org/ns#"
   xmlns:rdf="http://www.w3.org/1999/02/22-rdf-syntax-ns#"
   xmlns:svg="http://www.w3.org/2000/svg"
   xmlns="http://www.w3.org/2000/svg"
   xmlns:sodipodi="http://sodipodi.sourceforge.net/DTD/sodipodi-0.dtd"
   xmlns:inkscape="http://www.inkscape.org/namespaces/inkscape"
   width="64"
   height="64"
   viewBox="0 0 64.000001 64.000001"
   id="svg5039"
   version="1.1"
   inkscape:version="0.91 r13725"
   sodipodi:docname="18_Shards_of_Everdark.svg"
   inkscape:export-filename="/home/maym/download/descent images maym/17_Stewards_of_the_Secret.png"
   inkscape:export-xdpi="90"
   inkscape:export-ydpi="90">
  <defs
     id="defs5041" />
  <sodipodi:namedview
     id="base"
     pagecolor="#ffffff"
     bordercolor="#666666"
     borderopacity="1.0"
     inkscape:pageopacity="0.0"
     inkscape:pageshadow="2"
     inkscape:zoom="7.9195959"
     inkscape:cx="54.711865"
     inkscape:cy="49.870519"
     inkscape:document-units="px"
     inkscape:current-layer="layer1"
     showgrid="false"
     units="px"
     inkscape:window-width="1920"
     inkscape:window-height="983"
     inkscape:window-x="0"
     inkscape:window-y="37"
     inkscape:window-maximized="1" />
  <metadata
     id="metadata5044">
    <rdf:RDF>
      <cc:Work
         rdf:about="">
        <dc:format>image/svg+xml</dc:format>
        <dc:type
           rdf:resource="http://purl.org/dc/dcmitype/StillImage" />
        <dc:title />
      </cc:Work>
    </rdf:RDF>
  </metadata>
  <g
     inkscape:label="Layer 1"
     inkscape:groupmode="layer"
     id="layer1"
     transform="translate(0,-988.36216)">
    <path
       style="fill:#000000"
       d="m 34.86025,1050.2797 c 0,-0.067 0.066,-0.3541 0.14665,-0.6362 0.21208,-0.7419 -0.0366,-0.9093 -0.577879,-0.3889 -0.47204,0.4537 -0.75341,0.4089 -0.75341,-0.1199 0,-0.7585 -0.623089,-2.3956 -1.073329,-2.8199 -0.249079,-0.2347 -0.861189,-0.9701 -1.360249,-1.6342 -0.585529,-0.7791 -1.008849,-1.2076 -1.193489,-1.2079 -0.313669,0 -0.401509,-0.1477 -1.195819,-2.0052 -1.119709,-2.6183 -1.424468,-3.6933 -1.419588,-5.0072 0.004,-1.0979 0.0574,-1.3247 0.536179,-2.2818 0.29242,-0.5846 0.7464,-1.364 1.008849,-1.7321 0.26245,-0.3681 0.77705,-1.1615 1.143549,-1.7633 0.36649,-0.6017 0.98737,-1.5132 1.379709,-2.0257 0.39235,-0.5124 1.058709,-1.4269 1.480799,-2.0321 0.890499,-1.277 1.733739,-1.8563 2.127178,-1.4617 0.30236,0.3034 1.352939,2.1867 2.340818,4.1963 0.865729,1.7612 1.994768,4.9367 1.998308,5.6205 10e-4,0.2314 0.21639,0.8999 0.47821,1.4856 0.43976,0.9837 0.48039,1.2096 0.53332,2.966 0.0608,2.0159 -0.009,2.3644 -0.68127,3.4008 -0.19553,0.3013 -0.583519,1.2374 -0.862189,2.0799 -0.31917,0.9649 -0.6245,1.6212 -0.825029,1.7736 -0.17509,0.133 -0.85715,1.0013 -1.515689,1.9295 -0.65855,0.9282 -1.313969,1.71 -1.456489,1.7374 -0.14253,0.027 -0.25914,-0.01 -0.25914,-0.073 z m -10.77979,-7.2522 c -0.22198,-0.8487 -0.44299,-2.0165 -0.68876,-3.6398 -0.32168,-2.1244 -0.744389,-3.9367 -1.261239,-5.4072 -0.431599,-1.2279 -0.584599,-2.267 -0.767839,-5.2148 -0.0101,-0.1635 0.11921,-0.6663 0.28748,-1.1173 0.168269,-0.4511 0.327389,-1.0856 0.353609,-1.4103 0.0399,-0.4939 -0.007,-0.6143 -0.285499,-0.7379 -0.46522,-0.2061 -0.4203,-0.3236 0.256079,-0.6698 0.68724,-0.3518 1.039609,-0.944 1.039609,-1.7472 0,-0.7373 -0.206809,-0.9285 -1.004469,-0.9285 -0.356999,0 -0.626869,-0.064 -0.599719,-0.1428 0.0272,-0.078 0.643829,-0.5632 1.370399,-1.077 0.726569,-0.5139 1.346809,-1.0128 1.378308,-1.1087 0.0315,-0.096 -0.249449,-0.3547 -0.624349,-0.5752 -0.774429,-0.4553 -0.790019,-0.6303 -0.0316,-0.3551 0.28089,0.1018 0.60278,0.1498 0.715329,0.1064 0.11254,-0.043 0.75767,-0.9815 1.433619,-2.0848 0.67596,-1.1033 1.387619,-2.1555 1.581479,-2.3382 0.636419,-0.5998 3.296827,-1.0892 5.998505,-1.1034 3.574317,-0.019 3.932526,0.1584 6.065115,2.9984 0.507039,0.6752 1.052579,1.2978 1.212309,1.3836 0.288929,0.1553 0.783279,-0.07 1.886388,-0.8612 0.34814,-0.2495 0.35152,-0.2479 0.24162,0.1127 -0.0613,0.201 -0.20353,0.4711 -0.31606,0.6001 -0.11254,0.1291 -0.20461,0.3058 -0.20461,0.3928 0,0.2273 0.36121,0.3337 0.60575,0.1784 0.11478,-0.073 0.330959,-0.1336 0.480409,-0.1349 0.21496,0 0.14536,0.1418 -0.333169,0.6873 -1.02003,1.1625 -0.80345,1.5433 1.164089,2.0464 0.524999,0.1342 0.991379,0.2811 1.036399,0.3262 0.045,0.045 -0.21795,0.3429 -0.58436,0.6618 -0.778459,0.6773 -0.706669,0.796 0.5782,0.9564 0.455789,0.057 0.884479,0.1376 0.952639,0.1795 0.0682,0.042 -0.0968,0.3046 -0.3666,0.5839 -0.391639,0.4053 -0.458989,0.5579 -0.334089,0.7566 0.172409,0.2742 1.341338,0.6261 2.094568,0.6306 0.703999,0 0.615109,0.2942 -0.4357,1.4211 l -0.916959,0.9834 -0.11023,1.5846 c -0.0606,0.8716 -0.11578,2.4874 -0.12256,3.5904 -0.0123,2.0053 -0.0124,2.0058 -0.737369,4.0854 -1.317129,3.7783 -1.826859,5.1253 -1.939539,5.1253 -0.17093,0 -0.248959,-0.2867 -0.589279,-2.1654 -0.33176,-1.8314 -0.71282,-2.9888 -1.180429,-3.5851 -0.15458,-0.1972 -0.35698,-0.7389 -0.44976,-1.2037 -0.448059,-2.2448 -1.735568,-5.4432 -3.440327,-8.546 -1.340349,-2.4397 -1.736918,-2.8602 -2.569388,-2.7246 -0.684029,0.1113 -2.126098,0.7827 -2.373638,1.1052 -0.10897,0.1418 -0.390719,0.5935 -0.626109,1.0034 -0.23539,0.41 -0.807549,1.21 -1.271479,1.7778 -0.46392,0.5679 -1.213839,1.6363 -1.666479,2.3743 -0.452639,0.7381 -1.046349,1.6504 -1.319358,2.0272 -0.77191,1.0653 -1.541459,2.8244 -1.691849,3.8673 -0.0749,0.5194 -0.2392,1.4122 -0.36511,1.9842 -0.1259,0.5719 -0.428779,2.0093 -0.673049,3.194 -0.24427,1.1849 -0.50068,2.2879 -0.5698,2.4512 -0.1081,0.2557 -0.14738,0.2141 -0.281099,-0.297 z M 6.6254044,1028.9514 c -0.6762595,-0.7549 -2.417578,-3.9265 -2.417578,-4.4035 0,-0.1857 -0.1163299,-0.3101 -0.3180597,-0.3402 -0.1749299,-0.026 -0.3697097,-0.1477 -0.4328396,-0.2702 -0.0631,-0.1226 -0.4438497,-0.7912 -0.8460393,-1.4856 -0.4021897,-0.6946 -0.8360093,-1.4682 -0.9640392,-1.7191 -0.3454397,-0.6771 -1.07821908,-2.9461 -1.38110883,-4.2764 L 0,1015.2891 0.40721965,1013.708 c 0.32474973,-1.261 0.49481958,-1.6625 0.83986925,-1.9828 0.4041697,-0.3752 0.4306697,-0.4681 0.4025697,-1.4113 -0.0247,-0.8292 0.031,-1.1088 0.3115897,-1.5635 0.1879199,-0.3046 0.5203896,-0.6396 0.7388294,-0.7444 0.3224697,-0.1547 0.4118497,-0.3185 0.4753096,-0.8704 0.043,-0.3739 0.2041298,-0.8745 0.3580997,-1.1125 0.6454995,-0.9982 1.9359384,-2.4385 2.1846681,-2.4385 0.2265999,0 0.2666198,-0.1314 0.2666198,-0.8751 0,-0.7996 0.0557,-0.9509 0.6473195,-1.7571 1.4990387,-2.04288 7.7177436,-7.31144 7.9210436,-6.7107 0.15125,0.44685 -1.045889,4.13182 -2.649058,8.1543 -1.603419,4.0233 -1.502839,3.8235 -2.0246384,4.0225 -0.2827998,0.1079 -0.3423897,0.2027 -0.2509498,0.3994 0.0659,0.1419 0.1174899,0.5253 0.1145199,0.8522 -0.007,0.7547 -0.3135297,3.5806 -0.5183195,4.7761 -0.1306299,0.7626 -0.1184899,0.9719 0.0734,1.2657 0.1264499,0.1936 0.3714397,0.9499 0.5444095,1.6805 0.6063893,2.5616 1.3663983,3.3768 3.3853173,3.6311 0.663689,0.083 1.183699,0.2359 1.363819,0.3995 0.251579,0.2284 0.375799,0.2416 0.914539,0.097 0.485949,-0.1304 0.868159,-0.1205 1.733308,0.045 0.61045,0.1168 1.326159,0.1716 1.590469,0.1219 0.29589,-0.055 0.710499,0 1.078849,0.1497 0.36763,0.1476 0.824569,0.2112 1.185309,0.165 0.32288,-0.041 0.853599,-0.1094 1.179369,-0.1512 0.32578,-0.042 0.59232,-0.022 0.59232,0.045 0,0.066 -0.63128,0.5439 -1.402849,1.0608 -1.245739,0.8349 -1.743349,1.3603 -1.509949,1.5945 0.13451,0.1349 1.193459,0.34 1.774569,0.3437 0.546089,0 0.563149,0.019 0.518279,0.4811 -0.0401,0.4122 -0.16792,0.5452 -0.934879,0.9729 -0.824289,0.4597 -1.258679,0.8349 -1.258679,1.0873 0,0.057 0.26655,0.211 0.592319,0.3418 0.67122,0.2695 0.70343,0.4051 0.36651,1.5433 -0.37912,1.2808 -0.24865,1.2408 -3.975846,1.2183 -2.673348,-0.016 -3.875937,0.051 -6.534095,0.3636 -1.7917683,0.2108 -3.329427,0.3833 -3.4170369,0.3833 -0.0876,0 -0.2940498,-0.1504 -0.4587596,-0.3342 z m 42.3279136,-3.7884 c 0.0276,-0.061 0.23419,-0.4624 0.45907,-0.8913 0.479,-0.9137 0.38178,-0.9634 -0.803079,-0.41 -0.43566,0.2035 -0.958709,0.3697 -1.162319,0.3694 -0.49083,0 -1.036549,-0.1528 -1.036549,-0.2888 0,-0.06 0.366489,-0.4024 0.814429,-0.761 0.44794,-0.3586 0.814439,-0.6932 0.814439,-0.7437 0,-0.05 -0.546899,-0.1373 -1.215339,-0.1933 -0.668439,-0.056 -1.239339,-0.1257 -1.268679,-0.1552 -0.0293,-0.029 0.2338,-0.3221 0.58475,-0.6506 l 0.638089,-0.5971 -0.442989,-0.095 c -0.24364,-0.052 -0.77616,-0.1881 -1.183379,-0.3021 -0.40722,-0.114 -1.023599,-0.2798 -1.369729,-0.3684 -0.34614,-0.088 -0.62779,-0.2422 -0.6259,-0.3412 0.002,-0.099 0.40045,-0.5345 0.88568,-0.9678 0.630049,-0.5627 1.168749,-0.8874 1.884568,-1.136 0.55128,-0.1915 1.380389,-0.5248 1.842458,-0.7406 0.57538,-0.2689 0.96116,-0.3621 1.224229,-0.2958 0.30472,0.076 0.44824,0.015 0.69444,-0.2991 0.17069,-0.2176 0.852549,-0.8299 1.515239,-1.3606 0.662699,-0.5307 1.593578,-1.413 2.068618,-1.9608 l 0.863719,-0.9959 -0.0897,-0.8171 c -0.0493,-0.4494 -0.18732,-1.1848 -0.30666,-1.6341 -0.286779,-1.08 -0.276139,-1.6233 0.0387,-1.9732 0.24972,-0.2775 0.23863,-0.3058 -0.305279,-0.7781 -0.67265,-0.5841 -1.161359,-1.7355 -1.04805,-2.4695 0.0675,-0.4373 0.0221,-0.5295 -0.368459,-0.7471 -0.26706,-0.1488 -0.60512,-0.5653 -0.844009,-1.04 -0.21918,-0.4354 -0.55433,-0.9784 -0.74478,-1.2068 -0.19044,-0.2282 -0.612919,-0.9859 -0.938829,-1.68358 -0.32591,-0.6978 -0.951679,-1.74777 -1.390599,-2.33325 -0.43892,-0.58559 -1.187449,-1.66639 -1.663388,-2.40176 -0.47594,-0.73538 -1.351299,-1.98432 -1.945239,-2.77548 -0.593949,-0.79125 -1.079899,-1.50988 -1.079899,-1.59706 0,-0.0913 0.31518,-0.15861 0.743089,-0.15861 0.85372,0 2.757648,0.70127 4.069237,1.49874 1.064209,0.6471 2.272488,1.83413 2.382558,2.34067 0.15497,0.71321 0.19588,0.76608 0.593629,0.76608 0.71884,0 2.037119,0.93412 3.927567,2.783 2.354478,2.30275 2.882148,3.17755 2.730048,4.52635 l -0.10024,0.8889 0.45133,-0.099 c 0.679659,-0.1498 1.293588,0.3662 1.819028,1.5287 0.35014,0.7748 0.42535,1.124 0.38675,1.7953 l -0.0479,0.8333 0.471369,0.01 c 0.25925,0 0.60073,0.1225 0.75884,0.266 0.1581,0.1436 0.604289,1.0772 0.991539,2.0747 0.387239,0.9976 0.871289,2.1984 1.075679,2.6687 0.44917,1.0334 0.40942,1.6298 -0.24117,3.6186 -0.552569,1.6891 -1.459629,3.2304 -2.612018,4.4382 -0.747699,0.7836 -1.064459,0.9958 -1.999078,1.3394 -0.610829,0.2246 -2.076808,0.8063 -3.257747,1.2928 -2.442568,1.0063 -6.136055,2.3465 -6.466815,2.3465 -0.12179,0 -0.19884,-0.05 -0.17122,-0.1115 z"
       id="path3399"
       inkscape:connector-curvature="0" />
  </g>
</svg>
