<?xml version="1.0" encoding="UTF-8" standalone="no"?>
<!-- Created with Inkscape (http://www.inkscape.org/) -->

<svg
   xmlns:dc="http://purl.org/dc/elements/1.1/"
   xmlns:cc="http://creativecommons.org/ns#"
   xmlns:rdf="http://www.w3.org/1999/02/22-rdf-syntax-ns#"
   xmlns:svg="http://www.w3.org/2000/svg"
   xmlns="http://www.w3.org/2000/svg"
   xmlns:sodipodi="http://sodipodi.sourceforge.net/DTD/sodipodi-0.dtd"
   xmlns:inkscape="http://www.inkscape.org/namespaces/inkscape"
   width="64"
   height="64"
   viewBox="0 0 64.000001 64.000001"
   id="svg3446"
   version="1.1"
   inkscape:version="0.91 r13725"
   sodipodi:docname="_The_Trollfens.svg">
  <defs
     id="defs3448" />
  <sodipodi:namedview
     id="base"
     pagecolor="#ffffff"
     bordercolor="#666666"
     borderopacity="1.0"
     inkscape:pageopacity="0.0"
     inkscape:pageshadow="2"
     inkscape:zoom="11.2"
     inkscape:cx="20.475256"
     inkscape:cy="36.403801"
     inkscape:document-units="px"
     inkscape:current-layer="layer1"
     showgrid="false"
     units="px"
     inkscape:window-width="1920"
     inkscape:window-height="983"
     inkscape:window-x="0"
     inkscape:window-y="37"
     inkscape:window-maximized="1" />
  <metadata
     id="metadata3451">
    <rdf:RDF>
      <cc:Work
         rdf:about="">
        <dc:format>image/svg+xml</dc:format>
        <dc:type
           rdf:resource="http://purl.org/dc/dcmitype/StillImage" />
        <dc:title></dc:title>
      </cc:Work>
    </rdf:RDF>
  </metadata>
  <g
     inkscape:label="Layer 1"
     inkscape:groupmode="layer"
     id="layer1"
     transform="translate(0,-988.36214)">
    <path
       style="fill:#000000"
       d="m 28.480848,1043.0571 c 1.354805,-4.0178 2.320436,-8.5114 2.145797,-9.9856 -0.293748,-2.4791 -0.621987,-2.2397 -4.370119,3.1888 -2.228805,3.2282 -4.241697,5.681 -4.473132,5.4507 -0.231434,-0.2301 1.237076,-2.7642 3.26319,-5.6314 3.420238,-4.8396 3.547969,-5.2853 1.784562,-6.224 -3.058083,-1.6278 -7.675043,0.258 -10.490999,4.2851 -2.537155,3.6284 -10.8361379,11.0758 -12.3422429,11.0758 -2.4457536,0 -1.6931609,-1.5847 1.193272,-2.5127 1.8636613,-0.5991 3.3955195,-1.5524 3.4041423,-2.1185 0.011497,-0.566 1.3922848,-2.3844 3.0748686,-4.0406 3.312741,-3.2612 2.501169,-4.3722 -1.9612707,-2.6846 -1.796059,0.6791 -2.5426732,1.5247 -2.074401,2.3493 0.5764589,1.0153 0.4432088,1.0229 -0.6284251,0.036 -2.3614807,-2.1759 0.7524776,-12.3936 5.1553628,-16.9158 3.042677,-3.1254 4.579249,-3.8562 9.093655,-4.3255 5.123171,-0.5326 5.432325,-0.432 5.432325,1.769 0,1.6582 1.058528,2.8359 3.656616,4.0682 4.622133,2.1922 4.80459,2.182 8.180565,-0.4591 l 2.803654,-2.1936 -3.772965,-3.8431 c -2.882869,-2.9363 -3.41265,-3.9806 -2.245591,-4.426 1.572787,-0.6003 11.76107,1.4156 13.947797,2.7599 1.59946,0.9831 1.589918,-0.6536 -0.01265,-2.2479 -0.965747,-0.9605 -0.850777,-1.2349 0.517365,-1.2349 0.967471,0 1.759038,-0.4632 1.759038,-1.0292 0,-0.5661 0.698442,-1.0292 1.552093,-1.0292 2.028988,0 1.959891,-0.9186 -0.258682,-3.4382 -1.730181,-1.9651 -1.726387,-2.0259 0.08508,-1.3674 1.042431,0.3789 2.322965,0.689 2.845503,0.689 0.522538,0 0.950111,0.614 0.950111,1.3643 0,0.7504 1.14602,2.4353 2.546812,3.7441 2.005534,1.874 2.32768,2.787 1.515648,4.296 -1.249033,2.3215 -3.349877,2.4666 -5.113284,0.3533 -1.06738,-1.2792 -0.967242,-1.9334 0.55105,-3.6021 1.020358,-1.1214 1.33388,-2.039 0.696603,-2.039 -1.638321,0 -3.411041,3.663 -2.684316,5.5466 0.849512,2.202 4.353908,3.1064 6.183653,1.5959 1.896312,-1.5653 2.072446,-1.3617 2.936215,3.3908 0.174409,0.9593 0.622906,1.6527 0.66809,2.5345 0.05863,1.1493 -0.521734,2.3691 -0.521734,2.3691 0,0 -0.693613,-1.5352 -1.223509,-1.7374 -1.357909,-0.5183 -2.004269,-0.1194 -1.496102,1.1978 0.269949,0.6996 1.070829,1.2027 1.070829,1.2027 0,0 -1.857338,0.4412 -2.466908,-0.5398 -1.198101,-1.928 -5.996023,-1.9537 -7.917744,-0.043 -1.856188,1.8463 -1.80951,1.9178 1.672467,2.5676 1.970238,0.3676 3.570158,0.9641 3.555442,1.3258 -0.01495,0.3614 -1.911718,1.5223 -4.215714,2.5795 l -4.189041,1.9223 2.661207,2.7628 c 2.067042,2.1459 2.384589,3.038 1.421947,3.9953 -0.681542,0.678 -1.808706,1.2327 -2.504848,1.2327 -0.696028,0 -2.719152,1.4457 -4.495781,3.2128 -1.776514,1.767 -3.497498,2.9469 -3.824242,2.6219 -0.326745,-0.3249 0.159693,-1.3408 1.081176,-2.2572 0.921368,-0.9164 1.675226,-2.051 1.675226,-2.5211 0,-0.4704 1.418498,-1.3469 3.152358,-1.948 3.071994,-1.0652 3.109704,-1.1576 1.483801,-3.6258 -2.15649,-3.2735 -6.273445,-4.6569 -11.407193,-3.8333 -3.713412,0.5957 -4.196285,1.038 -5.199282,4.761 -0.60819,2.2574 -1.652117,5.3983 -2.319976,6.9798 -0.667745,1.5816 -1.501162,4.0129 -1.851935,5.4031 -0.350773,1.3902 -0.970805,2.5275 -1.377913,2.5275 -0.407109,0 0.368363,-3.2873 1.723168,-7.3052 z m -16.972999,-14.9069 c -0.309498,-0.8021 -0.95103,-1.4586 -1.425741,-1.4586 -1.2739805,0 -2.2344386,1.9095 -1.5303632,3.0425 0.934245,1.5036 3.5968312,0.077 2.9561042,-1.5839 z m 39.480768,0.4286 c 1.197669,-0.5347 3.535884,-1.7263 3.535884,-1.7263 0,0 -3.445157,-1.1646 -5.154231,-0.8354 -1.638986,0.3157 -4.291495,0.2319 -4.291495,2.5801 0,1.3283 1.066823,1.6289 2.327327,1.4357 0.962968,-0.1476 2.405668,-0.9287 3.582515,-1.4541 z m -34.800345,-1.772 c 1.092213,-0.6884 1.141076,-1.3642 0.222352,-3.0717 -1.391481,-2.5858 -2.454377,-2.7489 -4.209391,-0.6455 -1.027716,1.2315 -1.027716,1.8559 0,3.0875 1.475178,1.7679 2.039565,1.857 3.987039,0.6297 z m 6.567193,-3.2027 c 2.167066,0 2.181552,-0.061 0.853421,-3.5349 -1.116243,-2.9201 -2.831133,-3.3221 -5.595353,-1.3116 -1.575777,1.1459 -1.649357,1.7147 -0.536334,4.1444 0.882853,1.9271 1.625673,2.4826 2.352973,1.7592 0.584506,-0.5814 1.900911,-1.0571 2.925293,-1.0571 z m 28.358807,-4.7154 c -0.345484,-0.8953 -0.62808,-1.8215 -0.62808,-2.0582 0,-0.2367 -0.424469,-0.4305 -0.943213,-0.4305 -0.749373,0 -0.825943,1.7299 -0.17073,3.8594 0.04369,0.1416 0.594624,0.2573 1.224659,0.2573 0.630034,0 0.862848,-0.7325 0.517364,-1.628 z m -5.801723,-4.9415 c 0,-1.383 -3.057853,-2.6856 -6.208372,-2.6447 -1.086235,0.014 -0.81893,0.6277 0.890671,2.0442 2.844929,2.3574 5.317701,2.6366 5.317701,0.6005 z m 15.520929,-3.0815 c 0,-0.2137 -0.814791,-1.0241 -1.810775,-1.801 -1.64108,-1.2802 -1.677755,-1.2438 -0.390668,0.3885 1.351701,1.7144 2.201443,2.2595 2.201443,1.4125 z m -29.387443,8.7388 c -1.721328,-0.6717 -1.552668,-0.9384 1.351011,-2.1346 2.279622,-0.9391 3.652132,-1.0348 4.38541,-0.3054 0.733277,0.7293 0.715227,1.278 -0.05748,1.753 -0.618653,0.3803 -1.124865,0.2155 -1.124865,-0.366 0,-0.5818 -0.737532,-0.7762 -1.638895,-0.4322 -1.319509,0.5036 -1.369866,0.7951 -0.258682,1.4957 1.673386,1.055 0.05863,1.0486 -2.656379,-0.011 z m -18.886441,-6.8 -5.5775325,-7.4094 c 0,0 4.0628045,4.7328 5.6336375,5.2765 0.563352,0.1951 2.013352,0.4131 2.013352,0.4131 5.488775,0.4859 6.584668,1.5134 2.990021,2.8037 -2.319977,0.833 -3.233297,0.6374 -5.059478,-1.0839 z m 15.563238,0.4491 c -1.256161,-1.2493 -4.742966,-2.6112 -8.507769,-3.3229 -3.508535,-0.6631 -6.379102,-1.5273 -6.379102,-1.9205 0,-0.393 -1.280419,-2.2317 -2.845503,-4.0861 -1.4642564,-1.7349 -3.5223317,-4.00136 -3.5223317,-4.00136 0,0 2.0763555,1.16136 2.688225,1.39376 1.9921977,0.7566 1.9921977,0.7422 0,-1.48836 -1.0309346,-1.1545 -3.3534405,-2.53803 -3.3534405,-2.53803 0,0 2.4567907,0.86653 3.496578,1.40833 1.1849942,0.6175 2.7868692,1.88046 3.5596962,2.80656 0.772712,0.9262 4.083269,3.0286 7.356576,4.672 3.273421,1.6436 6.334493,3.6689 6.802536,4.5007 0.500118,0.8888 1.385271,1.1839 2.146717,0.7158 2.853436,-1.754 -18.806423,-15.57657 -24.4083288,-15.57657 -3.9132287,0 -3.9569172,0.20286 -1.0840507,5.02427 l 2.8988497,4.5532 -3.8914994,-4.4317 c -3.90610047,-4.44823 -4.07292172,-5.93194 -0.6368179,-7.23119 4.4458839,-1.68131 9.8209541,0.25134 18.6740921,6.71419 l 5.05281,3.6886 -4.656279,-4.25136 c -6.802651,-6.21112 -10.356599,-8.39534 -15.0035648,-8.48087 -1.9282743,-0.0354 -4.1539755,0.0674 -4.1539755,0.0674 0,0 1.4954128,-0.48931 2.0620991,-0.70955 3.0294555,-1.17719 8.3217472,0.34214 12.0444712,3.45774 11.293258,9.45144 15.274204,13.31594 14.688548,14.25854 -0.404119,0.6502 -0.0115,0.8196 1.004606,0.4323 1.176946,-0.4492 1.497942,-0.1934 1.088765,0.8674 -0.319272,0.8274 -0.06668,2.12 0.561052,2.8724 2.649021,3.1746 -2.543593,3.7276 -5.682959,0.6052 z m 2.703516,-5.4419 c 0,-0.1952 -1.047605,-1.2372 -2.32814,-2.3156 l -2.328139,-1.9606 1.971158,2.3157 c 1.852394,2.1761 2.685121,2.784 2.685121,1.9605 z"
       id="path3652"
       inkscape:connector-curvature="0"
       sodipodi:nodetypes="cccscssssccsccsssssccsscsssscssccccscccscscccsccscccscscsccsccssccssssacassascccssccccsssscssscsssccscsscsscccccssccssssccccscccssccssscssccscccccsscsss" />
  </g>
</svg>
