<?xml version="1.0" encoding="UTF-8" standalone="no"?>
<!-- Created with Inkscape (http://www.inkscape.org/) -->

<svg
   xmlns:dc="http://purl.org/dc/elements/1.1/"
   xmlns:cc="http://creativecommons.org/ns#"
   xmlns:rdf="http://www.w3.org/1999/02/22-rdf-syntax-ns#"
   xmlns:svg="http://www.w3.org/2000/svg"
   xmlns="http://www.w3.org/2000/svg"
   xmlns:sodipodi="http://sodipodi.sourceforge.net/DTD/sodipodi-0.dtd"
   xmlns:inkscape="http://www.inkscape.org/namespaces/inkscape"
   width="64"
   height="64"
   viewBox="0 0 64.000001 64.000001"
   id="svg4849"
   version="1.1"
   inkscape:version="0.91 r13725"
   sodipodi:docname="16_Treaty_of_Champions.svg"
   inkscape:export-filename="/home/maym/download/descent images maym/16_Treaty_of_Champions.png"
   inkscape:export-xdpi="90"
   inkscape:export-ydpi="90">
  <defs
     id="defs4851" />
  <sodipodi:namedview
     id="base"
     pagecolor="#ffffff"
     bordercolor="#666666"
     borderopacity="1.0"
     inkscape:pageopacity="0.0"
     inkscape:pageshadow="2"
     inkscape:zoom="11.2"
     inkscape:cx="45.135592"
     inkscape:cy="38.064693"
     inkscape:document-units="px"
     inkscape:current-layer="layer1"
     showgrid="false"
     units="px"
     inkscape:window-width="1920"
     inkscape:window-height="983"
     inkscape:window-x="0"
     inkscape:window-y="37"
     inkscape:window-maximized="1" />
  <metadata
     id="metadata4854">
    <rdf:RDF>
      <cc:Work
         rdf:about="">
        <dc:format>image/svg+xml</dc:format>
        <dc:type
           rdf:resource="http://purl.org/dc/dcmitype/StillImage" />
        <dc:title></dc:title>
      </cc:Work>
    </rdf:RDF>
  </metadata>
  <g
     inkscape:label="Layer 1"
     inkscape:groupmode="layer"
     id="layer1"
     transform="translate(0,-988.36216)">
    <path
       style="fill:#000000"
       d="m 28.063434,1051.4386 c -0.547495,-0.5456 -0.995445,-1.8874 -0.995445,-2.9819 0,-1.4291 -0.350644,-1.8557 -1.244307,-1.5139 -0.684369,0.2617 -1.244307,0.075 -1.244307,-0.4146 0,-0.546 0.833995,-0.6817 2.156326,-0.351 l 2.156327,0.5394 -1.671554,-2.3394 c -2.272569,-3.1806 -5.668219,-4.9677 -6.971458,-3.6689 -1.794596,1.7885 -3.804186,1.107 -4.375137,-1.4837 -0.326985,-1.4836 -1.87066,-3.5076 -3.891926,-5.1032 -3.2291316,-2.5488 -3.3316386,-2.7776 -2.8413484,-6.3423 0.5805863,-4.2214 -0.5417247,-6.5145 -2.5063597,-5.0186 -1.2604073,0.9597 -0.3727328,1.7215 -0.5371139,1.6165 -0.042789,-0.027 -0.3938523,0.7089 -0.5916827,0.4349 -0.5551179,-0.7689 -0.2063412,-1.2675 -0.00545,-2.0254 0.3399018,-1.2823 4.0965639,-2.152 5.2038707,-1.0485 1.403838,1.399 2.029397,1.1408 2.585469,-1.0671 0.276846,-1.0993 2.398673,-4.0653 4.715174,-6.5913 2.520623,-2.7486 3.968599,-4.9849 3.606093,-5.5694 -0.380225,-0.6131 -0.249188,-0.7572 0.351984,-0.3869 0.526739,0.3244 0.957708,1.3553 0.957708,2.2909 0,1.3606 0.373542,1.6013 1.86646,1.2025 1.026554,-0.2742 2.864374,-0.5035 4.084044,-0.5098 2.661474,-0.014 7.322105,-3.6946 7.322105,-5.7832 0,-0.8202 -0.608178,-1.724 -1.351506,-2.0082 -1.051636,-0.4022 -1.252267,-1.2542 -0.904236,-3.84012 0.688214,-5.11346 2.644629,-7.54345 5.82555,-7.23567 2.845022,0.27527 4.160886,2.79043 2.118128,4.0486 -0.790927,0.48715 -0.85504,0.94035 -0.22224,1.57099 1.715687,1.70982 4.601631,-0.39584 6.852183,-4.99953 2.039693,-4.17236 2.409417,-4.49831 5.102419,-4.49831 2.543917,0 2.903383,0.25588 2.903383,2.06676 0,1.4022 0.400097,1.98266 1.244308,1.80525 1.020528,-0.21449 0.9948,-0.008 -0.143061,1.14641 -1.829604,1.85672 -4.00463,0.94119 -4.00463,-1.68566 0,-1.49837 -0.443705,-2.0927 -1.562326,-2.0927 -1.662044,0 -2.554862,2.10096 -2.574036,6.05716 -0.01235,2.54861 -3.95943,7.17002 -6.123788,7.17002 -0.694569,0 -1.754867,-1.023 -2.356219,-2.2734 -1.266504,-2.63343 -2.182518,-2.85286 -3.463163,-0.82956 -0.677028,1.06966 -0.646709,1.87026 0.116977,3.08896 2.573323,4.1064 -0.376711,9.9246 -5.043488,9.947 -3.147224,0.016 -5.140964,1.1032 -4.352187,2.3751 0.960177,1.5483 3.199499,1.1038 2.658004,-0.5276 -0.43655,-1.3153 -0.39335,-1.323 0.475236,-0.085 0.875627,1.2477 1.149253,1.2187 3.275713,-0.3481 1.987291,-1.4643 2.633963,-1.5672 4.506086,-0.7172 3.217269,1.461 5.023413,-0.1769 2.72315,-2.4692 -0.910016,-0.9069 -1.534485,-2.2771 -1.387712,-3.0448 0.415756,-2.1747 3.623592,-2.1866 5.147044,-0.019 l 1.324405,1.8844 0,-2.2508 c 0,-1.6172 0.40857,-2.2323 1.451692,-2.1854 0.798429,0.036 1.01213,0.2439 0.474888,0.4623 -0.617976,0.2512 -0.806652,1.4419 -0.513615,3.2415 0.323538,1.9869 0.146514,2.8445 -0.587149,2.8445 -0.577686,0 -1.954495,0.9723 -3.059577,2.1607 -1.538337,1.6542 -2.541879,2.0544 -4.281882,1.7076 -3.332869,-0.6643 -4.626139,0.4357 -3.853383,3.2775 0.353161,1.2987 0.684238,4.4074 0.735725,6.9081 0.05765,2.8004 0.518713,4.8158 1.200317,5.2469 0.699985,0.4427 0.916412,1.4556 0.588904,2.756 -0.371468,1.4751 -0.237753,1.8837 0.473159,1.4458 0.666857,-0.4107 0.771972,-0.2573 0.321396,0.4693 -0.523315,0.8439 -0.911821,0.7496 -1.778677,-0.4319 -1.633765,-2.2267 -1.886823,-1.2929 -0.845719,3.1212 0.914552,3.8774 1.622148,4.7137 2.622847,3.1001 0.281976,-0.4547 0.11736,-0.8267 -0.365812,-0.8267 -0.483171,0 -0.878494,-0.589 -0.878494,-1.309 0,-2.1608 2.053337,-0.8023 2.332847,1.5435 0.176587,1.482 -0.340213,2.6455 -1.624103,3.6564 -1.035708,0.8155 -3.213535,2.8777 -4.839614,4.5827 -3.078944,3.2286 -4.801324,3.7882 -6.487218,2.1081 z m 3.99842,-1.9213 c 1.480311,-1.7776 0.422643,-2.4471 -1.616792,-1.0236 -0.939093,0.6555 -1.460957,1.4375 -1.159695,1.7378 0.856058,0.853 1.639,0.6517 2.776487,-0.7142 z m 4.960592,-4.9403 c 0,-0.2273 -0.186647,-0.4133 -0.41477,-0.4133 -0.228122,0 -0.414768,0.186 -0.414768,0.4133 0,0.2274 0.186646,0.4134 0.414768,0.4134 0.228123,0 0.41477,-0.186 0.41477,-0.4134 z m -15.237304,-19.1133 c 0.85246,-1.7147 2.068501,-3.279 2.702316,-3.4764 0.794078,-0.2474 0.935288,-0.01 0.454159,0.7669 -0.938438,1.5133 -1.158167,12.3158 -0.250508,12.3158 0.394792,0 0.719402,-0.6511 0.721355,-1.4468 0.0019,-0.7956 1.120232,-3.1208 2.485063,-5.1669 l 2.481512,-3.7201 0.0036,3.0463 c 0.002,1.6755 -0.360501,4.0006 -0.805454,5.1669 -1.041697,2.7305 0.242601,2.777 1.487607,0.054 0.519697,-1.1367 1.326202,-2.0667 1.792229,-2.0667 0.466028,0 0.900293,-0.651 0.965038,-1.4467 0.06474,-0.7957 0.364907,0.041 0.667028,1.8601 0.53178,3.2012 0.57085,3.1285 1.224052,-2.2811 0.92715,-7.6782 -0.08189,-9.9118 -5.165101,-11.4335 -2.938671,-0.8798 -3.95883,-1.6149 -4.155727,-2.9946 -0.224845,-1.5758 -0.62663,-1.7609 -2.903383,-1.3378 -3.201009,0.5949 -6.651657,3.6417 -8.484987,7.4919 -0.746154,1.567 -2.069898,3.5599 -2.941654,4.4287 -2.0888791,2.0817 -2.083606,6.2156 0.0093,7.332 1.374015,0.7328 1.669448,0.5096 2.137667,-1.615 0.611831,-2.7761 2.074726,-4.1701 2.074726,-1.977 0,0.7872 0.653261,2.8056 1.45169,4.4852 l 1.451692,3.054 0.523921,-3.9607 c 0.288154,-2.1785 1.221385,-5.3637 2.073844,-7.0782 z m 21.597095,-15.7459 c -0.304164,-0.3031 -0.801886,-0.3031 -1.106051,0 -0.304164,0.3031 -0.0553,0.5511 0.553026,0.5511 0.608327,0 0.857189,-0.248 0.553025,-0.5511 z m -31.139434,34.9872 c -0.509402,-0.6118 -1.164387,-2.2991 -1.455524,-3.7498 -0.291136,-1.4508 -1.4034161,-3.0649 -2.2633483,-3.848 -0.7514823,-0.6843 -0.7751058,-0.8918 -1.3079731,-0.8316 -0.633927,0.072 -0.8828322,1.6841 -0.8828322,1.6841 0,0 -0.8192251,0.3505 -0.8063354,-0.038 0.018362,-0.5539 0.8299715,-2.0941 1.193966,-2.3022 0.5423828,-0.31 1.2357109,0.096 1.8535664,0.2775 2.0985446,0.6174 4.2181176,1.9171 4.9004636,4.6265 0.69118,2.7444 2.953887,3.8591 5.71228,2.814 3.313437,-1.2555 3.580848,-0.9891 0.829849,0.8265 -2.87687,1.8988 -6.43718,2.1466 -7.774112,0.5413 z M 5.5,1037.9635 c 0,-0.2274 0.186646,-0.4134 0.414769,-0.4134 0.228123,0 0.414769,0.186 0.414769,0.4134 0,0.2273 -0.186646,0.4133 -0.414769,0.4133 -0.228123,0 -0.414769,-0.186 -0.414769,-0.4133 z m 0,-13.2273 c 0,-0.2273 0.186646,-0.4133 0.414769,-0.4133 0.228123,0 0.414769,0.186 0.414769,0.4133 0,0.2274 -0.186646,0.4134 -0.414769,0.4134 -0.228123,0 -0.414769,-0.186 -0.414769,-0.4134 z m 27.470983,-18.8074 c -0.110208,-1.6568 -2.237235,-1.9638 -2.864992,-0.4134 -0.264217,0.6526 -0.442543,0.5329 -0.483899,-0.3249 -0.07702,-1.5974 2.359208,-2.7562 3.469171,-1.65 0.42274,0.4213 0.590267,1.4565 0.372284,2.3004 -0.352541,1.365 -0.40697,1.3747 -0.492564,0.088 z m -13.576221,-0.6862 c -1.75986,-1.0215 -1.934654,-4.0673 -0.233419,-4.0673 0.746657,0 1.03186,0.4841 0.736733,1.2506 -0.264847,0.6878 -0.02077,1.8038 0.542376,2.48 1.190035,1.429 0.962473,1.5022 -1.04569,0.3367 z"
       id="path4999"
       inkscape:connector-curvature="0"
       sodipodi:nodetypes="cscsccssccsssssscsccsccscsssssssccssssssccscccccsscsccsscssscccscscsssscccsccsssssscccscsccscsscscccscccsccsccssssccsscsssscccssssssssssccssccccsccc" />
  </g>
</svg>
