<?xml version="1.0" encoding="UTF-8" standalone="no"?>
<!-- Created with Inkscape (http://www.inkscape.org/) -->

<svg
   xmlns:dc="http://purl.org/dc/elements/1.1/"
   xmlns:cc="http://creativecommons.org/ns#"
   xmlns:rdf="http://www.w3.org/1999/02/22-rdf-syntax-ns#"
   xmlns:svg="http://www.w3.org/2000/svg"
   xmlns="http://www.w3.org/2000/svg"
   xmlns:sodipodi="http://sodipodi.sourceforge.net/DTD/sodipodi-0.dtd"
   xmlns:inkscape="http://www.inkscape.org/namespaces/inkscape"
   width="64"
   height="64"
   viewBox="0 0 64.000001 64.000001"
   id="svg4559"
   version="1.1"
   inkscape:version="0.91 r13725"
   inkscape:export-filename="/home/maym/download/descent images maym/13_Guardians_of_Deephall.png"
   inkscape:export-xdpi="90"
   inkscape:export-ydpi="90"
   sodipodi:docname="13_Guardians_of_Deephall.svg">
  <defs
     id="defs4561" />
  <sodipodi:namedview
     id="base"
     pagecolor="#ffffff"
     bordercolor="#666666"
     borderopacity="1.0"
     inkscape:pageopacity="0.0"
     inkscape:pageshadow="2"
     inkscape:zoom="0.175"
     inkscape:cx="1240.5858"
     inkscape:cy="1025.3247"
     inkscape:document-units="px"
     inkscape:current-layer="layer1"
     showgrid="false"
     units="px"
     inkscape:window-width="1920"
     inkscape:window-height="983"
     inkscape:window-x="0"
     inkscape:window-y="37"
     inkscape:window-maximized="1" />
  <metadata
     id="metadata4564">
    <rdf:RDF>
      <cc:Work
         rdf:about="">
        <dc:format>image/svg+xml</dc:format>
        <dc:type
           rdf:resource="http://purl.org/dc/dcmitype/StillImage" />
        <dc:title />
      </cc:Work>
    </rdf:RDF>
  </metadata>
  <g
     inkscape:label="Layer 1"
     inkscape:groupmode="layer"
     id="layer1"
     transform="translate(0,-988.36216)">
    <path
       style="fill:#000000"
       d="m 54.179706,1050.2245 c -1.485095,-1.2344 -1.962939,-2.1528 -1.130951,-2.1737 0.997144,-0.025 0.745604,-0.918 -0.817004,-2.8999 -1.24176,-1.5752 -2.257738,-3.2278 -2.257738,-3.6729 0,-1.7913 -16.584861,-25.0373 -18.649436,-26.1396 -2.468247,-1.318 -5.316008,-0.6596 -5.316008,1.2289 0,0.6751 2.618226,5.4592 5.818278,10.6313 3.200053,5.1721 6.462765,10.6145 7.250466,12.0943 1.374757,2.5826 1.344982,2.6262 -0.742747,1.0869 -8.098831,-5.9716 -11.801177,-8.4092 -20.496034,-13.4947 l -9.8040445,-5.7342 -1.2639592,-6.2713 c -0.6951794,-3.4493 -1.4304828,-11.1381 -1.6340075,-17.08649 -0.3101951,-9.06597 -0.1427396,-10.49373 1.0353798,-8.82754 6.5247004,9.22775 9.3056844,12.31313 11.0984454,12.31313 2.630219,0 3.661762,-3.2344 2.229936,-6.99199 -1.431331,-3.75615 -1.417545,-3.87691 0.442743,-3.87691 0.857914,0 2.606992,1.46729 3.886868,3.26064 2.522339,3.53442 4.357354,4.22097 4.357354,1.63045 0,-2.47471 3.045027,-1.95168 6.040876,1.03737 2.968653,2.96199 3.844965,6.17634 1.053693,3.86504 -0.891079,-0.73784 -2.283446,-1.08758 -3.094156,-0.77721 -3.366758,1.28901 -0.12554,8.16441 13.623289,28.89831 12.627876,19.0433 15.109365,24.0378 11.943299,24.0378 -0.551567,0 -2.160109,-0.962 -3.574542,-2.1377 z M 27.011899,1022.125 c -3.755155,-6.0272 -3.374492,-8.6158 1.338228,-9.1003 l 3.245478,-0.3337 -4.72463,-7.3116 c -4.395214,-6.80168 -4.798874,-7.14272 -5.789204,-4.8909 -1.578838,3.5898 -5.27736,3.6107 -8.58798,0.048 l -2.825296,-3.04017 0.1085707,7.05367 c 0.1485616,9.6509 0.7699203,11.116 6.5844943,15.5259 11.300153,8.5704 15.178367,9.3163 10.650327,2.0487 z m -8.092682,-11.4684 c -1.416613,-2.1572 -1.525413,-3.1859 -0.532699,-5.0366 1.134049,-2.1142 1.46309,-2.183 3.617778,-0.7555 1.516152,1.0045 2.370266,2.6921 2.370266,4.6835 0,4.0973 -3.081423,4.7234 -5.455345,1.1086 z"
       id="path4636"
       inkscape:connector-curvature="0" />
  </g>
</svg>
