<?xml version="1.0" encoding="UTF-8" standalone="no"?>
<!-- Created with Inkscape (http://www.inkscape.org/) -->

<svg
   xmlns:dc="http://purl.org/dc/elements/1.1/"
   xmlns:cc="http://creativecommons.org/ns#"
   xmlns:rdf="http://www.w3.org/1999/02/22-rdf-syntax-ns#"
   xmlns:svg="http://www.w3.org/2000/svg"
   xmlns="http://www.w3.org/2000/svg"
   xmlns:sodipodi="http://sodipodi.sourceforge.net/DTD/sodipodi-0.dtd"
   xmlns:inkscape="http://www.inkscape.org/namespaces/inkscape"
   width="64"
   height="64"
   viewBox="0 0 64.000001 64.000001"
   id="svg3689"
   version="1.1"
   inkscape:version="0.91 r13725"
   sodipodi:docname="04_Shadow_of_Nerekhall.svg"
   inkscape:export-filename="/home/maym/download/descent images maym/04_Shadow_of_Nerekhall.png"
   inkscape:export-xdpi="90"
   inkscape:export-ydpi="90">
  <defs
     id="defs3691" />
  <sodipodi:namedview
     id="base"
     pagecolor="#ffffff"
     bordercolor="#666666"
     borderopacity="1.0"
     inkscape:pageopacity="0.0"
     inkscape:pageshadow="2"
     inkscape:zoom="7.9195959"
     inkscape:cx="9.1134698"
     inkscape:cy="20.757328"
     inkscape:document-units="px"
     inkscape:current-layer="layer1"
     showgrid="false"
     units="px"
     inkscape:window-width="1920"
     inkscape:window-height="983"
     inkscape:window-x="0"
     inkscape:window-y="37"
     inkscape:window-maximized="1" />
  <metadata
     id="metadata3694">
    <rdf:RDF>
      <cc:Work
         rdf:about="">
        <dc:format>image/svg+xml</dc:format>
        <dc:type
           rdf:resource="http://purl.org/dc/dcmitype/StillImage" />
        <dc:title></dc:title>
      </cc:Work>
    </rdf:RDF>
  </metadata>
  <g
     inkscape:label="Layer 1"
     inkscape:groupmode="layer"
     id="layer1"
     transform="translate(0,-988.36216)">
    <path
       style="fill:#000000"
       d="M 20.402906,1051.3454 C 18.45366,1050.8665 16.876831,1050.1751 15.5,1048.802 l 1.50156,-4.1692 c 0.825884,-2.2931 2.311025,-7.7685 3.300372,-12.1677 0,0 1.497176,-5.2826 1.798811,-7.9984 0.242385,-2.1823 0,-6.587 0,-6.587 l -1e-6,-6.587 c -1.754256,-1.1434 -4.06242,-1.0314 -5.109508,-2.3562 -0.528566,-0.6688 -1.058967,-1.5885 -1.060477,-2.6489 -0.0052,-3.6512 0.07758,-7.69834 0.07758,-7.69834 l 0,-9.8805 2.830728,0 2.830727,0 c -0.03243,2.34834 -0.01163,4.73683 0.01235,7.08079 l 3.761949,-0.0233 3.56303,-0.0117 c -0.04313,-2.37548 -0.04239,-4.83432 -0.04615,-7.18582 1.826641,-0.0375 3.623157,-0.0141 5.435399,-0.0354 0.01311,2.43816 0.01175,4.79467 0.01175,7.23287 l 3.774303,0 3.774302,0 0,-7.30065 c 2.144485,-0.0943 4.15534,-0.0693 6.249081,-0.1034 l 0.162568,8.34501 c 0.141023,3.45934 0.32264,9.36544 -0.372063,10.83434 -0.622277,1.3156 -2.339061,2.2585 -4.580944,3.1928 l -2.613274,1.1422 0.639901,7.2359 c 0.679102,7.6795 3.152601,17.6652 5.601317,26.2822 0.386121,1.3589 1.428353,3.9903 1.428353,3.9903 -1.392329,0.7041 -2.842195,1.8513 -4.155968,2.2459 -3.036308,0.9119 -6.918588,0.7239 -10.379332,0.6982 -3.459777,-0.026 -7.007148,9e-4 -10.446305,-0.3849 -1.077988,-0.121 -1.677552,-0.2415 -3.087157,-0.5987 z m 13.81858,-37.9355 c -0.09509,-1.6467 0.122738,-3.7811 -0.776647,-4.9167 -0.477815,-0.6033 -3.163148,-0.6445 -3.758392,0.024 -0.990944,1.1127 -0.658181,3.2468 -0.75325,4.8935 l 0.01266,4.9403 2.631494,0 2.672846,0.025 -0.02872,-4.9651 z"
       id="path3764"
       inkscape:connector-curvature="0"
       sodipodi:nodetypes="ccssaccsscccccccccccccccsccsacssscccsscccsc" />
  </g>
</svg>
