<?xml version="1.0" encoding="UTF-8" standalone="no"?>
<!-- Created with Inkscape (http://www.inkscape.org/) -->

<svg
   xmlns:dc="http://purl.org/dc/elements/1.1/"
   xmlns:cc="http://creativecommons.org/ns#"
   xmlns:rdf="http://www.w3.org/1999/02/22-rdf-syntax-ns#"
   xmlns:svg="http://www.w3.org/2000/svg"
   xmlns="http://www.w3.org/2000/svg"
   xmlns:sodipodi="http://sodipodi.sourceforge.net/DTD/sodipodi-0.dtd"
   xmlns:inkscape="http://www.inkscape.org/namespaces/inkscape"
   width="64"
   height="64"
   viewBox="0 0 64.000001 64.000001"
   id="svg5039"
   version="1.1"
   inkscape:version="0.91 r13725"
   sodipodi:docname="17_Stewards_of_the_Secret.svg"
   inkscape:export-filename="/home/maym/download/descent images maym/17_Stewards_of_the_Secret.png"
   inkscape:export-xdpi="90"
   inkscape:export-ydpi="90">
  <defs
     id="defs5041" />
  <sodipodi:namedview
     id="base"
     pagecolor="#ffffff"
     bordercolor="#666666"
     borderopacity="1.0"
     inkscape:pageopacity="0.0"
     inkscape:pageshadow="2"
     inkscape:zoom="5.6"
     inkscape:cx="30.363594"
     inkscape:cy="63.252151"
     inkscape:document-units="px"
     inkscape:current-layer="layer1"
     showgrid="false"
     units="px"
     inkscape:window-width="1920"
     inkscape:window-height="983"
     inkscape:window-x="0"
     inkscape:window-y="37"
     inkscape:window-maximized="1" />
  <metadata
     id="metadata5044">
    <rdf:RDF>
      <cc:Work
         rdf:about="">
        <dc:format>image/svg+xml</dc:format>
        <dc:type
           rdf:resource="http://purl.org/dc/dcmitype/StillImage" />
        <dc:title />
      </cc:Work>
    </rdf:RDF>
  </metadata>
  <g
     inkscape:label="Layer 1"
     inkscape:groupmode="layer"
     id="layer1"
     transform="translate(0,-988.36216)">
    <path
       style="fill:#000000"
       d="m 31.980608,1052.2822 c 0,-0.044 0.03578,-0.08 0.07957,-0.08 0.04378,0 0.07956,0.036 0.07956,0.08 0,0.044 -0.03579,0.08 -0.07956,0.08 -0.04378,0 -0.07957,-0.036 -0.07957,-0.08 z m -0.159131,-2.2289 c -0.108962,-0.1313 -0.300308,-0.2388 -0.425223,-0.2388 -0.4339,0 -1.250272,-0.516 -2.05433,-1.2984 -0.794192,-0.7729 -1.158372,-0.9248 -1.682613,-0.7016 -0.20411,0.087 -0.288643,0 -0.375675,-0.3995 -0.06177,-0.2813 -0.391908,-0.815 -0.733648,-1.1859 -0.449753,-0.4881 -0.591301,-0.7566 -0.512556,-0.9723 0.191496,-0.5245 1.011677,-1.6409 1.331187,-1.812 0.267243,-0.1431 0.347707,-0.084 0.59351,0.4355 0.232248,0.4908 0.368608,0.6009 0.744134,0.6009 0.381812,0 0.491084,0.093 0.644387,0.5466 0.272871,0.8079 0.61543,0.9607 1.110404,0.4956 0.222402,-0.2091 0.425953,-0.35 0.452331,-0.3131 0.02639,0.037 0.131653,0.262 0.233918,0.5003 0.110691,0.2581 0.360182,0.4772 0.61647,0.5416 0.346428,0.087 0.502919,0.024 0.801158,-0.323 0.348048,-0.4048 0.392209,-0.416 0.724243,-0.1833 0.511636,0.3585 0.740466,0.3084 1.046072,-0.2289 0.15914,-0.2798 0.402873,-0.477 0.590241,-0.4776 0.357333,0 2.284049,-1.9923 2.87562,-2.9718 0.88967,-1.4731 1.041103,-1.8346 0.944996,-2.256 -0.238946,-1.0477 -0.954742,-1.2725 -1.137722,-0.3572 -0.05208,0.2603 -0.229599,0.5954 -0.394607,0.7448 -0.164998,0.1494 -0.299998,0.368 -0.299998,0.4858 0,0.1332 -0.186009,0.2141 -0.492305,0.2141 -0.358473,0 -0.514924,0.087 -0.575527,0.3184 -0.05228,0.2001 -0.217065,0.3184 -0.443196,0.3184 -0.346868,0 -0.451692,0.1577 -0.789114,1.1871 -0.09476,0.2891 -0.128334,0.2786 -0.465986,-0.145 -0.200132,-0.2512 -0.442526,-0.408 -0.538654,-0.3485 -0.09616,0.059 -0.256468,0.5017 -0.356334,0.983 -0.09986,0.4812 -0.238455,0.8398 -0.307995,0.7968 -0.06957,-0.043 -0.173144,-0.4304 -0.230229,-0.861 -0.05708,-0.4305 -0.20596,-0.8676 -0.330825,-0.9713 -0.186668,-0.155 -0.31979,-0.024 -0.748762,0.7364 l -0.521721,0.9248 -0.109982,-0.6337 c -0.263105,-1.516 -0.648996,-1.8618 -1.213078,-1.0871 -0.326427,0.4483 -0.673875,0.4 -0.673875,-0.094 0,-0.9531 -1.220235,-0.6961 -2.521925,0.5312 -0.901595,0.85 -1.486438,1.9114 -2.026612,3.6776 -0.349507,1.1429 -1.001241,2.2054 -1.399886,2.2822 -0.237746,0.046 -0.267093,-0.01 -0.166687,-0.3173 0.06697,-0.205 0.11425,-1.3725 0.104944,-2.5943 -0.01929,-2.5274 0.116169,-3.0775 1.216077,-4.9402 0.580206,-0.9825 0.656602,-1.2273 0.656602,-2.1038 0,-0.829 -0.05228,-1.02 -0.31827,-1.1624 -0.175044,-0.094 -0.318271,-0.2711 -0.318271,-0.3942 0,-0.3269 -0.297999,-0.4576 -0.555666,-0.2437 -0.122906,0.1021 -0.331035,0.5527 -0.462508,1.0014 -0.215905,0.7368 -0.214156,0.8683 0.01809,1.3579 0.238476,0.5028 0.237416,0.5727 -0.01459,0.9626 -0.149415,0.2313 -0.38937,0.6533 -0.533227,0.9379 -0.489965,0.9693 -0.801098,0.6258 -1.262066,-1.393 -0.238856,-1.0461 -0.606155,-1.9073 -1.493806,-3.5025 -1.483749,-2.6664 -1.760848,-3.2635 -2.139062,-4.6093 -0.390849,-1.3907 -0.405413,-1.5697 -0.257657,-3.1651 0.08616,-0.9301 0.131282,-1.7164 0.100336,-1.7473 -0.03099,-0.031 -0.209159,0.026 -0.396027,0.1256 -0.186868,0.1 -0.533156,0.1596 -0.769513,0.1323 -0.403173,-0.047 -0.434669,-0.1087 -0.509316,-1.0049 l -0.07956,-0.9552 -0.657582,0.028 c -0.880624,0.038 -1.180933,-0.3031 -2.548713,-2.894 -2.271245,-4.3021 -2.754723,-5.699 -2.758881,-7.9711 -0.001,-0.7107 -0.1169386,-1.6705 -0.2588566,-2.1486 -0.213516,-0.7193 -0.223342,-0.9559 -0.05867,-1.4115 0.179721,-0.4972 0.166577,-0.5727 -0.143467,-0.8239 -0.187718,-0.152 -0.418197,-0.3021 -0.512166,-0.3334 -0.09396,-0.031 -0.27387,-0.944 -0.399765,-2.0282 -0.20333,-1.7509 -0.201261,-2.1315 0.01859,-3.406 0.25243,-1.4634 0.735828,-2.8126 1.007739,-2.8126 0.08486,0 0.144976,0.6103 0.13716,1.3931 -0.01199,1.2074 0.04328,1.5096 0.4155366,2.2686 0.41236,0.8408 0.668627,1.239 2.686753,4.1746 0.498322,0.7249 1.656794,2.1728 2.574382,3.2176 1.822501,2.0751 2.8741,3.8755 3.192521,5.4657 0.195814,0.978 0.544571,1.3442 1.005279,1.0556 0.41137,-0.2577 0.422845,-0.9023 0.03738,-2.1003 -0.461568,-1.4346 -1.297682,-2.996 -2.159814,-4.0333 -0.390609,-0.47 -0.918857,-1.1053 -1.173905,-1.4117 -1.291144,-1.5515 -1.355166,-1.7189 -1.047211,-2.7388 0.214676,-0.711 0.206539,-0.7873 -0.16122,-1.5124 -0.213016,-0.4201 -0.3876,-0.8175 -0.38797,-0.8832 -9.99e-4,-0.1956 0.715447,-0.1353 0.928933,0.078 0.360482,0.3607 0.497632,-0.2033 0.500171,-2.0568 0.002,-1.7486 -0.005,-1.7854 -0.430901,-2.1205 -0.327647,-0.2578 -0.560544,-0.3171 -0.954812,-0.2431 -0.63791,0.1197 -0.659131,-0.043 -0.07807,-0.6004 0.784876,-0.7523 1.638501,-0.7263 2.521335,0.077 0.338591,0.3079 0.339431,0.3076 0.708509,-0.2898 0.203241,-0.329 1.089043,-1.39554 1.968457,-2.36994 0.879415,-0.9745 1.84957,-2.11944 2.155906,-2.54444 0.698863,-0.9694 1.706662,-1.9788 3.099451,-3.1043 1.720896,-1.3906 2.164681,-1.8513 2.056189,-2.1341 -0.06247,-0.1629 -0.01179,-0.2539 0.141298,-0.2539 0.258657,0 0.431891,0.3245 0.431891,0.809 0,0.395 0.235787,0.3879 0.642888,-0.019 0.744184,-0.7445 0.840642,-1.8834 0.209108,-2.4689 -0.325897,-0.3022 -0.361091,-0.3904 -0.155721,-0.3904 0.358952,0 1.4825,0.7583 1.611903,1.0879 0.263955,0.6723 0.376225,1.9678 0.203411,2.3473 -0.307745,0.6757 0.05667,0.7784 0.763026,0.2151 0.808106,-0.6446 1.64319,-1.0675 2.961552,-1.5 1.279849,-0.4198 2.435962,-0.3256 3.799865,0.3096 1.040723,0.4847 1.589123,0.4991 3.232043,0.085 1.678794,-0.4232 3.635587,-0.4222 4.752167,0 0.994934,0.3783 1.783279,0.4041 2.406916,0.079 0.959089,-0.5004 0.983339,-0.1859 0.07207,0.9341 -0.36612,0.45 -0.771162,0.9058 -0.900096,1.0131 -0.396086,0.3293 -1.80238,0.6494 -2.885505,0.6567 -1.36961,0.01 -3.006292,0.4263 -3.90138,0.9942 -0.66118,0.4195 -1.020473,0.8499 -0.851047,1.0194 0.03598,0.036 0.686509,-0.1488 1.445646,-0.4106 1.909643,-0.6585 4.179958,-0.6456 4.991613,0.028 0.176832,0.1468 0.287724,0.1322 0.507587,-0.067 0.622557,-0.5636 2.25885,-0.9876 2.25885,-0.5852 0,0.087 -0.133561,0.1592 -0.29681,0.1592 -0.804757,0 -1.835595,1.4885 -2.012648,2.90624 -0.121316,0.9714 -0.342679,1.248 -1.668898,2.0847 -0.672785,0.42444 -2.228763,2.44494 -2.225405,2.88974 0.005,0.6909 0.195634,0.77 1.364372,0.5664 1.239237,-0.2159 2.449966,-0.978 2.795945,-1.76 0.151553,-0.3425 0.291452,-0.4478 0.528058,-0.3974 0.236237,0.05 0.450623,-0.11 0.805757,-0.603 0.576568,-0.80044 1.637483,-1.43444 2.2591,-1.35004 l 0.439708,0.06 -0.477401,0.2005 c -0.600607,0.2522 -1.147607,0.75754 -1.486859,1.37334 -0.216175,0.3924 -0.256997,0.8937 -0.228849,2.8102 0.03199,2.1786 0.01099,2.3663 -0.318531,2.8447 -0.207719,0.3015 -0.603025,0.5966 -0.961368,0.7174 -1.017115,0.3431 -0.98137,0.4779 0.233047,0.8789 0.565053,0.1865 0.665899,0.1755 1.057067,-0.1158 0.238666,-0.1777 0.61577,-0.7598 0.841611,-1.2989 0.50338,-1.2018 0.625176,-1.3363 0.625176,-0.6904 0,0.3361 0.242384,0.8568 0.73162,1.5717 0.845739,1.2358 0.863821,1.6773 0.11368,2.7746 -0.374616,0.548 -0.660621,0.7386 -1.75685,1.1707 -0.720155,0.2838 -1.418359,0.6065 -1.55156,0.7171 -0.282376,0.2345 -0.315522,0.8419 -0.07087,1.2993 0.141728,0.2649 0.004,0.6595 -0.795671,2.2864 -0.531827,1.0814 -0.966967,2.0262 -0.966967,2.0996 0,0.073 -0.139289,0.3933 -0.309544,0.7111 -0.694885,1.297 -0.974773,3.255 -0.63848,4.4664 0.192266,0.6926 0.355264,0.8255 0.857814,0.6993 0.356494,-0.09 0.368908,-0.1484 0.36377,-1.7264 -0.006,-1.8404 -0.127604,-1.4867 2.039637,-5.9323 1.151095,-2.3612 1.342201,-2.6519 2.616493,-3.9801 0.756089,-0.7881 1.610404,-1.7785 1.898488,-2.2011 0.869199,-1.2748 1.590403,-3.0145 1.767485,-4.2636 0.09026,-0.6369 0.197344,-1.1912 0.237916,-1.2318 0.235767,-0.2358 0.544201,1.2491 0.608923,2.9317 l 0.07307,1.8991 -0.70805,0.7582 c -0.765374,0.8195 -0.776169,1.0727 -0.04568,1.0727 0.551529,0 0.574199,0.1355 0.154543,0.9237 -0.172415,0.3238 -0.465037,1.126 -0.650275,1.7827 -0.874647,3.1009 -1.694698,5.4669 -2.452635,7.0765 -0.961989,2.0429 -1.313615,2.5676 -2.995718,4.4704 -0.682131,0.7716 -1.469845,1.7803 -1.750482,2.2416 -0.358233,0.5888 -0.625926,0.8535 -0.898577,0.8883 -0.348897,0.045 -0.456609,0.2636 -1.060355,2.1562 -0.369608,1.1586 -0.811454,2.2839 -0.98189,2.5007 -0.170435,0.2168 -0.675613,1.2031 -1.122618,2.1919 -2.465899,5.4547 -5.183138,9.5474 -8.662693,13.0478 -1.117221,1.124 -2.093093,2.0436 -2.16861,2.0436 -0.07547,0 -0.22646,-0.1075 -0.335413,-0.2388 z m -1.672547,-11.6217 0.272291,-0.9551 0.300808,0.5866 c 0.431821,0.842 0.61608,0.8949 1.099498,0.3156 0.231529,-0.2774 0.462737,-0.5045 0.513795,-0.5045 0.05108,0 0.142058,0.3582 0.202231,0.7959 0.06017,0.4377 0.171805,0.8344 0.248062,0.8816 0.07627,0.047 0.401934,-0.311 0.723723,-0.7959 0.321799,-0.4849 0.620758,-0.8816 0.664358,-0.8816 0.04358,0 0.170836,0.1253 0.282727,0.2784 0.191186,0.2616 0.233797,0.2559 0.70638,-0.094 0.276599,-0.2046 0.544561,-0.3303 0.595469,-0.2794 0.05088,0.051 0.009,0.37 -0.09206,0.7091 -0.101545,0.3391 -0.184629,0.6978 -0.184629,0.797 0,0.3722 0.515264,0.1581 1.240107,-0.5154 0.411989,-0.3828 0.892299,-0.7402 1.067352,-0.7941 0.311513,-0.096 0.915769,-0.9197 1.631115,-2.2234 0.417927,-0.7616 0.463987,-1.5725 0.106204,-1.8696 -0.217435,-0.1805 -0.357854,-0.091 -1.02749,0.6571 -0.426593,0.4765 -0.778729,0.92 -0.782517,0.9857 -0.004,0.066 -0.177982,0.1194 -0.387101,0.1194 -0.209108,0 -0.5467,0.1349 -0.750191,0.2997 -0.331015,0.2682 -0.407181,0.2754 -0.723063,0.068 -0.379084,-0.2485 -0.769543,-0.1344 -1.16287,0.3397 -0.287634,0.3467 -0.43465,0.3092 -0.5473,-0.1399 -0.05348,-0.2131 -0.255079,-0.4375 -0.448054,-0.4988 -0.275099,-0.087 -0.444105,0 -0.782607,0.406 l -0.431731,0.5173 -0.334203,-0.6553 c -0.404853,-0.794 -0.828287,-0.8553 -1.228292,-0.1778 -0.302108,0.5116 -0.531657,0.6197 -0.531657,0.2502 0,-0.4485 -0.50315,-0.7653 -1.069351,-0.6734 -0.451263,0.073 -0.558076,0.03 -0.671836,-0.2688 -0.07437,-0.1958 -0.257577,-0.4575 -0.407072,-0.5816 -0.236236,-0.1961 -0.334963,-0.1894 -0.754239,0.051 -0.265334,0.1524 -0.494403,0.2569 -0.509037,0.2322 -0.453671,-0.7633 -0.620228,-0.9204 -0.975962,-0.9204 -0.221003,0 -0.800589,-0.2552 -1.287976,-0.5671 -0.487386,-0.3119 -0.985218,-0.5291 -1.106295,-0.4826 -0.394357,0.1514 -0.284645,1.7365 0.166187,2.4011 0.212477,0.3133 0.409401,0.621 0.437618,0.6837 0.08066,0.1796 1.093621,0.86 1.332457,0.895 0.118448,0.017 0.357493,0.1603 0.531227,0.3176 0.335013,0.3034 0.654193,0.2289 0.654193,-0.1526 0,-0.466 0.345499,-0.2083 0.652934,0.487 0.174223,0.3941 0.383192,0.7164 0.464366,0.7164 0.08116,0 0.258697,-0.2149 0.394477,-0.4776 0.135781,-0.2627 0.27509,-0.4776 0.309565,-0.4776 0.03448,0 0.183979,0.3761 0.332214,0.8358 0.328116,1.0176 0.696575,1.6336 0.86719,1.4499 0.06967,-0.075 0.249241,-0.5662 0.399005,-1.0915 z m 3.259252,-6.4877 c -0.006,-0.8995 -0.52423,-2.7614 -0.876836,-3.1512 -0.600886,-0.6642 -1.50554,-0.083 -1.50554,0.9674 0,0.409 1.858116,2.8604 2.1682,2.8604 0.152063,0 0.217405,-0.2064 0.214176,-0.6766 z m 2.12203,-0.2388 c 1.126566,-0.9779 1.235838,-1.2541 0.88942,-2.2483 -0.417837,-1.1991 -1.387152,-0.7867 -1.823031,0.7756 -0.327916,1.1754 -0.467465,2.3881 -0.274809,2.3881 0.08456,0 0.628374,-0.4119 1.20842,-0.9154 z m 5.713026,-5.3579 c 1.013986,-0.4799 1.970736,-1.5755 2.133405,-2.443 0.129174,-0.6888 -0.06447,-0.831 -1.131874,-0.8311 -0.945715,-2e-4 -1.585155,0.2852 -1.607565,0.7172 -0.03778,0.7285 -0.07587,0.8407 -0.316402,0.9331 -0.139179,0.053 -0.458529,-0.024 -0.709659,-0.1727 -0.434809,-0.257 -0.473192,-0.2551 -0.804607,0.039 -0.586073,0.5206 -1.242465,1.513 -1.153714,1.7444 0.253459,0.6608 2.206533,0.6677 3.590416,0.013 z m -12.492765,-1.0898 c 0.367759,-0.1801 0.708,-0.43 0.756099,-0.5554 0.111541,-0.2908 -1.767446,-2.2705 -2.155006,-2.2705 -0.171265,0 -0.301947,0.1406 -0.332834,0.3582 -0.03648,0.2567 -0.175133,0.3725 -0.489375,0.4086 -0.534616,0.062 -0.717466,-0.2936 -0.451672,-0.8772 0.102305,-0.2246 0.162698,-0.4317 0.134211,-0.4602 -0.02849,-0.028 -0.818891,-0.1015 -1.756441,-0.1621 -1.812675,-0.1172 -1.791764,-0.1253 -1.706332,0.6531 0.09286,0.8461 1.270613,2.294 2.298293,2.8255 1.271663,0.6577 2.470777,0.6836 3.703057,0.08 z"
       id="path3467"
       inkscape:connector-curvature="0" />
  </g>
</svg>
