<?xml version="1.0" encoding="UTF-8" standalone="no"?>
<!-- Created with Inkscape (http://www.inkscape.org/) -->

<svg
   xmlns:dc="http://purl.org/dc/elements/1.1/"
   xmlns:cc="http://creativecommons.org/ns#"
   xmlns:rdf="http://www.w3.org/1999/02/22-rdf-syntax-ns#"
   xmlns:svg="http://www.w3.org/2000/svg"
   xmlns="http://www.w3.org/2000/svg"
   xmlns:sodipodi="http://sodipodi.sourceforge.net/DTD/sodipodi-0.dtd"
   xmlns:inkscape="http://www.inkscape.org/namespaces/inkscape"
   width="64"
   height="64"
   viewBox="0 0 64.000001 64.000001"
   id="svg2"
   version="1.1"
   inkscape:version="0.91 r13725"
   sodipodi:docname="19_The_Chains_that_Rust.svg">
  <defs
     id="defs4" />
  <sodipodi:namedview
     id="base"
     pagecolor="#ffffff"
     bordercolor="#666666"
     borderopacity="1.0"
     inkscape:pageopacity="0.0"
     inkscape:pageshadow="2"
     inkscape:zoom="3.959798"
     inkscape:cx="57.855384"
     inkscape:cy="-5.8185433"
     inkscape:document-units="px"
     inkscape:current-layer="layer1"
     showgrid="false"
     units="px"
     inkscape:window-width="1920"
     inkscape:window-height="983"
     inkscape:window-x="0"
     inkscape:window-y="37"
     inkscape:window-maximized="1" />
  <metadata
     id="metadata7">
    <rdf:RDF>
      <cc:Work
         rdf:about="">
        <dc:format>image/svg+xml</dc:format>
        <dc:type
           rdf:resource="http://purl.org/dc/dcmitype/StillImage" />
        <dc:title></dc:title>
      </cc:Work>
    </rdf:RDF>
  </metadata>
  <g
     inkscape:label="Layer 1"
     inkscape:groupmode="layer"
     id="layer1"
     transform="translate(0,-988.36216)">
    <path
       style="fill:#000000"
       d="m 22.546122,1037.1172 c -0.47761,-0.4098 -0.89546,-0.8153 -0.92855,-0.9014 -0.0656,-0.1704 0.88054,-2.1341 1.02753,-2.1325 0.0497,0 0.21959,0.2338 0.37753,0.5183 0.60738,1.0939 1.60878,3.0594 1.60878,3.1577 0,0.057 -0.2738,0.1029 -0.60845,0.1029 -0.56859,0 -0.66534,-0.049 -1.47684,-0.745 z m 13.30237,-0.1488 c -0.0934,-0.2426 -0.26562,-1.9268 -0.22031,-2.1545 0.096,-0.4822 0.50926,-0.4195 1.45687,0.2213 l 0.64985,0.4395 -0.52753,0.4841 c -0.29015,0.2664 -0.69912,0.6427 -0.90883,0.8363 -0.29891,0.2759 -0.39614,0.3134 -0.45005,0.1733 z m 5.20133,-0.601 c -0.32663,-0.3466 -1.49529,-2.2955 -1.4954,-2.4937 -5e-5,-0.082 0.23384,-0.2045 0.51976,-0.2737 0.28592,-0.07 1.01263,-0.2624 1.61491,-0.4292 0.84147,-0.2331 1.11721,-0.2686 1.19073,-0.1531 0.0526,0.083 0.0953,0.6439 0.0948,1.2475 -9.8e-4,1.2459 -0.0623,1.3686 -0.99599,1.9942 -0.31486,0.2109 -0.59425,0.3835 -0.62086,0.3835 -0.0266,0 -0.1652,-0.124 -0.30799,-0.2755 z m -12.5042,-1.2732 c -1.6478,-0.142 -3.19899,-0.7672 -3.91212,-1.5768 -0.22301,-0.2532 -0.54182,-0.7573 -0.70848,-1.1201 -0.56558,-1.2315 -0.21468,-2.8251 0.94872,-4.3084 1.73073,-2.2067 3.30852,-3.1448 6.43105,-3.8239 1.75156,-0.3809 3.67663,-0.5024 4.99673,-0.3153 2.10702,0.2986 2.94184,1.3897 2.14491,2.8031 -0.31758,0.5633 -1.37291,1.3549 -1.80628,1.3549 -0.68517,0 -1.14871,-0.6322 -1.09415,-1.4923 l 0.033,-0.5196 -0.61159,0.039 c -0.9004,0.058 -3.59951,0.6977 -4.63518,1.0987 -2.43919,0.9441 -4.47759,2.69 -4.47759,3.8351 0,0.6468 0.97764,1.1485 2.55682,1.3123 1.34535,0.1396 2.34916,-0.016 3.62532,-0.5611 1.41628,-0.6052 2.0098,-0.5354 2.20999,0.2597 0.20552,0.8163 -0.4378,1.7473 -1.54227,2.2321 -1.13917,0.5 -3.11712,0.8721 -4.15884,0.7823 z m -13.02697,-2.2293 c -1.42984,-0.2012 -3.93272,-1.1811 -5.97585,-2.3395 -1.01842,-0.5774 -2.76995,-1.8745 -2.76995,-2.0513 0,-0.04 -0.26478,-0.3582 -0.58841,-0.7072 -0.54348,-0.5863 -0.63094,-0.6347 -1.14559,-0.6347 -1.28394,0 -3.12386,-1.3613 -3.93263,-2.9096 -0.78327003,-1.4995 -1.10074003,-2.5366 -1.106130026638,-3.6137 -0.0050000034,-1.0625 0.192449996638,-1.5984 0.938709996638,-2.5436 0.33445003,-0.4236 0.35487003,-0.4969 0.20398003,-0.7316 -0.54325003,-0.8451 -0.85361003,-1.5793 -0.98352003,-2.3263 -0.1338,-0.7695 -0.12083,-0.9572 0.14316,-2.072 0.18999,-0.8022 0.41762,-1.4157 0.65877,-1.7754 0.42318003,-0.6312 1.32503003,-1.2776 2.05636003,-1.4738 0.59729,-0.1604 2.18549,-0.09 3.1837,0.1424 0.66761,0.155 0.76057,0.1477 1.46783,-0.1141 2.12133,-0.7858 5.30684,-1.8476 5.54293,-1.8476 0.14746,0 0.52278,-0.1087 0.83407,-0.2418 0.4441,-0.1897 0.60565,-0.3407 0.75027,-0.7011 0.34782,-0.8667 0.5986,-1.2587 1.14928,-1.7962 1.65523,-1.6157 3.96631,-2.2711 7.98836,-2.2656 3.32232,0 5.36659,0.3791 7.02212,1.2863 0.81918,0.4487 0.82746,0.4504 1.86661,0.3686 0.57407,-0.045 1.58009,-0.1605 2.23558,-0.2561 1.49233,-0.2177 3.34907,-0.2176 6.63966,4e-4 2.8372,0.188 3.53161,0.3481 4.78896,1.104 0.39179,0.2355 1.07012,0.5432 1.50741,0.6837 1.12668,0.362 3.52576,1.2434 4.46465,1.6403 2.50147,1.0574 2.98025,1.1462 4.77946,0.8869 2.00644,-0.2892 3.8392,0.3541 5.37138,1.8852 0.67189,0.6715 0.94366,1.0481 1.14468,1.5862 0.51653,1.3827 0.21991,2.6415 -0.90879,3.8567 -0.36431,0.3923 -0.66238,0.7953 -0.66238,0.8956 0,0.1003 0.19324,0.5022 0.42942,0.8931 0.23619,0.391 0.48357,0.9052 0.54976,1.1427 0.2071,0.7432 0.14577,2.2138 -0.12506,2.9985 -0.32173,0.9321 -1.12378,2.1498 -1.68953,2.5648 -0.24692,0.1813 -0.80672,0.6959 -1.24401,1.1439 -0.89778,0.9195 -3.63345,2.7846 -5.1094,3.4833 -2.72985,1.2924 -4.92529,1.8443 -6.48621,1.6309 -1.17624,-0.1608 -1.59931,-0.396 -1.96009,-1.0892 -0.23508,-0.4517 -0.2724,-0.6662 -0.21629,-1.2436 0.10072,-1.0365 0.49038,-1.7503 1.48941,-2.7285 0.87614,-0.8578 3.63588,-3.0085 4.17432,-3.253 0.35865,-0.163 0.35417,-0.4633 -0.0156,-1.0472 -0.84813,-1.3392 -0.88676,-2.8419 -0.12337,-4.7991 l 0.22471,-0.576 -0.40814,-1.2338 c -0.41103,-1.2425 -0.41649,-1.3087 -0.2252,-2.7326 0.0282,-0.2096 -0.32979,-0.3759 -2.71976,-1.2646 -1.5137,-0.5628 -3.1281,-1.1736 -3.58757,-1.3572 -0.80437,-0.3214 -0.86341,-0.3278 -1.59014,-0.1724 -0.41512,0.089 -1.02998,0.1638 -1.36636,0.1666 -0.33637,0 -1.24459,0.1146 -2.01826,0.2485 -1.59063,0.2752 -4.16261,0.3363 -5.62667,0.1335 -1.49192,-0.2066 -1.50356,-0.204 -2.35002,0.5544 -1.97944,1.7735 -3.28925,2.2254 -7.39004,2.5496 -2.06914,0.1637 -5.80208,-0.6028 -7.72742,-1.5868 l -1.13066,-0.5778 -1.6179,0.5517 c -2.07254,0.7066 -3.66214,1.2859 -3.7389,1.3624 -0.0331,0.033 0.16728,0.5402 0.44532,1.1271 0.5493,1.1593 0.66019,1.9088 0.47526,3.2123 l -0.0968,0.6822 0.77691,0.9113 c 1.08482,1.2725 1.36046,1.9472 1.36154,3.3331 7.3e-4,0.8932 -0.0491,1.1929 -0.2673,1.6108 -0.14747,0.2823 -0.26814,0.6148 -0.26814,0.7389 0,0.1494 0.44369,0.5302 1.31493,1.1286 2.11733,1.4541 3.87435,3.1984 4.51179,4.4791 0.54271,1.0905 0.31401,2.1963 -0.59395,2.872 -0.37283,0.2774 -1.57619,0.3691 -2.72523,0.2074 z m 0.7587,-2.5144 c 0.0684,-0.2048 -3.14449,-3.1269 -4.02346,-3.6594 -0.52109,-0.3157 -0.91082,-0.4654 -1.19988,-0.4609 -0.4607,0.01 -1.84681,0.6275 -1.9237,0.861 -0.0819,0.2486 1.89824,1.6311 3.23962,2.2618 1.19877,0.5637 3.28497,1.2187 3.68902,1.1582 0.0953,-0.014 0.19362,-0.087 0.2184,-0.1607 z m 35.32174,-2.4858 c 0.53619,-0.1442 1.3823,-0.4498 1.88024,-0.6792 1.202,-0.5535 3.19965,-1.8785 3.19965,-2.1222 0,-0.1219 -0.4285,-0.405 -1.1653,-0.7698 l -1.1653,-0.577 -0.45542,0.2318 c -0.94453,0.4809 -3.73936,2.7054 -4.53791,3.612 -0.53376,0.606 -0.38634,0.7782 0.56248,0.6569 0.38866,-0.05 1.14537,-0.2083 1.68156,-0.3525 z m -46.90566,-4.2358 c 0.71833,-1.3537 1.94175,-1.5476 4.74863,-0.7525 0.69439,0.1967 1.31442,0.3257 1.37783,0.2866 0.21904,-0.135 0.60108,-1.0215 0.60108,-1.3949 0,-0.2059 -0.0757,-0.555 -0.16818,-0.7757 -0.20996,-0.5009 -0.90158,-1.298 -1.12627,-1.298 -0.0925,0 -0.57816,0.1372 -1.07918,0.3048 -1.54103,0.5157 -3.0252,0.3697 -4.89935,-0.4816 -0.52412,-0.2381 -1.01903,-0.4329 -1.09982,-0.4329 -0.21075,0 -0.63879,0.4872 -0.80351,0.9145 -0.22334,0.5794 -0.17169,1.0324 0.2386,2.093 0.30311,0.7835 0.50869,1.1072 0.98555,1.5518 0.33139,0.309 0.6737,0.5617 0.76068,0.5615 0.087,0 0.29575,-0.2597 0.46394,-0.5766 z m 51.23126,-2.9495 c 1.59816,-0.3993 2.77437,-0.5388 3.72443,-0.4419 1.62538,0.1658 1.49696,0.2034 1.47637,-0.4322 -0.0198,-0.6122 -0.35676,-1.3784 -0.77005,-1.7509 -0.23436,-0.2113 -0.30745,-0.2203 -0.6552,-0.081 -0.76486,0.3069 -1.26686,0.3737 -2.82997,0.3765 -1.06334,0 -1.8425,-0.062 -2.37556,-0.1954 -0.75413,-0.1885 -0.80124,-0.1873 -0.95578,0.023 -0.37281,0.5083 -0.0833,1.6339 0.60155,2.3393 0.4497,0.4632 0.5443,0.4718 1.78421,0.162 z m -51.53706,-4.643 c 1.10275,-0.2811 2.84049,-0.3236 4.06224,-0.1 0.6276,0.1154 0.80727,0.1135 0.88337,-0.01 0.11063,-0.1785 -0.0423,-1.1099 -0.24764,-1.5089 -0.22632,-0.4395 -0.87518,-1.0651 -1.10473,-1.0651 -0.1165,0 -0.72494,0.1371 -1.35209,0.3046 -0.62716,0.1674 -1.34846,0.3046 -1.60291,0.3048 -1.12432,0 -1.75993,-0.6518 -1.60942,-1.6524 0.0517,-0.3438 0.0354,-0.5421 -0.0446,-0.5421 -0.53944,0 -0.99074,0.7063 -1.20002,1.8781 -0.14871,0.8326 -0.14298,0.8895 0.15139,1.5026 0.2719,0.5663 0.78191,1.1307 1.02167,1.1307 0.0474,0 0.51669,-0.1097 1.04278,-0.2438 z m 56.65383,-1.2873 c 0.50147,-0.3813 0.89723,-1.1214 0.89723,-1.678 0,-0.469 -0.52764,-1.2184 -1.21159,-1.7208 -0.65732,-0.483 -2.35543,-0.9429 -2.51726,-0.682 -0.0431,0.07 -0.01,0.3159 0.0744,0.5476 0.2257,0.6222 0.0296,1.2663 -0.49191,1.6157 -0.49629,0.3325 -1.26254,0.366 -2.17738,0.096 -1.11999,-0.3316 -1.89194,-0.4394 -2.07291,-0.2898 -0.24239,0.2006 -0.2052,1.007 0.0616,1.3355 l 0.22726,0.2798 1.16538,-0.2187 c 0.80215,-0.1506 1.3699,-0.1912 1.82157,-0.1306 0.78956,0.1058 2.32771,0.5865 2.9191,0.9121 0.57396,0.3159 0.81842,0.3035 1.30451,-0.066 z m -33.06698,-4.6719 c 0.98524,-0.2616 2.173,-0.8247 2.24994,-1.0665 0.0239,-0.075 -0.24101,-0.3186 -0.5887,-0.541 -1.09905,-0.7029 -1.39146,-1.6114 -0.78326,-2.433 0.26052,-0.3521 0.28142,-0.44 0.13844,-0.5825 -0.52674,-0.5251 -6.00159,-0.8906 -8.02905,-0.536 -1.22113,0.2135 -2.36574,0.5776 -2.9153,0.9273 -0.55504,0.353 -1.06921,0.8947 -0.95628,1.0073 0.0464,0.046 0.42064,0.1236 0.83164,0.1719 0.93188,0.1095 1.26075,0.3917 1.26075,1.0817 0,0.3586 -0.0853,0.5708 -0.3336,0.8291 -0.18347,0.1908 -0.33359,0.4081 -0.33359,0.4827 0,0.075 0.23393,0.2167 0.51985,0.3157 0.46466,0.1609 1.05778,0.2625 3.39435,0.5811 1.30018,0.1773 4.49843,0.04 5.54481,-0.2378 z m 12.35203,-2.6967 c 0.52561,-0.065 1.00724,-0.15 1.07029,-0.1889 0.17632,-0.1086 0.1364,-0.4587 -0.0889,-0.7792 l -0.20349,-0.2896 -2.51811,0.084 c -5.24656,0.1753 -5.46561,0.2156 -5.10364,0.9415 0.13712,0.275 0.22301,0.2954 1.48784,0.3528 1.77014,0.081 4.16777,0.026 5.35596,-0.1207 z m -2.293,24.2607 c -0.0407,-0.1021 -0.14623,-0.638 -0.23451,-1.1911 -0.20113,-1.2599 -0.11337,-1.3873 0.75392,-1.0936 0.31531,0.1068 0.72508,0.2272 0.91061,0.2678 l 0.33733,0.074 -0.64313,0.7797 c -0.35371,0.429 -0.73471,0.9079 -0.84666,1.0644 -0.16534,0.2311 -0.21744,0.2498 -0.27756,0.1 z m 2.37705,-0.2275 c 0,-0.1679 1.6521,-1.1055 2.1039,-1.194 l 0.40364,-0.079 -0.69004,0.6906 c -0.63958,0.6401 -0.73126,0.6905 -1.25377,0.6905 -0.31005,0 -0.56373,-0.049 -0.56373,-0.108 z m 0.85758,-4.9216 c 7.3e-4,-0.1509 0.0355,-0.4802 0.0772,-0.7317 0.0606,-0.3652 0.1294,-0.4572 0.34223,-0.4572 0.14653,0 0.37326,-0.081 0.50385,-0.179 0.43912,-0.3311 0.57328,-0.2382 0.47863,0.3314 -0.12087,0.7274 -0.24845,0.9193 -0.74981,1.1281 -0.5815,0.2422 -0.65365,0.2321 -0.65206,-0.092 z"
       id="path3401"
       inkscape:connector-curvature="0" />
  </g>
</svg>
