<?xml version="1.0" encoding="UTF-8" standalone="no"?>
<!-- Created with Inkscape (http://www.inkscape.org/) -->

<svg
   xmlns:dc="http://purl.org/dc/elements/1.1/"
   xmlns:cc="http://creativecommons.org/ns#"
   xmlns:rdf="http://www.w3.org/1999/02/22-rdf-syntax-ns#"
   xmlns:svg="http://www.w3.org/2000/svg"
   xmlns="http://www.w3.org/2000/svg"
   xmlns:sodipodi="http://sodipodi.sourceforge.net/DTD/sodipodi-0.dtd"
   xmlns:inkscape="http://www.inkscape.org/namespaces/inkscape"
   width="64"
   height="64"
   viewBox="0 0 64.000001 64.000001"
   id="svg4657"
   version="1.1"
   inkscape:version="0.91 r13725"
   sodipodi:docname="14_Visions_of_Dawn.svg"
   inkscape:export-filename="/home/maym/download/descent images maym/14_Visions_of_Dawn.png"
   inkscape:export-xdpi="90"
   inkscape:export-ydpi="90">
  <defs
     id="defs4659" />
  <sodipodi:namedview
     id="base"
     pagecolor="#ffffff"
     bordercolor="#666666"
     borderopacity="1.0"
     inkscape:pageopacity="0.0"
     inkscape:pageshadow="2"
     inkscape:zoom="8"
     inkscape:cx="46.329081"
     inkscape:cy="27.75004"
     inkscape:document-units="px"
     inkscape:current-layer="layer1"
     showgrid="false"
     units="px"
     inkscape:window-width="1920"
     inkscape:window-height="983"
     inkscape:window-x="0"
     inkscape:window-y="37"
     inkscape:window-maximized="1" />
  <metadata
     id="metadata4662">
    <rdf:RDF>
      <cc:Work
         rdf:about="">
        <dc:format>image/svg+xml</dc:format>
        <dc:type
           rdf:resource="http://purl.org/dc/dcmitype/StillImage" />
        <dc:title></dc:title>
      </cc:Work>
    </rdf:RDF>
  </metadata>
  <g
     inkscape:label="Layer 1"
     inkscape:groupmode="layer"
     id="layer1"
     transform="translate(0,-988.36214)">
    <path
       style="fill:#000000"
       d="m 28.809503,1047.4723 c -1.163929,-2.8001 -2.586042,-3.9776 -6.549778,-5.4229 -2.784674,-1.0154 -6.901881,-1.78 -9.14935,-1.6989 -1.248563,0.045 -3.1905176,0.9726 -3.7231215,0.4343 -0.4655985,-0.4707 0.069618,-2.606 0.3077238,-3.8818 0.4366447,-2.3395 0.1075962,-4.6695 -0.9423546,-6.6728 -0.8872944,-1.6929 -1.8910123,-4.7678 -2.2304844,-6.8328 -0.4428642,-2.6943 -1.5068465,-4.2682 -3.7664975,-5.5718 -4.008067,-2.3122 -3.59747235,-5.2056 0.9290568,-6.5468 2.2496698,-0.6665 3.8212747,-2.0529 4.6746409,-4.1238 0.7070659,-1.716 2.3562765,-4.3989 3.6649135,-5.9622 1.328427,-1.58697 2.529491,-4.65484 2.719293,-6.94587 0.416307,-5.02507 1.70888,-5.57952 5.682574,-2.4376 2.467836,1.95128 4.101972,2.35016 8.461172,2.06576 2.971451,-0.1939 7.346653,0.17358 9.722691,0.81673 3.92696,1.06292 4.684513,0.92071 8.325231,-1.56267 3.715772,-2.53473 4.059316,-2.59373 4.754718,-0.81687 0.412258,1.05347 0.50404,3.4113 0.203957,5.23962 -0.762389,4.6452 4.626412,14.0317 9.154326,15.9454 4.201745,1.7757 3.893608,4.5243 -0.77009,6.8685 -1.871293,0.9406 -3.161554,1.9522 -2.867247,2.2481 0.294308,0.2958 -0.171555,2.6328 -1.035259,5.1933 -1.117733,3.3135 -1.307238,5.8257 -0.65747,8.7155 0.304298,1.3535 1.637117,3.3663 0.912883,4.0603 -0.663938,0.6363 -2.578868,-0.4195 -3.868308,-0.6292 -5.52988,-0.8995 -15.548885,3.3836 -18.211987,7.7854 -2.563759,4.2378 -3.894536,4.1758 -5.741233,-0.2669 z m 4.764332,-4.3889 c 0,-0.8763 -0.685128,-1.5932 -1.522524,-1.5932 -1.765187,0 -2.956775,1.516 -1.970718,2.5072 1.262791,1.2693 3.493242,0.6857 3.493242,-0.914 z m -18.148714,-7.257 c 0.230342,-1.1938 -0.37196,-1.7707 -1.849034,-1.7707 -1.20486,0 -2.190655,0.6373 -2.190655,1.4161 0,3.2529 3.422535,3.5533 4.039689,0.3546 z m 21.833011,-1.4642 c 1.169822,-1.876 2.924515,-3.4293 3.899302,-3.4518 2.57497,-0.059 6.440179,-5.3158 5.10135,-6.9375 -1.723429,-1.9767 -4.018838,-10.8666 -3.846672,-12.0175 0.07255,-0.4848 2.146124,6.9539 3.250426,8.9083 0.31781,0.5624 0.657305,-1.4136 0.720019,-1.5944 3.815561,-11.002 -5.283036,-21.55668 -17.197824,-19.95027 -9.265774,1.24927 -15.138192,9.89507 -12.814114,19.09897 0.08066,0.3195 0.315913,4.0366 0.852691,3.3341 1.150993,-1.5061 3.159405,-8.4526 3.227943,-8.0903 0.115767,0.612 -1.965948,7.9759 -3.451567,10.4372 -0.928465,2.4321 2.598569,6.7704 5.504308,6.7704 1.74113,0 2.617114,0.5942 2.617114,1.7751 0,1.8148 2.777848,5.3865 4.161888,5.452 0.271802,0.013 0.452726,-2.8668 0.393134,-3.0097 -0.03322,-0.079 -0.899487,0.093 -1.768287,0 -0.893805,-0.1005 -1.790252,-0.4717 -1.784899,-0.5839 0.0023,-0.047 0.892268,0.3298 1.799457,0.4425 0.887935,0.1097 1.793457,-0.043 1.79847,-0.034 0.02372,0.045 2.206526,0.035 2.216516,0.099 0.01468,0.091 -2.13321,0 -2.166293,0.084 -0.03428,0.09 0.06997,3.05 0.577779,2.9999 0.544227,-0.054 1.230459,-0.028 1.995184,-0.051 0.278201,-0.012 0.166801,-2.791 0.106951,-2.9367 -0.05236,-0.1271 -1.907687,0.021 -1.909976,-0.1049 -0.0012,-0.095 1.473815,0 1.975297,-0.012 0.512141,-0.012 0.949863,0.028 1.947426,-0.1582 1.102282,-0.2061 2.262806,-0.628 2.264427,-0.6033 0.0047,0.074 -1.156228,0.5502 -2.222821,0.7471 -0.970667,0.1793 -1.854024,0.082 -1.883796,0.122 -0.05917,0.078 0.137639,2.8617 0.322108,2.8837 2.889482,0.3445 3.582841,-2.4436 4.314436,-3.6168 z m -7.91066,-5.4915 c 0,-1.1683 0.475466,-2.4195 1.056591,-2.7806 0.581125,-0.3611 1.056591,0.2994 1.056591,1.4678 0,1.1682 -0.475466,2.4195 -1.056591,2.7805 -0.581125,0.3611 -1.056591,-0.2994 -1.056591,-1.4677 z m 3.185962,-0.922 c 0.01256,-2.276 0.242276,-2.5691 1.040401,-1.3276 1.335965,2.078 1.335965,4.2483 0,4.2483 -0.581125,0 -1.0493,-1.3142 -1.040401,-2.9207 z m -12.24632,-3.9224 c -0.841609,-3.3707 0.137339,-4.8398 3.225053,-4.8398 5.757505,0 7.445174,2.4547 3.903082,5.6768 -2.913268,2.6503 -6.358432,2.2457 -7.128135,-0.837 z m 15.394186,0.465 c -2.950319,-2.9657 -1.111792,-5.5569 3.613799,-5.0934 2.846878,0.2792 3.259758,0.7232 3.259758,3.5059 0,4.0626 -3.587055,4.891 -6.873557,1.5875 z m 17.308613,11.1174 c 0.361331,-0.9466 -0.06527,-1.8991 -1.014562,-2.2652 -1.973042,-0.7611 -4.132033,1.1268 -3.13784,2.7438 1.036809,1.6864 3.431291,1.4104 4.152402,-0.4786 z m 5.413819,-18.6202 c 0,-0.8196 -0.832065,-1.6512 -1.849034,-1.848 -1.821293,-0.3527 -2.574219,1.901 -1.122628,3.3601 1.107519,1.1134 2.971662,0.1647 2.971662,-1.5121 z m -48.7352598,-0.7734 c 0.9304728,-1.5134 -1.1927608,-3.7287 -2.9310629,-3.0582 -2.3874785,0.921 -2.1129035,3.9055 0.359302,3.9055 1.1279541,0 2.2852463,-0.3814 2.5717609,-0.8473 z M 48.584974,996.67804 c -1.732645,-1.7417 -3.922805,0.45988 -2.961812,2.97719 0.660886,1.73107 0.823507,1.73627 2.47234,0.079 1.378523,-1.38569 1.485696,-2.05477 0.489472,-3.05608 z m -27.690224,0.20474 c 0,-1.4161 -0.704394,-2.12416 -2.113182,-2.12416 -2.036251,0 -2.863252,2.07826 -1.408788,3.54026 1.454466,1.46205 3.52197,0.63075 3.52197,-1.4161 z"
       id="path4734"
       inkscape:connector-curvature="0"
       sodipodi:nodetypes="scssscsccccscccsssccssssssssssssssssccssssssscsssssssssscssssssssscscscscsscsscsscsscsccscssccsccscccsssss" />
  </g>
</svg>
