<?xml version="1.0" encoding="UTF-8" standalone="no"?>
<svg
   xmlns:dc="http://purl.org/dc/elements/1.1/"
   xmlns:cc="http://creativecommons.org/ns#"
   xmlns:rdf="http://www.w3.org/1999/02/22-rdf-syntax-ns#"
   xmlns:svg="http://www.w3.org/2000/svg"
   xmlns="http://www.w3.org/2000/svg"
   width="16.933334mm"
   height="7.4083343mm"
   viewBox="0 0 16.933334 7.4083345"
   version="1.1"
   id="svg8">
  <defs
     id="defs2" />
  <metadata
     id="metadata5">
    <rdf:RDF>
      <cc:Work
         rdf:about="">
        <dc:format>image/svg+xml</dc:format>
        <dc:type
           rdf:resource="http://purl.org/dc/dcmitype/StillImage" />
        <dc:title></dc:title>
      </cc:Work>
    </rdf:RDF>
  </metadata>
  <g
     id="layer1"
     transform="matrix(0.26458335,0,0,0.26458335,1.1531108e-4,-71.172827)">
    <g
       id="g4505"
       style="fill:#000000;fill-opacity:1"
       transform="matrix(0.24925192,0,0,0.24435636,6.5062031,247.32498)">
      <path
         id="path4496"
         d="M -25.925144,122.20573 7.4376906,203.13975 109.84778,185.81588 c 0,0 3.5683,2.96265 7.70495,4.64872 4.13666,1.68607 7.40258,1.92143 14.01937,0.33212 6.61679,-1.58931 7.25951,-2.30676 10.19654,-5.58024 2.93703,-3.27347 3.63941,-5.60987 3.63941,-5.60987 l 84.97828,-21.05223 -17.63979,-15.50163 -2.13815,11.22532 -86.32806,19.51068 -108.511428,18.17432 -25.925144,-62.80833 v -11.22532 z"
         style="fill:#000000;fill-opacity:1;stroke:#000000;stroke-width:0.26458332px;stroke-linecap:butt;stroke-linejoin:miter;stroke-opacity:1" />
      <path
         id="path4498"
         d="m -4.9136905,110.46875 28.5372025,59.72024 c 0,0 22.011441,-0.1342 31.088542,-3.11831 9.077101,-2.98411 15.580388,-13.55606 25.607886,-16.63095 10.027498,-3.07489 32.97842,1.22842 32.97842,1.22842 0,0 -13.539066,-24.80749 -21.639135,-41.38839 C 90.342649,107.58472 77.035401,95.593721 67.063911,94.075422 57.09242,92.557124 51.375959,93.793088 45.640624,95.633184 c -5.735335,1.840097 -7.730087,4.767646 -14.480518,7.508916 -6.750431,2.74127 -20.377531,7.46515 -26.3800503,7.51564 -6.0025199,0.0505 -9.6937462,-0.18899 -9.6937462,-0.18899 z"
         style="fill:#000000;fill-opacity:1;stroke:#000000;stroke-width:0.26458332px;stroke-linecap:butt;stroke-linejoin:miter;stroke-opacity:1" />
      <path
         id="path4500"
         d="m 124.41396,166.83974 c 0,0 9.28045,-17.39489 19.24341,-22.58428 9.96296,-5.18939 17.78872,-0.27285 29.26602,0.20046 11.4773,0.4733 26.53797,1.3737 38.21953,-4.87767 L 167.44436,96.681487 c 0,0 -15.40722,-1.780508 -20.7802,-3.674956 -20.30114,-7.157924 -32.68445,-3.395431 -40.22408,-1.26953 -7.539631,2.125901 -19.71112,9.220799 -19.71112,9.220799 l 7.216278,5.21176 z"
         style="fill:#000000;fill-opacity:1;stroke:#000000;stroke-width:0.26458332px;stroke-linecap:butt;stroke-linejoin:miter;stroke-opacity:1" />
    </g>
  </g>
</svg>
