<?xml version="1.0" encoding="UTF-8" standalone="no"?>
<svg
   xmlns:dc="http://purl.org/dc/elements/1.1/"
   xmlns:cc="http://creativecommons.org/ns#"
   xmlns:rdf="http://www.w3.org/1999/02/22-rdf-syntax-ns#"
   xmlns:svg="http://www.w3.org/2000/svg"
   xmlns="http://www.w3.org/2000/svg"
   id="svg15"
   version="1.1"
   viewBox="0 0 43.000198 63.999809"
   height="63.999809mm"
   width="43.000198mm">
  <defs
     id="defs9" />
  <metadata
     id="metadata12">
    <rdf:RDF>
      <cc:Work
         rdf:about="">
        <dc:format>image/svg+xml</dc:format>
        <dc:type
           rdf:resource="http://purl.org/dc/dcmitype/StillImage" />
        <dc:title></dc:title>
      </cc:Work>
    </rdf:RDF>
  </metadata>
  <g
     transform="translate(8.0245844e-5,-233.00011)"
     id="layer1">
    <g
       transform="matrix(0.44032658,0,0,0.43911962,-16.334278,207.08383)"
       style="fill:#000000;fill-opacity:1"
       id="g4642">
      <g
         style="fill:#000000;fill-opacity:1"
         id="g4556">
        <g
           style="fill:#000000;fill-opacity:1"
           id="g4547">
          <a
             style="fill:#000000;fill-opacity:1"
             id="a4541">
            <path
               id="path60"
               d="M 77.768601,59.20572 89.53311,66.954232 77.675205,82.783465 66.951016,77.571707 Z"
               style="fill:#000000;fill-opacity:1;stroke:#000000;stroke-width:0.26458332px;stroke-linecap:butt;stroke-linejoin:miter;stroke-opacity:1" />
          </a>
          <path
             style="fill:#000000;fill-opacity:1;stroke:#000000;stroke-width:0.26458332px;stroke-linecap:butt;stroke-linejoin:miter;stroke-opacity:1"
             d="m 94.446801,71.017476 -9.921875,14.882812 9.02418,4.819195 -0.236236,6.000374 13.04018,-15.59152 z"
             id="path4537" />
        </g>
        <path
           id="path4549"
           d="m 110.55803,85.427816 -16.819937,21.450154 -2.362351,6.89806 9.638388,4.44122 5.85864,-3.77976 15.11904,-20.788691 z"
           style="fill:#000000;fill-opacity:1;stroke:#000000;stroke-width:0.26458332px;stroke-linecap:butt;stroke-linejoin:miter;stroke-opacity:1" />
      </g>
      <path
         style="fill:#000000;fill-opacity:1;stroke:#000000;stroke-width:0.26458332px;stroke-linecap:butt;stroke-linejoin:miter;stroke-opacity:1"
         d="m 126.81101,103.85416 -17.4814,17.4814 8.69345,5.10268 16.53646,-14.55209 z"
         id="path4558" />
      <path
         style="fill:#000000;fill-opacity:1;stroke:#000000;stroke-width:0.26458332px;stroke-linecap:butt;stroke-linejoin:miter;stroke-opacity:1"
         d="m 119.0625,133.14731 c 0,0 -1.47578,15.07896 -3.77976,19.56026 -2.30398,4.4813 -6.61459,7.46504 -6.61459,7.46504 0,0 -5.18739,-1.72545 -9.78013,-7.55953 -4.592736,-5.83407 -15.071802,-28.4427 -15.071802,-28.4427 0,0 12.20361,2.1041 17.056182,4.29947 4.85257,2.19538 8.1215,7.25921 11.62276,7.74852 3.50127,0.4893 6.56734,-3.07106 6.56734,-3.07106 z"
         id="path4560" />
      <path
         style="fill:#000000;fill-opacity:1;stroke:#000000;stroke-width:0.26458332px;stroke-linecap:butt;stroke-linejoin:miter;stroke-opacity:1"
         d="m 86.651041,96.861597 0.188989,8.409973 -7.087055,7.843 c 0,0 -10.969867,-4.66784 -17.386904,-4.44122 -3.677452,0.12987 -7.276041,0.47247 -7.276041,0.47247 0,0 1.977916,7.45157 4.819196,9.82738 3.09155,2.58509 12.095238,3.87426 12.095238,3.87426 l 16.441962,28.5372 0.377979,5.66964 -20.127232,1.88989 -12.851191,-12.7567 -17.575892,-30.61607 -1.039435,-15.875 10.677827,-15.497024 20.788691,2.551337 z"
         id="path4609" />
      <path
         style="fill:#000000;fill-opacity:1;stroke:#000000;stroke-width:0.26458332px;stroke-linecap:butt;stroke-linejoin:miter;stroke-opacity:1"
         d="m 51.924477,204.63205 6.142115,-23.6235 4.204986,-0.0472 4.630206,-15.9695 30.616072,-1.13392 c 0,0 3.768114,3.39002 6.472844,3.87425 2.53446,0.45374 8.45722,-1.03943 8.45722,-1.03943 l 4.7247,15.96949 h 2.83482 l 2.59859,21.92262 z"
         id="path4611" />
    </g>
  </g>
</svg>
