<?xml version="1.0" standalone="no"?>
<!DOCTYPE svg PUBLIC "-//W3C//DTD SVG 20010904//EN"
 "http://www.w3.org/TR/2001/REC-SVG-20010904/DTD/svg10.dtd">
<svg version="1.0" xmlns="http://www.w3.org/2000/svg"
 width="49.000000pt" height="59.000000pt" viewBox="0 0 49.000000 59.000000"
 preserveAspectRatio="xMidYMid meet">
<metadata>
Created by potrace 1.15, written by Peter Selinger 2001-2017
</metadata>
<g transform="translate(0.000000,59.000000) scale(0.100000,-0.100000)"
fill="#000000" stroke="none">
<path d="M236 560 c-54 -16 -100 -30 -102 -32 -2 -2 3 -38 11 -79 8 -41 17
-100 20 -132 5 -42 10 -56 18 -49 7 4 48 24 92 42 104 44 146 70 183 116 l31
37 -57 63 c-36 41 -64 64 -77 63 -11 -1 -64 -14 -119 -29z"/>
<path d="M405 349 c-45 -31 -167 -89 -187 -89 -23 0 -23 -1 4 -46 21 -36 21
-37 2 -51 -10 -8 -50 -23 -89 -34 -112 -32 -135 -45 -132 -71 2 -13 16 -29 33
-37 40 -20 199 -28 219 -11 12 10 19 10 27 2 18 -18 133 -15 148 3 10 13 9 15
-11 16 -23 1 -23 1 4 11 32 12 32 9 6 83 -21 60 -20 131 2 208 5 17 7 32 6 33
-2 2 -16 -6 -32 -17z"/>
</g>
</svg>
