<?xml version="1.0" encoding="UTF-8" standalone="no"?>
<svg
   xmlns:dc="http://purl.org/dc/elements/1.1/"
   xmlns:cc="http://creativecommons.org/ns#"
   xmlns:rdf="http://www.w3.org/1999/02/22-rdf-syntax-ns#"
   xmlns:svg="http://www.w3.org/2000/svg"
   xmlns="http://www.w3.org/2000/svg"
   width="16.933331mm"
   height="16.933338mm"
   viewBox="0 0 16.933331 16.933338"
   version="1.1"
   id="svg114">
  <defs
     id="defs108" />
  <metadata
     id="metadata111">
    <rdf:RDF>
      <cc:Work
         rdf:about="">
        <dc:format>image/svg+xml</dc:format>
        <dc:type
           rdf:resource="http://purl.org/dc/dcmitype/StillImage" />
        <dc:title></dc:title>
      </cc:Work>
    </rdf:RDF>
  </metadata>
  <g
     transform="matrix(0.26458542,0,0,0.26458059,-9.1390231e-5,-61.647185)"
     id="layer1">
    <path
       style="fill:#000000;fill-opacity:1;stroke:#000000;stroke-width:0.10640243px;stroke-linecap:butt;stroke-linejoin:miter;stroke-opacity:1"
       d="m 39.681524,233.02431 -7.131409,13.63408 c 0,0 -2.881758,-0.40676 -4.255239,-0.41462 -1.373479,-0.008 -3.949942,0.33924 -3.949942,0.33924 l -4.447513,-6.5534 0.843541,7.98469 c 0,0 -2.422827,1.00101 -3.425954,1.69247 -1.003127,0.69146 -2.555365,2.37506 -2.555365,2.37506 L 0.03657481,244.69981 11.538967,255.39632 c 0,0 -1.279891,2.66262 -1.6342439,4.00594 -0.3543533,1.34331 -0.5128759,3.97874 -0.5128759,3.97874 l -8.3584559,1.28054 8.1284372,1.50648 c 0,0 0.3028029,2.77751 0.675797,4.11592 0.3729935,1.33841 1.5480635,3.86876 1.5480635,3.86876 l -10.2755549,9.86768 13.1127299,-6.478 c 0,0 2.018786,1.88649 3.176435,2.64507 1.157648,0.75861 3.724956,1.87455 3.724956,1.87455 l -1.610338,7.08068 4.67774,-6.25204 c 0,0 2.765627,0.39191 4.102173,0.37547 1.336543,-0.0164 3.872781,-0.45086 3.872781,-0.45086 l 7.054877,14.16136 -2.377137,-15.14055 c 0,0 2.369467,-1.52416 3.367453,-2.38576 0.997986,-0.86162 2.613867,-2.73655 2.613867,-2.73655 l 6.978132,3.691 -4.831016,-6.47799 c 0,0 1.269356,-2.07547 1.732374,-3.19875 0.463014,-1.12328 1.028061,-3.50543 1.028061,-3.50543 l 16.256869,-1.8832 -16.18013,-3.01295 c 0,0 -0.750978,-2.44207 -1.249687,-3.63745 -0.498713,-1.19538 -1.740972,-3.51861 -1.740972,-3.51861 l 5.444538,-5.49882 -7.284895,3.23889 c 0,0 -1.873848,-1.93387 -2.891271,-2.71285 -1.017418,-0.77897 -3.16658,-1.95733 -3.16658,-1.95733 z m -7.22996,20.4643 -0.271115,6.79109 5.937285,-2.07723 -4.690111,4.84713 6.96765,1.78434 -6.723793,1.59792 4.825984,5.21973 -6.940602,-3.19586 0.786298,6.92436 -3.904023,-6.01869 -3.660166,6.01869 0.759039,-6.63126 -6.831989,2.60987 4.961439,-5.77915 -6.561084,-0.6657 6.506777,-1.99751 -6.371115,-5.7258 8.51299,3.78164 -1.057413,-7.35031 3.931281,5.56597 z"
       id="path127" />
  </g>
</svg>
